<?xml version="1.0" standalone="no"?>
<!DOCTYPE svg PUBLIC "-//W3C//DTD SVG 20010904//EN"
 "http://www.w3.org/TR/2001/REC-SVG-20010904/DTD/svg10.dtd">
<svg version="1.0" xmlns="http://www.w3.org/2000/svg"
 width="333.000000pt" height="467.000000pt" viewBox="0 0 333.000000 467.000000"
 preserveAspectRatio="xMidYMid meet">
<metadata>
Created by potrace 1.13, written by Peter Selinger 2001-2015
</metadata>
<g transform="translate(0.000000,467.000000) scale(0.100000,-0.100000)"
fill="#fff" stroke="none">
<path d="M1920 4494 c-334 -42 -440 -66 -440 -99 0 -8 12 -18 28 -21 44 -11
80 -42 93 -81 15 -46 4 -241 -21 -363 -5 -25 -12 -90 -15 -145 -5 -97 -19
-213 -50 -420 -9 -55 -15 -118 -15 -140 0 -22 -5 -59 -10 -81 -5 -23 -14 -84
-19 -135 -10 -96 -15 -141 -52 -429 -35 -272 -37 -289 -54 -445 -9 -82 -20
-175 -25 -205 -6 -30 -12 -76 -16 -102 -5 -48 -5 -48 -57 -63 -29 -8 -92 -19
-142 -25 -49 -5 -106 -14 -125 -20 -92 -27 -173 2 -185 66 -8 43 2 219 16 284
5 25 13 95 19 155 5 61 14 137 19 170 5 33 17 130 26 215 9 85 23 195 31 244
8 49 14 115 14 147 0 69 -11 76 -93 60 -28 -5 -90 -15 -137 -21 -47 -6 -103
-15 -125 -20 -22 -5 -71 -16 -110 -24 -38 -9 -82 -18 -97 -21 -39 -8 -38 -42
1 -58 16 -7 39 -25 51 -40 19 -24 21 -36 17 -100 -7 -106 -26 -289 -32 -314
-3 -12 -12 -82 -20 -155 -8 -73 -22 -187 -30 -253 -8 -66 -20 -173 -26 -238
-12 -136 -5 -170 44 -220 l31 -32 131 2 c71 1 141 6 155 11 14 5 95 20 180 32
85 11 165 25 178 31 13 5 67 14 120 19 130 14 129 16 114 -137 -6 -65 -26
-237 -43 -383 -17 -146 -37 -319 -44 -385 -8 -66 -21 -172 -29 -235 -30 -221
-30 -213 -8 -240 17 -21 27 -24 79 -23 32 1 79 7 103 12 25 6 76 11 113 11 79
0 127 17 144 51 7 13 18 67 23 119 38 333 60 524 80 670 4 36 18 155 29 265
12 110 25 232 30 270 17 124 51 405 71 585 11 96 24 211 30 255 6 44 15 121
21 170 12 108 33 195 50 206 7 4 33 10 58 14 25 3 60 10 76 14 73 21 230 33
271 22 37 -10 44 -17 64 -62 24 -57 24 -64 -4 -294 -9 -71 -22 -184 -30 -250
-8 -66 -19 -142 -24 -170 -24 -115 -33 -209 -35 -360 l-2 -160 105 3 c58 2
121 7 140 12 19 5 65 11 103 15 37 4 73 13 81 20 8 8 15 49 19 107 3 51 10
113 16 138 11 47 31 199 37 285 2 28 11 97 19 155 30 215 38 277 45 355 5 44
13 98 20 120 8 25 10 68 7 114 -5 66 -9 78 -36 105 -48 48 -132 51 -361 11
-52 -9 -131 -22 -175 -30 -141 -23 -255 -46 -281 -55 -36 -14 -100 -12 -111 3
-7 7 -7 36 -2 77 4 36 13 108 18 160 5 52 19 167 29 255 11 88 26 219 32 290
7 72 19 186 27 255 8 69 19 179 24 245 5 66 14 133 19 149 14 41 12 62 -6 80
-18 18 -23 18 -164 0z"/>
</g>
</svg>
