<?xml version="1.0" encoding="UTF-8"?>
<!DOCTYPE svg PUBLIC "-//W3C//DTD SVG 1.1//EN" "http://www.w3.org/Graphics/SVG/1.1/DTD/svg11.dtd">
<!-- Creator: CorelDRAW X8 -->
<svg xmlns="http://www.w3.org/2000/svg" xml:space="preserve" width="1607px" height="2267px" version="1.1" style="shape-rendering:geometricPrecision; text-rendering:geometricPrecision; image-rendering:optimizeQuality; fill-rule:evenodd; clip-rule:evenodd" viewBox="0 0 1641 2315" xmlns:xlink="http://www.w3.org/1999/xlink">
 <defs>
  <style type="text/css">
   <![CDATA[
    .fil1 {fill:none}
    .fil0 {fill:#198DB3}
   ]]>
  </style>
 </defs>
 <g id="Warstwa_x0020_1">
  <metadata id="CorelCorpID_0Corel-Layer"/>
  <path class="fil0" d="M948 2058c0,-5 0,-5 -2,-9 -2,-4 -2,-7 -4,-11 -3,-4 -4,-5 -5,-11l-1 -1c-2,-1 0,1 -1,-1l-3 -2c0,1 3,3 -2,1 -6,-19 -5,-26 -13,-40 -4,-6 -3,-13 -6,-20 -2,-7 -5,-12 -8,-18l-7 -18c-2,-7 -3,-14 -6,-21 -5,-16 -8,-22 -12,-40 -3,-13 -10,-24 -16,-35 -3,-8 -4,-27 -6,-33 -2,-5 -3,-2 -5,-8 -2,-4 -19,-84 -18,-86 3,-3 5,-2 9,1 7,3 4,0 10,2 5,12 0,10 -1,17 -1,10 3,12 7,15 5,7 -4,14 1,19 2,4 1,0 5,4 1,6 -1,6 0,10 1,9 7,2 6,15 -2,15 4,2 5,18 1,7 5,19 9,26 4,8 0,9 2,14 1,7 4,1 6,12 1,6 -1,9 2,13 10,11 7,10 10,28 2,8 4,7 6,12 3,7 5,26 7,31 2,5 -1,-2 3,4 4,5 2,3 1,7 -1,8 0,5 5,10 7,7 0,19 12,24 1,8 0,1 0,6 -1,3 -1,2 0,6 3,2 6,2 8,5 3,4 1,8 1,12 0,6 3,7 4,11 2,4 3,11 4,15 3,2 1,0 4,1 4,11 1,10 8,14 7,5 1,6 1,12 1,8 5,2 8,12 4,14 0,6 9,15 3,2 1,-2 2,3 3,9 0,2 -1,8 0,11 4,0 7,14 2,11 4,3 7,12 4,11 2,8 11,10 0,5 -2,10 -8,11 -5,0 -3,-1 -7,-2 -3,-2 -3,-2 -7,-3 -3,-16 -6,-9 -10,-23l-5 -11c-2,-4 -5,-6 -6,-10 -8,-16 -8,-9 -11,-22 -8,-32 -5,-9 -9,-25zm-285 -628c0,-1 0,-1 0,-2 0,-3 -1,-5 -4,-5 -3,-1 -6,2 -4,5 -1,8 9,7 8,2zm-9 -29c-1,-3 -1,-3 -4,-5 -1,-1 -4,-1 -5,-1 -1,0 -3,2 -2,4 0,3 0,3 2,4 1,1 2,1 3,2 2,2 6,0 6,-4zm-15 -32l0 0c-4,-2 -6,4 -4,6 1,2 1,5 5,4 2,0 4,-2 4,-5 -1,-2 -1,-6 -5,-5zm-15 21c0,-1 -1,-2 -2,-3 0,-1 -1,-1 -1,-2 -1,-2 -2,-9 -3,-10 -1,-6 -8,-4 -7,0 1,2 1,4 2,5l0 -1c0,3 1,9 3,11l0 0 -1 -1c0,1 0,3 0,3 -1,3 1,9 1,11 -2,5 -2,11 1,15 -1,1 -1,3 0,4 0,2 -1,3 -1,5 0,1 -1,1 -1,2 0,2 -2,4 -2,5l-1 0 5 14c-31,8 -16,3 -25,3 -4,-1 -6,0 -10,0 -7,0 -6,-5 -5,-11 8,-4 3,-1 11,-3 4,-6 2,-8 5,-16 2,-6 5,-8 2,-17 -18,3 -8,21 -19,25 -8,3 -14,-3 -8,-15 6,-11 2,-16 3,-22 2,-6 3,-2 1,-11 -7,1 -7,5 -10,11 -2,6 -4,7 -7,12 -13,25 -3,18 -7,30 -13,4 -5,-5 -21,-1 1,4 0,2 1,5 6,11 3,8 7,9 9,2 5,-5 14,4 9,8 14,2 22,14 3,-1 11,-2 13,-2 5,0 2,2 6,4 2,0 19,-1 21,-2 2,-3 0,-6 3,-9 3,-2 7,-2 11,-2 -1,-3 -1,-6 -2,-8 1,-1 1,-2 0,-4 1,0 1,-1 2,-2 1,-1 1,-4 1,-6 0,0 1,-2 2,-3 1,-1 1,-2 0,-4 1,-4 0,-13 -3,-16 1,-1 2,-8 2,-9l0 0c0,-1 0,-1 0,-2 -1,-2 -1,-7 -3,-9 0,0 0,-1 0,-1zm354 -920c5,-2 6,-2 6,-7 -6,-5 -10,-2 -6,7zm53 10l8 -6c0,-1 0,-2 0,-4 -9,2 -10,1 -8,10zm71 395c6,0 8,-3 7,-8 -3,-3 -2,-3 -7,-3 -2,5 -2,5 0,11zm-79 -483c8,-1 9,-4 7,-11 -10,1 -10,2 -7,11zm-30 41l2 8 10 -3 -2 -8c-4,-1 -8,0 -10,3zm9 17c-6,6 4,11 9,6 2,-2 0,-14 -9,-6zm38 -7l10 -3c-1,-9 -2,-10 -11,-8 -1,5 -2,6 1,11zm-62 -159l2 8 8 -1 2 -4c-2,-13 -5,-12 -11,-5l-1 2zm45 175l11 -3 0 -7c-2,-2 -6,-6 -11,-3 -4,2 -1,8 0,13zm-63 957c-7,1 -10,1 -15,4 2,7 2,4 9,6 6,1 4,2 12,0 -1,-7 -2,-7 -6,-10zm61 -1005c4,1 6,0 11,-1 4,-1 5,-2 8,-4 -3,-8 -3,-7 -13,-4 -3,1 -5,0 -6,3 -1,0 -1,2 -1,2 0,7 0,3 1,4zm-78 100c6,2 9,1 13,-3 5,-6 2,-8 -2,-12l-7 2c-2,4 -1,2 -3,5 -1,3 -1,4 -1,8zm73 -83l1 9c6,-1 6,-2 10,-5 4,-4 7,-3 13,-5l-2 -9c-10,0 -13,3 -22,10zm-124 -155c-1,2 -1,1 0,2 2,3 6,14 11,8 1,-2 0,1 0,-3 0,-7 -3,-18 -7,-23l-7 1 3 15zm-61 123c15,9 19,12 29,10 0,-3 0,-4 -5,-7 -4,-2 -4,-2 -8,-4 -4,-3 -13,-8 -17,-7l1 8zm27 67c5,2 20,8 17,-6 -8,-3 -13,-2 -21,-3 -7,-1 -13,-6 -21,0 1,1 0,1 3,4 6,5 4,-1 22,5zm180 27c-13,-3 -5,0 -16,3 -6,2 -14,5 -10,12 2,5 7,2 19,-1 8,-2 9,-6 7,-14zm-43 2c12,-2 8,-3 15,-7 14,-9 10,-11 5,-17l-2 -2c-13,1 -8,3 -13,10 -3,6 -7,6 -5,16zm39 218l7 -1c2,-5 2,-16 2,-22 -2,-14 4,-15 -6,-19 -6,8 -5,10 -5,19 0,9 -1,14 2,23zm7 -52c-1,-9 -2,-16 -4,-26 -1,-8 5,-20 -7,-19 -2,5 0,8 -1,12 -2,8 0,18 2,28 2,7 2,7 10,5zm-185 -135l-17 13c-3,2 -5,2 -8,4l2 6c5,-1 9,-1 13,-4l18 -11c4,-1 17,-9 19,-12 3,-5 0,-10 -9,-8 -10,3 -2,7 -18,12zm287 72c-16,-7 -9,-5 -14,-8 -2,-2 -3,-1 -5,-3 -4,-2 -4,-5 -9,-7 -4,-3 -7,-3 -13,-1 1,4 2,5 4,6l9 4c7,5 6,9 13,13 9,5 3,0 15,8l8 5c6,4 7,1 8,-1 4,-9 -12,-12 -16,-16zm-90 89c0,5 2,13 3,17 2,10 1,-2 6,20l6 21c17,-1 10,-8 6,-18 -1,-3 -1,-7 -2,-10 -3,-16 -6,-24 -13,-34 -3,1 -4,2 -6,4zm333 395l0 0c-3,-2 -5,-3 -10,-2 -2,5 -3,1 -2,10 1,4 3,5 3,8 -1,5 -1,-1 -1,5 0,5 2,9 1,15 -2,12 0,7 1,20 1,3 1,7 2,10 1,6 0,7 4,7 3,0 5,-3 5,-6 0,-5 -1,-4 0,-10 2,-8 -1,-47 -3,-57zm-472 -505c-3,8 1,4 -7,11l-12 7c-2,2 -10,7 -11,9l-7 11c-3,6 -6,5 -10,10 -9,12 -1,4 -13,15 -8,6 -10,6 -9,11 1,4 2,4 6,3 4,-2 10,-6 12,-9 8,-12 19,-18 28,-29 3,-3 4,-8 7,-11 3,-3 8,-5 11,-8 3,-3 2,-3 5,-5 9,-7 13,-5 10,-16l-10 1zm94 33c-2,3 0,1 -3,4 3,17 -1,17 -1,24 0,6 1,4 0,9 -2,12 1,10 -1,16 -4,13 0,8 -2,16l-4 14c0,4 0,5 -1,8 -1,2 -2,4 -3,7 -4,8 0,8 -2,16 0,2 -8,18 4,15 3,-1 6,-8 7,-10 1,-5 1,-22 3,-28 4,-10 2,-15 8,-25 3,-6 4,-19 3,-26 -1,-11 0,-5 1,-10 0,-3 -1,-7 0,-10 0,-3 4,-30 -9,-20zm-65 52c1,-11 4,-5 7,-18 1,-4 0,-3 2,-6 5,-8 1,-3 9,-17 1,-3 3,-3 -1,-5 -3,-3 -4,-2 -8,0 -4,3 -3,6 -4,7 -1,7 -3,13 -7,19 -4,7 -9,14 -13,21l-12 25c-2,12 -7,11 -6,25 1,12 -4,8 -1,20 8,-1 5,-2 9,-8 7,-10 1,-2 6,-14 1,0 1,-1 2,-2 5,-12 6,-13 10,-28 1,-8 2,-4 3,-9 2,-7 -1,-4 4,-10zm-488 662c0,-6 3,-11 7,-16 2,-3 1,-4 3,-8 4,-6 11,-15 11,-23 0,-9 -5,-10 -11,-7 -9,5 -10,14 -14,21 -3,5 -3,5 -2,13 -5,5 -4,1 -7,9 -7,16 -9,20 2,32 9,-1 6,-2 11,-4 14,-7 23,-7 30,-12 6,-4 4,-4 7,-6 3,-3 12,-4 18,-10 3,-2 2,-3 1,-8 -7,-5 -16,-5 -23,1 -4,3 -1,1 -6,3 -14,5 -11,11 -27,15zm-61 -44c-5,-8 -5,-5 -7,-10 -1,-1 -1,-3 -1,-5 0,-11 7,-14 7,-14 5,-5 -4,6 1,-2 2,-2 0,-1 4,-4 7,-5 15,-9 24,-10 5,7 6,4 7,17 1,9 -2,8 -6,14 -8,12 -9,12 -29,14zm-13 -47c1,10 -2,6 -5,13 -4,9 -7,22 -2,31 6,9 23,23 36,19 9,-3 18,-9 23,-16 4,-6 11,-19 13,-25 1,-5 1,-1 1,-7 1,-7 -2,-17 -9,-22 -6,-3 -5,-4 -13,-5 -7,-2 -26,-3 -31,4 -3,3 1,4 -13,8zm743 62c6,-2 4,-2 9,0 2,1 5,2 7,3 1,1 1,1 2,3 2,1 2,0 3,2 8,5 9,14 10,23 1,14 -13,17 -23,11 -14,-10 -15,-20 -12,-35 1,-3 2,-5 4,-7zm49 34c-2,-14 -1,-27 -8,-35 -9,-10 -8,-13 -21,-16 -6,-2 -10,0 -16,-1 -9,0 -15,4 -19,11 -11,16 -24,15 -4,45 5,7 26,20 35,20 28,-1 23,-16 33,-24zm-325 362c-1,2 0,1 -2,3 -1,2 -2,3 -4,3 -11,2 -16,-4 -17,-15 0,-14 -4,-13 -7,-27 -3,-17 -6,-10 -10,-24l-4 -29c0,-1 2,-2 4,-3l16 -2c2,7 -4,12 0,16 2,3 9,5 11,9 -2,7 -11,5 -6,20 5,2 10,1 11,8 -3,2 -10,1 -10,11 -1,13 4,9 14,8l1 7c-8,2 -10,1 -11,7 5,3 5,1 13,0 1,4 2,4 1,8zm657 -275l9 -2 5 21c-3,0 -12,-4 -14,-6 -4,-4 -2,-10 0,-13zm-18 -34c7,-2 7,-1 11,0 3,0 7,0 10,0l2 21c-8,3 -13,1 -19,-2 -2,-10 -4,-8 -4,-19zm-675 142l-17 5 2 7 16 -2c2,2 0,-2 3,3 3,5 3,13 1,15 -3,2 -5,2 -8,4 -6,4 -4,0 -3,6 4,2 6,1 11,0 3,12 4,8 6,15 -7,8 -7,12 -20,15 -3,-10 -13,-47 -14,-59l-3 -17c-1,-8 2,-6 12,-7 9,-1 7,-2 14,0 1,6 2,11 0,15zm570 -115c-5,5 -13,7 -23,10l0 -1c-1,1 -1,1 -3,2 -7,6 -18,10 -24,2 3,-10 12,-6 21,-17 5,-7 4,-5 14,-7 12,-3 1,-4 14,-6 3,3 6,8 4,14 -1,4 0,1 -3,3zm3 -20c-1,-10 1,1 6,-14 8,-2 9,0 15,3 1,4 2,5 1,8 -4,9 -12,4 -19,4l-3 -1zm-604 95c7,-3 18,-5 24,-2 5,15 2,15 -10,19 -13,5 -13,-5 -14,-17zm724 -125c0,0 3,2 2,6 -1,5 0,3 -4,4 -10,4 -15,6 -19,-3 -1,-2 -2,-5 -3,-8 -5,-16 -4,-6 -2,-18 6,-2 19,-5 24,-3 1,1 1,-4 2,3 1,8 -8,5 -11,9 -1,1 -2,9 5,10 2,0 5,-1 6,0zm-90 -10c7,-2 21,-2 23,7 -11,10 -7,26 -29,12 -4,-3 -3,0 -5,-3 6,-5 9,1 18,-1 -3,-12 -8,-3 -7,-15zm-633 116c3,-3 3,-2 6,-3l1 -1c2,-1 -1,-1 5,-2 8,-3 8,1 9,8 -3,2 -6,4 -8,5 -20,17 -16,-5 -13,-7zm639 -132c11,-4 10,-2 17,-1l10 1c1,4 -1,5 -2,8 -7,2 -7,2 -13,-1 -6,-2 -10,1 -12,-7zm20 -11c-1,-2 -1,0 -1,-2 0,-5 2,-6 9,-5l2 5c-2,2 2,1 -4,3 -1,0 -2,0 -3,0 -3,0 -1,0 -3,-1zm-640 124c-7,2 -15,5 -21,4 -10,-13 1,-13 7,-14 10,-2 14,-3 14,10zm687 -129c5,1 15,-2 19,-2 4,2 5,8 -1,10l-10 3c-16,4 -6,3 -14,5 -1,-4 -2,-8 -3,-12 -1,-7 0,-7 0,-12 0,-10 -5,-12 -1,-23 16,-4 1,8 17,10l15 1c-3,13 -21,10 -22,20zm-35 -15c-4,-14 9,-10 10,-10 0,1 1,-3 1,4 0,5 -7,5 -11,6zm-19 -1c0,-3 -4,-5 7,-7l1 5c0,0 1,2 -3,3 -8,1 -2,0 -5,-1zm-438 67c12,-2 11,0 18,5 13,12 -7,22 -8,22 -12,4 -11,-22 -10,-27zm70 2c-16,-12 -1,-26 2,-27 9,-2 12,9 13,16 -3,2 -4,3 -6,6 -4,3 -4,3 -9,5zm374 -87l-1 -5c4,-3 23,-6 28,-6 3,9 1,10 -19,12 -4,0 -5,0 -8,-1zm4 -20c5,-6 7,-3 14,-5 6,-2 5,-4 14,-5 13,-3 22,-6 36,-8 0,7 7,0 3,8 -2,3 -4,0 -2,6 1,5 8,6 6,17 -2,6 -4,10 -9,11l-3 -11c-12,-5 -17,8 -20,-7l7 -4c2,-2 0,1 1,-2l-43 3c-5,-1 -2,-1 -4,-3zm-438 84c4,-1 11,-3 16,-3 3,-1 11,0 15,1 1,5 2,5 0,9 -5,11 -10,3 -19,0 -13,-4 -9,-3 -12,-7zm-23 3c3,-1 7,-2 10,-1 2,2 0,5 0,7 -5,1 -9,1 -13,3 -3,2 -4,4 -5,5 -2,3 0,4 -5,1 -1,-1 0,0 -2,-1 -7,-4 -10,-4 -17,-2 1,6 11,9 12,9 10,0 15,-5 10,9 -9,2 -2,-2 -14,-2 -14,0 -12,-1 -28,-5 -7,-1 -7,-3 -7,-10l5 -2c5,-3 2,0 3,-5 0,-2 -2,-17 15,-10 15,8 18,10 36,4zm-207 36l2 7c8,-1 13,-5 14,4 2,10 -5,7 -8,13 3,5 6,3 11,4 2,7 3,9 -4,11 -26,8 -15,-4 -22,-18 -1,-2 -4,-2 -1,-19 1,-7 0,-6 -1,-14l22 -6c4,0 5,0 6,3 1,6 -6,7 -19,15zm672 -135c-5,1 -6,2 -10,1 0,-3 -2,-3 3,-5 2,-1 6,-1 8,-1 11,-2 10,-9 27,-8 -2,10 -20,12 -28,13zm-496 72l1 2c9,21 10,2 12,16 -8,2 -8,-1 -16,-4 -3,-12 -2,-13 3,-14zm-184 41c-1,-3 -1,-3 -1,-6 1,0 3,-5 4,-5l16 -3c6,-1 2,-2 4,1 -1,4 2,2 -4,4 -15,6 -7,8 -19,9zm710 -147l1 8c-5,5 -34,15 -44,13 2,-11 19,-8 26,-14l-1 -6c-12,0 -23,7 -34,5 -1,-7 2,-9 7,-10 16,-5 22,-9 30,-3 6,5 7,5 15,7zm-890 167c-1,-4 1,-19 5,-21 1,0 3,-2 5,3 0,1 1,2 1,3 2,9 -2,14 -11,15zm68 -19l-2 -7 7 -3c4,8 3,10 -5,10zm206 -52c0,0 -2,-2 7,-2 3,9 2,11 -6,10 0,0 -2,1 -2,-7 0,0 0,-1 1,-1zm48 -1l-6 1c-2,-6 -4,-11 3,-11 6,-1 4,6 3,10zm-25 -18l4 -1c3,5 4,8 1,12 -2,-1 -3,0 -5,-3 -1,-3 0,-6 0,-8zm-230 55c-2,0 -7,1 -8,0 -9,-6 8,-22 8,0zm272 -64c7,-1 8,-1 9,6l-2 3c-1,2 -2,6 -6,4 -8,-4 -4,-9 -1,-13zm-239 54l-2 -7 9 -2c1,7 0,8 -7,9zm217 -56l2 -6 5 -2c3,2 1,1 4,3l0 8 -7 2 -4 -5zm-233 51l-8 1c-2,-3 -8,-8 0,-11 8,-3 6,4 8,10zm213 -64l9 -1c3,12 -7,15 -9,1zm-247 60l-2 -8c2,-3 4,-5 8,-5l2 6c-7,8 -2,6 -8,7zm38 -19c2,-4 6,-8 12,-6 10,12 -9,22 -12,6zm789 -127c-9,-1 -11,-16 -12,-25 -1,-12 5,-1 -1,-31 -2,-10 -5,-15 6,-16 4,9 5,27 8,38 2,10 1,8 0,17 -1,7 1,10 -1,17zm-598 80c7,-2 9,-1 10,6 -6,7 -6,11 -10,8 -4,-3 -1,-11 0,-14zm-206 40l1 8 -8 2c-1,-7 0,-9 7,-10zm248 -52l8 -1c3,4 4,6 4,12 -11,3 -10,1 -12,-11zm-210 46c2,-2 -4,-1 2,-2 4,-1 5,-1 6,3 1,2 1,3 1,5 -2,1 -6,2 -8,1 -4,-3 -1,-7 -1,-7zm-157 38c-8,-12 6,-16 7,-7 2,7 -1,7 -7,7zm799 -163c2,10 -12,14 -15,11 -9,-9 9,-13 15,-11zm-623 125c-1,-2 -3,-7 -3,-9 2,-7 12,-5 10,5 -1,4 -3,3 -7,4zm642 -120l-6 1c-3,-7 -1,-8 1,-13l8 -2c1,5 2,5 0,8l-3 6zm-509 139c-4,2 -2,2 -8,3 -5,-18 -1,-12 0,-16l0 -35c-1,-4 2,-10 3,-14 4,0 -1,-1 2,0 0,0 1,0 1,0 10,4 1,25 1,25 -2,11 0,24 1,37zm-178 -29c8,-3 9,-3 10,5 -4,5 -6,8 -10,6 -6,-2 -2,-8 0,-11zm222 -30l-5 1c-7,-6 -5,-8 -5,-17l8 -1c4,5 6,10 2,17zm-241 29l1 7 -9 2c-1,-6 1,-9 8,-9zm37 -8l7 -2c3,9 -6,14 -7,2zm146 36l-12 3c-7,-15 -2,-28 -2,-32 -1,-14 -1,-5 1,-12 0,-4 -1,-6 0,-10 0,-3 2,-4 1,-9 0,-8 -2,-8 2,-15 2,-4 0,-2 4,-4 1,6 3,14 3,20 -5,33 3,40 3,59zm39 -67l-7 2 -3 -9 9 -3 1 10zm-164 27l-1 -8 8 -2c2,8 1,9 -7,10zm-47 4c0,-3 -4,-4 8,-6l0 5c-4,1 -4,2 -8,1zm89 45l-9 2c-1,-5 -1,-8 -2,-12 -2,-5 -3,-1 -5,-9 -3,-10 -2,-16 -3,-25 -2,-10 -3,-15 -3,-24 -1,-10 -9,-18 4,-20 8,-2 8,3 10,17 1,9 -1,16 2,24 2,8 5,15 4,24 -1,10 1,13 2,23zm57 -54c-2,-2 -1,1 -2,-3l-3 -19c-1,-6 -1,-14 5,-16 3,5 4,14 2,19 -3,10 2,10 1,16 -1,4 1,2 -3,3zm-12 49c-17,14 -13,-27 -21,-36l-5 5c0,2 4,29 4,29 -1,5 -8,7 -10,2 -1,-1 -1,-11 -2,-15 -1,-14 5,2 -1,-27 -2,-10 -4,-22 -6,-31 2,-2 2,-2 3,-4 3,-5 0,-1 3,-5 6,-6 2,-2 6,-10 5,-1 12,0 17,2 4,12 4,11 2,22 -1,6 4,24 2,35 0,4 -1,6 1,12 3,4 7,3 7,21zm-620 89c-2,-2 -2,-2 -3,-8 -3,-13 -13,-36 -5,-44l6 -5c3,-2 3,-2 8,-2l3 15c1,8 -1,11 -2,16 0,18 5,1 -3,22 -2,4 -1,4 -4,6zm526 -150c-3,-13 -4,-16 10,-17 3,11 1,15 -10,17zm739 -81c-4,1 -7,1 -11,0 -5,-17 -2,-14 -1,-20l2 -20c-4,-24 -1,-13 -1,-22 0,-5 -2,-17 -2,-23 2,0 7,1 9,2 2,7 1,4 0,8 -5,11 4,22 1,33 -2,7 0,14 3,22 2,6 2,15 0,20zm-1262 156l-1 5c-16,9 -8,8 -19,9 -2,-5 -3,-6 -3,-13 2,-2 11,-8 13,-10 11,-7 13,2 10,9zm32 -35c2,-2 5,-5 9,-5 1,-1 -2,-3 4,0 6,3 4,10 8,15 3,3 3,2 5,7 7,18 9,22 8,43 -1,1 1,1 -1,6 -13,-1 -20,-25 -20,-36 3,-4 8,-6 6,-13 -2,-1 -5,0 -7,0 -8,-1 -12,-8 -12,-17zm1042 -180l5 8c3,7 24,26 27,43 -4,4 0,2 -6,6 -2,1 -3,1 -5,3 -8,7 -6,2 -12,6 -4,3 -2,3 -10,4 -19,-15 -1,0 -20,-23 -10,-13 -12,-19 -26,-15 -1,1 -2,4 -2,5 -2,9 -4,3 -2,15 -5,2 -14,3 -17,6l-1 2c-3,7 -13,15 -15,17 -4,4 -3,4 -7,8 -3,3 -6,5 -9,7l0 7c5,2 9,6 14,0 5,-6 2,-6 13,-8 5,11 12,13 19,20 2,2 4,4 6,6 11,13 35,8 26,-3 -1,-1 -3,-3 -6,-3 -9,-3 -17,-13 -22,-21 -4,-7 -6,-6 -7,-16 0,0 0,-1 0,-1l6 -7c3,-4 2,-8 5,-9 6,-3 15,7 19,11 3,3 3,5 5,7 1,1 3,2 3,3l14 12c3,2 3,3 6,4 13,-2 10,-1 17,-7 5,-4 3,-2 5,-7 4,-10 10,-6 17,-7 8,-2 4,-12 13,-8 12,6 4,16 -5,20l-2 -1c-2,5 -2,3 -6,7 -2,2 -4,4 -7,6 -3,2 -14,6 -16,10 -2,7 1,8 -4,14l-16 3c1,9 2,8 0,14 -5,11 1,6 -5,11 -7,5 -5,-4 -13,2 1,9 1,0 4,7 2,4 -1,5 -2,8 -6,6 -7,4 -13,6 -11,3 -2,10 -3,16 -7,8 -7,4 -15,8 -2,7 0,9 1,16 -6,8 -7,6 -18,9 -5,8 -2,8 0,18 -12,6 -6,5 -14,5 -16,2 1,18 -13,25 -7,4 -6,-2 -15,2l-2 0c1,14 4,6 5,13 0,1 -2,4 -3,5 -2,2 -6,3 -9,3 -6,0 -8,-5 -14,0 -4,3 -2,9 -2,14 -5,4 -6,4 -13,5 -1,-1 -3,-3 -5,-4l1 -1c-19,-2 -2,16 -20,21 -12,3 -11,-3 -18,-1 -9,2 -4,5 -17,7 -18,-17 -10,5 -28,7 -9,0 -10,-8 -20,-7 -6,4 2,2 -6,5 -10,4 -10,-3 -12,-6 -1,-3 -2,-4 -3,-6 -15,2 -7,4 -16,8 -5,-4 -11,-10 -17,-11l-22 -6 -10 -10c10,-7 12,7 25,-1 -1,-4 0,-3 -3,-4 -1,-1 -3,-1 -5,-2 -5,-1 -14,-4 -17,-7 -5,-5 -7,-12 1,-11 7,0 -4,2 14,6 4,1 7,1 11,2 19,2 6,3 15,5 2,0 5,-1 6,-2 2,-3 0,-3 -1,-4 -7,-8 -19,-8 -25,-11l0 1c-9,1 -9,2 -14,-2 -14,-10 -5,-19 8,-13 13,6 13,7 28,6 7,-1 11,-4 17,-5 5,20 -2,29 8,45 3,6 -1,3 4,6l2 0c1,0 9,-1 10,-9 1,-3 0,-5 0,-8 1,-6 2,-4 2,-9 22,-6 12,-2 27,-12 2,-2 6,-7 6,-10 2,-5 0,-8 3,-12l1 -2c4,3 5,7 7,12 4,7 8,9 11,16 4,7 5,14 9,20 3,4 24,3 16,-12 -3,-6 -9,-22 0,-28 13,-7 28,22 45,5 -1,-9 -7,-10 -14,-12 -8,-3 -13,-9 -14,-17 -2,-6 -1,-14 -5,-19l-4 -4c-7,-8 -27,-7 -10,-22 9,-9 9,-11 13,-14 5,-4 7,-10 10,-15l5 -8c2,-2 1,-1 2,-3l5 -11c4,-8 5,-17 9,-24 3,-6 2,-7 4,-13 0,-2 10,-12 13,-20l20 -32c5,-7 11,-9 18,-18 3,-3 13,-15 18,-18l23 -14c4,-3 5,-5 10,-9 5,-3 14,-5 18,-9 7,-7 10,-7 20,-10 9,-3 1,-4 11,-7 1,0 2,0 4,-1l12 -3c20,-4 45,-11 66,-9 4,1 11,0 15,0 8,-1 21,-6 18,9 -1,3 -2,5 -1,10 3,17 7,33 8,49 0,6 1,15 3,21 1,3 4,4 6,2 5,-4 2,-19 1,-25 0,-7 2,-6 1,-11 0,-4 -1,-8 -1,-12 -1,-3 0,-9 -1,-11l0 -16c0,-2 0,-1 0,-4 0,-3 0,-1 0,-3 9,0 6,11 8,18 2,12 2,15 2,24 -1,21 7,24 -2,44 -12,4 -29,5 -43,3 -9,-34 -2,-30 -4,-43 -1,-5 -2,-11 -5,-14 -15,-3 -8,19 -6,29 2,10 0,16 -7,12 -2,-2 -2,-4 -4,-7 -1,-3 -2,-4 -3,-9l-8 2c-2,6 0,10 -5,13 -5,4 -21,7 -27,7 -15,-21 -4,-14 13,-28l-1 -6c-6,-3 -7,-3 -15,-2 -6,1 -12,4 -17,2l-1 -5c7,-4 18,-3 26,-6 4,-1 5,-4 8,-6 3,-3 4,-5 3,-10 -12,-11 -20,-1 -33,4 -19,8 -8,3 -19,4 -7,0 -10,6 -14,10zm-1074 173c1,3 1,1 1,4l-3 8c-2,3 -1,2 -3,4 -7,9 -15,20 -22,15 -4,-2 -6,-5 -3,-10 2,-4 15,-12 18,-15 5,-4 2,-4 12,-6zm33 -24c2,1 2,1 3,6 1,3 1,7 1,10 -7,4 -13,7 -15,-5 -1,-5 3,-9 7,-11 5,-2 2,-1 4,0zm-68 35c-3,-13 5,-12 12,-19 8,-8 9,-13 19,-14l1 7 -18 16c-3,4 0,1 -4,4 -6,6 -5,6 -10,6zm170 -52c-1,-1 -4,-3 -4,-4l0 1 -2 -2c-1,0 -3,-2 -4,-2 0,0 -1,-1 -1,-1l0 0c0,0 -1,0 -1,0 -2,-1 -2,-1 -3,-2 0,0 -2,-2 -3,-3 0,0 -1,-1 -2,-2 -6,-5 -2,-12 0,-21l2 -15c5,-1 7,-1 10,-4 -3,-5 -1,2 -5,-8 -2,-6 -5,-10 1,-11 5,-1 6,4 7,-2 0,-5 -5,-7 -7,-8 -16,-7 -17,-1 -18,-13 10,-3 17,0 22,-5 -2,-3 1,-1 -4,-3l-6 -2c-2,0 -3,0 -5,-1 -2,-1 -3,-2 -5,-2l-18 -1c-2,0 -4,0 -6,0 -1,-4 0,-5 1,-8 9,-3 6,-2 13,0 5,0 9,-1 14,-1 7,6 3,1 12,4 4,1 10,2 15,-2 -1,-2 -1,-4 -3,-5 -3,-2 -9,-2 -13,-3 -20,0 -18,-4 -27,-4 -5,0 -2,1 -7,-1 0,-4 -1,-3 2,-5 3,-4 21,-3 25,-2 16,3 2,4 19,0 4,-1 4,1 7,2 3,1 6,1 10,-1 4,-3 3,-3 4,-7 6,-2 11,-2 13,4 1,6 -1,-1 -2,7 -1,12 13,5 13,5 2,-1 3,-1 4,0 9,3 8,17 12,21 3,3 6,2 9,3l18 19c11,10 15,20 17,23l10 14c8,10 1,4 12,15 3,2 3,2 6,6 7,11 10,10 10,15 0,4 -2,5 2,7 3,1 4,-1 8,2 6,4 8,9 12,14 4,5 23,17 26,23 5,8 5,8 12,13 4,3 10,7 13,13 5,13 -2,13 -12,16 -6,3 -1,1 -6,5 -2,2 -3,2 -5,4 -3,5 2,-5 -1,3l-7 14c-5,7 -7,6 -10,14 -2,5 -8,14 -8,17l6 23c15,3 14,8 17,12 4,-1 11,2 5,-18 -3,-9 -7,-2 -10,-17 11,-19 17,-4 25,-13 1,-2 1,3 1,-3 -1,-5 -5,-4 -6,-7 -2,-8 -1,-12 3,-17 9,-1 7,3 13,6 24,13 14,-1 21,-12 3,-4 -2,-2 4,-3 5,5 3,16 1,23 -6,13 1,6 -5,14l-7 12c-8,13 -4,11 -8,19 -3,7 -6,9 -10,13 -10,10 -15,3 -11,23l-8 2c-3,-6 -4,-13 -10,-15 -4,-1 -3,1 -8,-2 -2,-1 -4,-3 -6,-4 -4,-3 -7,-7 -11,-10l-34 -32c-4,-4 -6,-9 -10,-12l-11 -11c-2,-1 -4,-3 -6,-5 -3,-2 -3,-3 -6,-5l-21 -20c-5,-5 -6,-9 -11,-14 -8,-7 -16,-18 -21,-23 -5,-4 -7,-4 -9,-13 -1,-1 -2,-3 -2,-4 -1,0 -1,-1 -1,-1 -1,0 -4,-3 -4,-3 -2,0 -4,1 -7,1 -2,-5 -3,-3 -3,-8 -2,-1 -4,-2 -5,-2 -1,-1 -2,-2 -4,-3l-5 -3c-1,-1 -1,-1 -2,-1zm22 -11c10,-6 5,4 30,-12 5,-3 6,-6 8,-10 3,-4 2,-2 4,-6 2,-3 2,-2 4,-5 9,-11 5,-26 -4,-38 -3,-3 -20,-14 -23,-16 -13,-5 -22,18 -28,26 -3,4 -2,1 -3,6 -3,12 -5,7 -11,15 -1,3 0,0 -1,2 -5,7 -8,11 -8,20l3 2c1,0 4,3 6,3 0,1 1,1 1,1l3 2c3,1 4,2 6,4 1,0 3,1 5,2l-1 0c2,0 4,2 5,3 2,0 3,1 4,1zm-142 22c0,0 -4,-3 -2,-8 0,-1 4,-5 4,-5 11,-10 14,12 0,13 -1,0 -2,0 -2,0zm-55 20c-4,-14 6,-12 13,-19 6,-7 11,-13 21,-15 0,12 -4,5 -15,19l-12 13c-3,2 -3,2 -7,2zm133 -54c-2,-6 -2,-11 1,-17 1,-2 -1,0 2,-2 4,0 4,1 8,3 2,14 3,21 -5,20 -2,-1 -4,-3 -6,-4zm-86 16c-10,-4 -5,-11 1,-16 3,-3 3,-2 8,-3 1,6 0,7 -2,12 -2,5 -3,6 -7,7zm179 -38c-2,5 -13,15 -15,16 -8,5 -18,2 -23,-2 -3,-5 3,-23 9,-28 16,-15 8,-19 23,-19 3,3 1,0 3,3l0 1c4,7 4,3 6,11 3,11 1,11 -3,18zm-90 -12c9,-3 7,-1 9,0l0 3c-3,3 -8,4 -9,-3zm-123 53c-11,9 -8,11 -16,12 -2,-7 -1,-7 -1,-13 8,-3 11,-3 15,-8 3,-4 1,-3 6,-6 5,-2 7,-2 11,-6 4,-7 -1,-2 8,-10 1,-1 3,-4 5,-6 2,-3 2,-3 8,-4 1,8 -2,7 -7,12 -2,2 -1,2 -3,4l-16 14c-5,4 -4,7 -10,11zm607 -134l-1 0c-1,-8 1,-6 0,-13 0,-6 -1,-8 2,-13l7 -1c7,1 6,5 6,11 -9,9 -9,7 -2,17 2,4 2,6 3,11 -11,15 -6,9 0,24 3,7 0,8 -3,12l4 15c-3,4 -5,3 -5,9 -1,10 10,9 6,25 -1,6 -4,7 -10,7 -11,-21 -6,-33 -6,-39 0,-5 -2,-9 -3,-14 -1,-6 0,-7 -1,-13 0,-4 -2,-10 -3,-14l6 -24zm-479 61c1,-2 -1,-1 4,-2 3,0 4,0 5,1 3,1 1,5 0,7 -2,4 -9,6 -10,-2 -1,-6 0,-2 1,-4zm-147 62l-1 -7c4,-4 7,-7 11,-11 4,-3 10,-6 13,-10 15,-16 8,-7 18,-17 6,-5 8,-3 9,-2 1,5 -1,5 -4,7 0,1 -7,5 -7,5 -2,2 -1,3 -4,6 -4,3 -5,3 -8,6 -6,8 -16,21 -27,23zm15 -33c-14,6 -7,9 -19,11l-1 -8c2,-2 7,-4 10,-5 5,-4 1,-4 11,-5 0,3 -1,4 -1,7zm116 -25c-5,2 -12,5 -12,-3 0,-7 8,-6 12,-6l0 9zm7 -21c-21,11 -23,-10 -5,-8 5,0 4,3 5,8zm-40 1c0,-6 5,-9 10,-3l-2 6c-7,1 -7,-2 -8,-3zm-99 30c-2,-8 4,-7 8,-13 3,-4 3,-5 8,-7 5,-2 6,-4 9,-1 -1,4 -2,1 -4,7 0,0 0,1 -1,1 -20,8 -5,11 -20,13zm19 5c-1,-13 12,-9 20,-25 12,-24 23,-15 14,-3 -7,9 -9,4 -10,14 -11,4 -6,1 -13,9 -4,5 -2,4 -11,5zm82 -49c-2,-5 -3,-7 2,-8 5,-1 7,-1 10,0 0,5 0,2 -2,6l-10 2zm521 -112c6,-4 11,-7 19,-3 2,8 0,10 -4,16 -4,7 2,8 4,14 1,5 0,6 -1,11 -2,2 -11,3 -13,3 -4,-16 -3,-26 -5,-41zm-510 83c0,0 3,0 4,0 2,8 1,9 -8,10 0,-1 -1,-3 -1,-4 0,-6 0,-2 1,-4l4 -2zm72 -21c8,-3 9,-3 10,5 -5,3 -2,3 -10,3l0 -8zm-14 1l0 4 -11 2c-3,-4 -3,-1 -4,-7 14,-8 14,0 15,1zm-48 5c-7,2 -12,10 -16,-1 2,-1 27,-6 32,-6 3,4 3,0 4,6 -3,3 -5,4 -11,5 -5,0 -6,-1 -9,-4zm17 -18c-4,-1 -3,-2 -4,-7l8 -1 2 6c-1,1 -3,2 -6,2zm484 -66c-2,-10 0,-6 1,-14 0,-6 -8,-29 -2,-39 6,-12 -1,-15 6,-36 0,-3 0,-3 1,-5l4 -6c2,1 3,0 8,0 3,0 5,1 7,11 -4,3 -8,7 -7,13 3,7 5,-1 7,16 -3,3 -5,4 -9,7 2,9 4,7 7,12 1,2 2,5 2,7 0,11 -8,4 -22,12 3,8 4,6 13,7 5,1 9,13 2,16 -5,3 -13,0 -18,-1zm22 -111l-1 0c-7,1 -4,1 -8,-1 -13,-8 -4,-13 -3,-17 1,-5 -2,-7 -2,-11 -2,-12 3,-29 3,-34 -1,-14 1,-20 6,-32 7,-1 17,1 20,4 11,9 -5,13 -8,15 2,8 3,6 9,8l1 9c-5,5 -7,3 -9,10 2,10 3,0 5,13 -5,4 -5,4 -10,9 1,6 9,17 4,24 -2,3 -3,2 -7,3zm23 -104l-2 1c-12,1 -4,1 -17,-4 -1,-5 -3,-8 0,-11 4,-6 18,0 23,2 2,8 3,9 -4,12zm174 9l-2 -6c-1,-5 -2,-10 -2,-14 0,-4 1,-5 0,-11 -5,-19 -2,1 -4,-23 -1,-20 3,-13 2,-21 -3,-18 -1,-26 1,-46 0,-7 1,-4 2,-10 0,-2 -1,-3 0,-5l3 -15c3,-9 11,-23 11,-26 0,-14 -2,-11 6,-26 0,-1 1,-3 2,-4 9,-25 19,-12 34,-14 20,-3 21,3 24,15 5,18 11,27 12,33 1,7 0,6 -3,10 -3,6 0,12 3,23 7,4 2,-1 6,5 2,2 3,4 4,6 2,5 4,12 7,16 2,3 4,4 5,9 3,7 1,7 6,14 5,6 17,32 15,39 -1,9 0,7 3,18 3,15 -1,13 -4,15 3,7 5,2 7,10 -4,4 -4,1 -8,4 3,4 4,1 8,2 1,5 2,10 0,12 -4,6 -4,0 -9,0 -6,10 -7,5 -2,21 10,4 9,1 10,6 1,8 0,2 -1,4 -3,-1 -2,-2 -5,-3 -2,-1 -9,-2 -5,9l9 -2c7,31 3,23 2,35 0,4 1,7 2,11 -2,2 -3,3 -7,5 -1,-1 -2,-2 -3,-4 -11,-10 -3,-7 -9,-13 -7,-6 -4,1 -14,-14 -11,-14 -2,1 -9,-14 -2,-4 -9,-12 -13,-23 -3,-8 -4,-2 -10,-22 -2,-9 -2,-19 -6,-26 -1,-2 -1,0 -3,-6 -2,-6 -1,-30 -6,-44 -8,1 -11,6 -11,14 0,22 4,15 -3,40 -1,4 0,6 -1,11l-14 43c-3,8 -13,22 -11,34 -12,4 -10,-1 -12,-13 -2,-7 -4,-11 -5,-19 -2,-10 0,-12 -1,-20 -2,-9 -5,-14 -1,-20zm105 -203l3 3c3,3 1,1 4,3 2,1 4,0 8,2l2 7 -11 3c0,4 8,12 11,16l21 34c5,8 5,14 16,10 -2,-12 -7,-17 -12,-23 -4,-5 -2,-9 -12,-20 -2,-2 -3,-3 -4,-5l-1 -9c3,1 10,8 13,10 4,3 2,1 5,3 6,4 2,3 8,9 3,4 5,3 7,9l0 4 4 -1c5,2 6,4 11,8 4,3 9,5 11,8 5,5 2,4 9,11 5,4 4,7 10,12l4 3c3,3 1,2 3,6 4,6 8,10 9,11l9 11c2,3 6,8 7,11 0,5 -2,8 3,12 2,2 6,3 9,5 2,12 1,8 5,12 3,2 2,1 3,4 0,1 -2,0 1,2 2,3 7,4 11,7 2,4 -1,0 3,3 5,6 4,5 7,13 2,10 4,2 6,21 -8,2 -8,1 -13,-1 -7,-4 -3,-3 -14,-9l-22 -14c-8,-4 -18,-14 -25,-21 -4,-4 -10,-10 -17,-13 -4,-3 -19,-19 -23,-23 -24,-30 -11,-17 -12,-30 -2,0 -7,-1 -8,-1 -6,0 -2,2 -6,-2 -6,-6 -5,-8 -9,-15l-10 -12c-5,-7 -3,-6 -9,-12 -14,-13 -7,-16 -12,-25 -2,-5 -1,0 -4,-5 -3,-5 -3,-14 -6,-20 -2,-5 -7,-8 -5,-16 4,-6 8,0 12,4zm172 27l1 1c5,4 4,0 9,6 5,5 6,3 17,11l9 6c9,6 8,8 12,11 8,6 10,-2 12,10 -8,2 -4,0 -10,0 -5,-1 -23,1 -29,0 -19,-3 -6,-5 -25,-6 -6,0 -1,0 -7,-2 -5,-2 -27,-4 -32,-9 -8,-6 -15,-7 -21,-11 -5,-3 -2,-1 -7,-3 -8,-3 -9,-6 -13,-9 -7,-6 -7,-7 -12,-10 -10,-6 -6,-2 -14,-8l-10 -6c-9,-3 -7,0 -12,-2l-23 -23c-5,-3 -17,-10 -11,-19 6,-9 32,-4 39,1 3,1 -1,0 3,1 6,1 3,-1 9,1 5,3 12,3 16,4 4,3 1,3 6,5l22 11c9,6 17,10 28,13l29 15c2,2 2,3 5,5 3,2 5,3 7,5l2 2zm-280 -9l1 5c1,10 -1,8 -5,14 -4,6 -4,11 -5,17 -1,2 -1,1 -2,3l-4 14c-2,6 -1,0 -3,10 -1,11 -2,1 -1,11 1,9 -1,10 -1,16 -1,12 -7,15 -9,20l-3 7c-6,14 -4,14 -6,20 -4,10 -4,9 -10,18l-10 18c-14,17 -4,7 -16,13l-18 14c-7,3 -10,-2 -8,-10 1,-13 -2,-23 0,-29 5,-14 -8,-26 0,-41 3,-6 4,-8 5,-16 1,-7 4,-11 6,-17 5,-17 -4,-4 10,-32 11,-20 11,-16 18,-29 9,-15 11,-20 24,-33 5,-5 3,0 5,-7 4,-10 2,-9 10,-13 7,-4 8,-7 12,-12 3,-4 4,-3 6,-6 3,-3 1,-3 2,-8 10,1 3,4 10,6l10 4 -2 14c-2,3 -2,0 -3,6 -2,18 -12,12 -13,23zm140 -68c-4,1 -5,2 -9,0 -5,-1 -4,-3 -5,-5 1,-2 6,-2 9,-3 3,4 4,4 5,8zm87 -42l0 -1c6,0 17,2 23,5l1 -1c14,0 -8,3 20,1 6,-1 9,0 20,0l19 3c5,1 11,3 16,4 12,1 1,-1 12,3l14 4c9,6 -8,9 -11,10 -4,3 -1,4 -6,5 -7,2 -7,-4 -19,3 -5,3 -11,3 -21,5 -8,2 -16,3 -24,4 -12,3 -11,1 -20,1 -26,1 -9,7 -43,-3 -10,-3 -7,0 -14,-1 -4,0 -4,-1 -9,-2 -7,-1 -4,-2 -8,-3 -7,-2 -12,2 -14,-7 12,-3 7,0 13,1 5,1 8,-1 14,0 7,2 18,3 25,-3 -2,-9 -11,-5 -19,-4 -19,2 -12,-1 -20,-2 -17,-1 -31,11 -36,3 -2,-3 -2,-8 0,-10 4,-5 33,-16 42,-16 4,1 6,2 11,1 7,0 23,-3 28,-2l6 2zm-135 32c0,-4 -2,-12 15,-14 2,7 3,7 -2,11 -2,2 -3,2 -5,4l-8 6c-6,4 0,1 -4,4 -3,2 -9,4 -12,2 -1,-6 2,-5 7,-7 4,-2 6,-4 9,-6zm16 -21c-2,-8 2,-9 11,-9 0,3 0,4 -1,7l-10 2zm38 -18c1,-2 -2,-5 6,-5 5,0 4,1 5,4 -12,8 -11,1 -11,1zm-24 -1c0,0 -1,1 -2,1 -5,4 -11,0 -12,-5 -1,-8 8,-5 3,-19l-15 3c-6,-5 -11,-16 -10,-24 6,0 5,-1 7,5 0,0 1,7 1,8l3 2c4,3 0,1 4,2 4,-3 3,-7 10,-9 4,-1 5,0 6,4 2,5 0,0 1,4 0,6 1,2 2,8 1,6 -1,3 1,9 1,5 1,3 3,8 -1,1 -1,1 -2,3zm147 -47c-10,4 -2,-4 -26,9 -12,6 -15,5 -28,10 -5,2 -6,4 -13,6 -13,2 -35,7 -47,6 -9,0 -6,-1 -11,-5 -11,-8 -5,-13 -12,-23 -7,-11 -5,-4 -7,-9 4,-4 0,3 1,-3 1,-5 -2,-3 2,-9 5,-6 8,-5 16,-5 3,15 -1,10 4,12 6,2 7,-3 10,-5 4,-4 16,-5 22,-7 11,-3 2,-3 10,-5 16,-5 21,-4 31,-3 9,2 16,-4 27,-1 4,1 -1,1 6,1 5,-1 11,-2 17,-2 6,-1 5,1 11,1 4,0 8,-2 12,-2 10,-1 -2,4 21,2l1 6 -18 10c-19,13 -4,3 -18,9 -3,2 -7,5 -11,7zm-171 1c0,-1 1,-1 2,-2 6,-7 1,-1 5,-9 15,-3 6,5 5,12l-15 5 3 -6zm-4 -19c1,-5 2,-9 7,-11 6,-4 10,-5 16,-6 1,8 0,8 -7,11 -8,2 -3,5 -5,11 -7,0 -1,1 -6,-2 -5,-2 -1,1 -5,-3zm116 -44c-2,1 -1,-1 -3,2 -8,5 -7,-1 -15,9 -3,4 -11,8 -16,9 -27,8 -28,15 -36,7 1,-10 9,-9 17,-14l18 -14c8,-9 9,-11 18,-13 5,-2 5,-2 9,-5 4,-4 4,-6 2,-12 -7,-3 -5,-2 -10,3 -5,5 -8,2 -13,6 -3,4 1,2 -3,5 -3,2 -4,1 -7,4l-2 2c-11,17 -5,1 -19,14l-15 12c-1,1 -3,2 -4,4 -6,6 -1,7 -12,8l-2 -15c2,-3 3,-2 5,-6 7,-9 3,-4 14,-10 7,-3 1,0 6,-4 4,-4 10,-5 15,-8 7,-4 3,-8 7,-13 3,-5 5,-3 10,-6 5,-2 2,-3 6,-6 2,-1 5,-1 8,-1 7,-2 3,-1 5,-3 2,-1 0,0 2,-1 1,-1 1,-1 3,-2l18 -5c5,-1 6,-3 10,-5 8,-3 17,-4 25,-7 11,-6 12,-6 21,-1 -1,6 -14,24 -18,29l-30 27c-8,8 -5,4 -14,10zm-350 23c-5,-1 -25,1 -35,-4 -15,-7 -10,-1 -21,-6l-21 -7c-7,-2 -12,-7 -18,-11 -4,-1 -7,-2 -11,-1 -6,-11 -33,-16 -39,-26 -14,-23 42,-20 46,-20 6,1 14,-1 18,0 6,1 1,2 9,1 3,0 7,-1 10,-1 5,5 2,3 10,4 4,1 5,2 10,2 7,0 5,0 10,2l18 9c8,8 5,6 16,10 22,7 24,12 33,15 11,5 4,5 10,10l13 8c12,7 1,0 11,8 4,3 6,4 7,8 -5,1 -9,2 -15,3 -9,2 -5,-1 -12,-1 -14,0 -11,2 -23,-3 -8,-4 -16,1 -26,0zm343 -154c-2,6 -3,11 -5,15 -1,3 -2,4 -4,7 -2,4 0,3 -4,6 0,3 0,1 0,3 -2,6 -2,8 -5,12 -5,9 -2,13 -7,18 -3,3 -3,2 -6,6 -8,9 -7,13 -14,18 -4,7 -20,16 -29,24 -6,5 -7,10 -13,12 -9,4 -14,3 -12,13 3,5 4,0 6,11 -5,3 -9,7 -12,12 -10,14 -11,5 -15,10 -2,7 1,6 3,9 4,4 5,9 -2,10 0,0 -2,0 -3,0 -3,1 -3,0 -5,2 -7,6 0,34 2,42 15,4 8,-4 17,-7 5,19 8,19 2,21 -10,4 -8,-7 -17,-6 -5,2 -1,-1 -4,4 -1,2 -7,15 -14,18 -4,1 -9,1 -13,2 -3,2 -5,5 -5,8 1,3 4,5 8,6 5,-3 6,-5 10,-7 7,-3 9,-1 14,-1 4,17 -5,12 -18,17 -2,7 1,14 -9,15 -4,-8 0,-8 0,-13 -3,-2 -15,-9 -16,0 -1,6 4,7 -1,10 -5,3 -8,0 -9,-4 -3,-8 1,-5 3,-14 3,-14 14,-4 9,-20l0 1 -10 2c-2,4 -3,7 -4,12l-8 1c-1,9 -2,21 -10,23 -5,-4 -7,-10 -4,-16 3,-7 0,-2 5,-5 3,-2 2,-2 5,-5 4,-5 8,-4 8,-12 0,-12 0,-6 8,-12l-2 -7c-9,1 -8,3 -10,9 -7,2 -8,3 -14,1 -14,-4 -17,10 -14,23l-5 3c2,19 9,14 -6,27 -4,4 -4,2 -4,10 -5,2 -5,2 -7,6 -2,8 -10,19 -15,22l-21 27c-6,6 -1,8 -23,26 -10,8 -2,5 -17,16 -6,4 -1,0 -5,4 -4,6 -10,8 -13,11 -4,3 -5,6 -7,9 -4,5 -5,3 -11,7 -4,4 -6,3 -10,7 -7,7 -18,10 -22,13 -5,4 0,3 -11,6l-1 -1c-5,5 -17,14 -25,10 -1,-9 3,-6 9,-14l16 -37c3,-5 5,-8 7,-13 2,-9 3,-4 6,-11l15 -23c12,-16 6,-19 25,-34 3,-3 6,-4 9,-7 4,-4 3,-4 9,-7l24 -15c12,-9 10,-3 16,-8 12,-10 -1,-2 20,-12 9,-5 12,-6 18,-13 13,-12 5,-4 21,-8 0,-11 -4,-18 -14,-16l-1 8c-10,4 -6,1 -9,9l-6 0c-2,-8 2,-6 7,-10l-2 -9c-14,3 -1,6 -31,20 -3,2 -8,4 -11,6 -15,13 1,7 -27,20 -10,7 -21,8 -26,12 -14,8 -5,2 -15,6 -4,1 -4,3 -9,5 -10,4 -84,18 -90,17 -24,-3 0,-20 6,-25 9,-8 10,-5 17,-13 17,-20 19,-14 25,-21 2,-2 4,-3 6,-5 4,-4 3,-4 6,-7 32,-23 33,-22 69,-34 10,-3 13,-6 19,1 11,-2 55,-8 60,-12 7,-6 -4,-48 -8,-57 -8,1 -6,2 -9,6 -7,1 -8,2 -15,-2 -4,-2 -1,2 -4,-4 0,0 0,-3 8,-3 9,-1 11,3 24,-8 1,-1 1,0 2,-2 3,-3 4,-7 3,-11 -3,-12 0,-9 5,-13 4,-2 1,-2 7,-5l15 -9c6,-3 1,-4 17,-8 26,-6 28,-5 51,-4 7,0 4,0 9,2 17,4 15,3 21,10 4,5 3,0 4,8l-4 4c-3,4 -6,9 -6,14 0,4 -1,11 2,13 4,2 9,0 10,-5 0,-5 -4,-7 -1,-13 2,-3 4,-4 7,-8 4,-8 0,-3 7,-9 4,-3 1,-4 7,-7 8,-4 8,-5 15,-16 5,-7 5,2 17,-14 4,-5 4,-3 9,-7 5,-4 1,-5 4,-9 2,-4 4,-1 8,-8 6,-11 -3,-12 -12,-4 -2,1 -1,0 -2,1 -1,3 -1,4 -3,6 -8,8 -10,5 -20,15 -6,7 -11,15 -18,20 -10,9 -8,10 -18,9 0,-5 3,-11 3,-17 7,-2 7,-1 12,-6l10 -12c6,-5 6,-7 9,-14 1,-3 16,-20 20,-26 3,-3 4,-5 7,-8 7,-8 25,-26 33,-30 7,-3 4,-2 9,-7 5,-6 10,-18 25,-20 3,10 0,6 -1,18 -1,8 -4,3 -7,13zm-169 26c-1,1 -1,1 1,2l1 6c-1,2 -2,1 0,3 1,9 0,22 -8,24 -5,-6 -4,-18 -7,-27 -16,1 -11,15 -7,28 1,7 3,13 2,19 -2,15 0,11 -1,17 -3,2 -7,4 -12,4 -6,0 -6,-1 -7,-7l8 -5 -1 -6c-4,-4 -5,-5 -7,-12 -5,-18 5,-15 -6,-42 -7,-15 -12,-45 -11,-60 1,-8 0,-6 3,-13 2,-5 1,-7 0,-14 -2,-10 -1,-8 -1,-14 0,-6 -3,-10 -2,-16 0,-8 2,-2 2,-12 0,-6 2,-8 2,-12 1,-9 -4,-27 -2,-30 10,-13 28,36 30,40 10,21 5,10 10,35l1 2c7,8 16,58 12,68 -2,5 2,2 -5,5 2,3 3,2 5,8 1,3 1,6 0,9zm-140 39l-6 1c0,7 3,9 8,14 6,4 11,18 13,25 -8,2 -9,1 -14,-4 -2,-1 -3,-3 -4,-4 -5,-5 -11,-5 -16,-10 -3,-3 -5,-5 -9,-7 -7,0 -1,0 -15,-8 -10,-5 -14,-11 -26,-20l-13 -9c-14,-14 -10,-8 -20,-19 -4,-5 -4,-1 -10,-10 -6,-9 -12,-9 -19,-18l-9 -11c-9,-16 -16,-4 -18,-19 8,-2 12,-1 18,1 7,2 12,2 17,4 5,2 9,4 15,6 3,0 5,1 8,1 19,6 21,9 35,17l50 32c2,2 0,0 2,2 12,9 11,15 21,24l31 39c1,1 2,2 3,3 3,2 1,0 3,2 2,3 2,7 2,11 -7,-2 -12,-11 -19,-17 -15,-14 -9,-17 -19,-22 -1,-1 -1,-1 -3,-2 -2,-1 -2,-2 -6,-2zm62 -9l0 -2c-8,-5 -6,-13 -11,-17 -5,-5 -6,-9 -13,-6 0,6 2,10 4,15 5,18 18,29 16,38 -7,1 -4,2 -8,-4 -6,-6 -11,-15 -13,-19 -2,-2 -7,-5 -10,-9 -7,-9 -6,-16 -14,-25 -12,-15 -2,-3 -9,-18 -1,-4 -2,-4 -4,-7 -4,-9 2,-6 -9,-24 -3,-5 -4,-10 -5,-17 -1,-3 -1,-6 -3,-9l-11 -21c-7,-16 -3,-45 -24,-66 -5,-6 -4,-7 -8,-7 -9,0 -2,8 0,13 2,4 3,9 4,13 3,5 3,0 6,10 1,4 2,7 4,12 2,8 6,18 8,27 2,12 6,10 9,22l4 9c10,12 3,11 9,21 2,4 12,27 13,31 -6,0 -7,0 -11,-2l-21 -15c-5,-5 -13,-6 -19,-10 -14,-9 -13,-8 -27,-13 -11,-4 -19,-9 -33,-11 -6,-1 -11,-4 -16,-7 -5,0 -10,-1 -15,-2 -6,-1 -9,-2 -13,-5 -5,-4 -19,-32 -23,-13 0,3 0,6 1,9 4,19 2,20 15,31 9,7 8,2 10,10 0,4 0,2 1,2 6,1 3,1 6,6 4,5 7,3 16,14 6,8 15,12 20,21 4,5 15,15 21,20 1,1 8,9 9,10 2,3 2,5 4,7 3,3 3,1 5,6 -7,5 -13,-1 -20,-1 -18,1 -4,-1 -20,-3l-21 -1c-8,1 -16,1 -24,3l-7 1c-4,1 -19,3 -23,3 -15,-1 -4,4 -20,0l-3 -1c-16,-2 -5,1 -13,-3l-3 -2c-11,-3 -20,9 -6,17 3,2 1,0 3,2 4,-1 7,0 10,2 7,4 7,7 15,9 7,1 8,2 14,10l19 17c4,1 5,3 8,5 2,2 10,4 16,8l21 13c6,4 11,6 13,14 -8,7 -5,4 -18,8 -10,4 -7,5 -16,8 -4,2 -6,2 -9,4l-8 4c-3,4 0,3 -5,5 -4,1 -3,0 -6,2 -3,3 -1,1 -3,4 6,0 14,-1 20,-4 4,-3 0,-1 3,-3 4,-1 8,-2 12,-4 4,-2 6,-4 9,-5 8,-3 16,-4 24,-7 11,-5 38,-10 50,-10l32 3c4,1 7,1 10,2 6,2 15,2 19,5 3,1 5,1 9,2 15,5 33,7 37,22 2,7 6,15 -1,17 -12,4 -2,-16 -36,-5 -10,4 2,2 -21,6 -12,3 -37,10 -44,9 -10,-2 -8,-2 -20,0 -8,1 -6,0 -11,0 -3,-1 -7,1 -10,1 -9,0 -10,-3 -18,-4 -4,0 -5,-1 -9,-2 -6,-1 -5,0 -9,-1 -10,-3 -23,-1 -29,-3 -2,-1 -5,-2 -7,-3 -6,-1 -6,1 -10,-1l-6 -4c0,-6 2,0 1,-9 -12,2 -13,4 -19,8 -5,3 -14,3 -21,5 1,6 0,7 6,9 16,5 20,-5 32,1 2,1 3,2 5,3 17,11 12,5 23,10 6,3 20,6 27,6 21,-1 7,1 20,1 11,0 25,-1 24,8 -3,6 -9,8 -14,13 -3,3 -3,3 -6,6 -9,5 -23,16 -28,24l-40 36c-14,12 -22,3 -16,20 9,4 17,3 30,2 9,-1 5,2 15,1 10,-1 8,-1 16,1 4,1 11,-1 16,0 14,0 9,-1 24,0 11,1 22,-3 25,-1 7,4 -6,19 -9,22 -1,1 -5,6 -5,6 0,0 0,1 0,1l-2 1c-2,3 -1,3 -2,6 -1,5 -1,4 -3,7 -1,2 -1,1 -2,3 -2,9 -2,4 -4,10 -1,6 -1,6 -4,11l-10 21c-6,11 2,1 -9,15 -1,1 -1,2 -3,4l-17 15c-14,10 9,29 47,10 4,-2 10,-4 13,-6 5,-3 12,-10 24,-5 6,3 6,2 7,10 -12,2 -5,-4 -18,0 -1,1 -1,0 -1,2l1 5c3,2 3,1 6,4 3,2 2,5 2,6 0,2 -1,3 -4,3 -5,1 1,-2 -13,0l-5 1c-7,5 -4,0 -11,0 -9,-1 -12,6 -15,13 -3,6 1,4 -5,8l1 2c0,7 -1,4 -3,10 -4,19 -2,4 -2,19 0,4 -1,3 -2,8 0,10 0,9 -2,18 -4,19 -7,36 -7,55 0,9 3,14 1,22 -1,6 -1,11 -2,17 -1,20 -3,8 -3,18 2,17 -4,4 1,32 2,8 0,5 -1,9 -1,5 2,15 3,21 1,5 0,7 0,11 0,3 1,7 1,11 1,5 -1,3 0,9 1,3 2,7 2,11 0,3 -2,4 -2,8 -1,4 0,7 0,11 0,3 -2,3 -1,8 0,4 1,6 1,10 -2,9 -4,0 -2,12 0,5 1,7 0,12 -2,13 3,13 1,23l-1 2 2 3c1,6 2,14 2,20 0,22 9,39 -8,45 -6,2 -28,5 -37,7 -9,2 -20,10 -32,13 -7,3 -8,5 -13,9 -3,2 -3,2 -6,5 -2,2 -3,2 -6,4 -2,2 -4,3 -5,5l-13 17c-2,5 -12,32 -10,44 4,27 8,25 -21,16 -5,-2 -5,-4 -9,-7 -2,-2 -3,-2 -5,-4 -5,-4 -8,-9 -13,-12 -8,-6 -14,-12 -16,-13 -18,-11 -9,-6 -22,-17l-13 -13c-5,-6 -4,0 -12,-15 -8,-15 -28,-15 -35,-36 -8,-10 -22,-22 -29,-31 -2,-3 -2,-4 -5,-8l-5 -7c-2,-2 -5,-3 -7,-5l-10 -15c-2,-2 -3,-3 -6,-5l-32 -39c-16,-8 -8,-6 -15,-12 -5,-4 -6,0 -11,-5 -4,-5 -1,-5 -8,-8 -5,-3 -5,-4 -10,-7l-19 -13c-4,-2 -5,-3 -10,-4 -8,0 -5,1 -12,-3 -4,-2 -6,-3 -11,-2 -34,4 -14,2 -41,12 -5,2 -9,2 -14,4 -10,5 -14,9 -22,12l-15 15c-7,10 -9,10 -15,16l-8 8c-7,6 -8,13 -12,17l-9 6 -1 -1c0,2 0,1 -1,3l-12 12c-12,11 -8,8 -13,15 0,3 0,4 0,7 -1,4 -1,2 -1,7l0 2c2,12 -1,18 1,31 0,2 1,5 1,8l1 23c2,16 8,33 12,48 2,5 3,11 5,17 5,14 2,12 10,30 2,5 2,10 4,16 5,17 9,27 10,46 1,12 1,55 21,27 5,-9 2,-12 11,-19 -2,-15 4,-27 4,-30l0 -7c4,-16 0,-29 1,-44 1,-8 1,-8 -1,-17l-5 -31c0,-6 -1,-2 1,-5 4,1 0,-1 3,1 1,1 2,2 2,3l17 46c2,5 1,3 4,7 5,5 4,8 6,15 3,7 4,5 7,14 2,10 2,22 5,32l1 3c3,5 10,-3 11,-6 3,-4 4,-8 6,-12 3,-8 3,-19 6,-28 2,-8 -4,-42 -10,-51 -5,-6 -4,-9 -7,-13l-6 -13c-4,-9 -4,-2 -8,-13 -2,-8 -11,-23 -10,-31 2,-8 13,-10 21,-10 7,0 3,0 8,2 5,1 9,1 14,3 7,3 15,4 23,8l17 12c11,4 17,15 26,21 4,2 6,6 9,9 6,4 9,3 16,12 5,7 7,5 13,15 3,4 7,8 9,10 3,3 2,1 5,4l14 15c4,5 7,6 10,9 4,4 5,7 9,11 3,4 7,5 10,9 14,18 52,57 72,70 12,8 24,17 36,26 7,5 15,8 24,11l7 2c40,11 77,18 107,-18l11 -15c8,-15 4,-12 1,-29 -4,-22 -9,-36 10,-49 5,-4 1,-1 5,-5 8,-6 16,-11 26,-14 12,-4 30,-16 31,-7l-1 4c0,10 5,21 0,30l2 2c2,16 -3,4 3,33 2,10 3,26 5,33 1,3 9,39 9,45 -1,13 3,24 5,39 2,10 -4,14 9,48 3,8 6,41 5,46 -1,11 10,23 13,44 2,12 4,23 9,31 5,5 4,5 6,14 1,7 0,11 1,15 0,3 2,10 3,16 5,29 8,22 13,49 0,3 1,6 2,8 4,10 3,6 8,21 1,6 1,11 4,16 6,12 7,18 9,31 2,8 4,8 6,15 8,3 12,35 15,45l27 60c10,18 3,29 16,44 5,6 8,12 9,22 2,10 6,10 9,21 3,13 11,29 16,43 1,2 1,3 2,5l5 10c14,29 2,21 21,30 4,1 4,2 10,2 14,-1 10,-1 21,4 6,2 17,2 23,-2 1,-5 -2,-9 -4,-15 -4,-12 -13,-22 -14,-25 -3,-11 0,-7 -6,-15 -5,-9 -11,-17 -15,-25 -2,-4 -1,-5 -3,-8 -3,-8 -5,0 -10,-22 -1,-9 -4,-7 -5,-15 -3,-11 -2,-12 -7,-18 -4,-5 -2,-6 -5,-11 -4,-6 -5,-5 -7,-14 -2,-8 -10,-21 -13,-27 -4,-9 -5,-25 -8,-36l-13 -27c-4,-9 -6,-24 -9,-34 -2,-5 -2,-12 -4,-18 -1,-7 -4,-8 -6,-13 -3,-7 0,-14 -9,-32 -8,-19 -2,-26 -14,-49 -8,-15 -7,-41 -13,-52 -4,-6 -3,-1 -6,-15 -1,-6 -2,-12 -4,-18 -2,-3 -8,-35 -10,-42 -2,-6 -5,-12 -5,-20 -1,-6 1,-4 -1,-10 -1,-3 -3,-5 -4,-9 -3,-9 -7,-34 -9,-44 -3,-23 -19,-92 -19,-110 -1,-9 3,-1 -1,-20 -2,-13 -15,-76 -7,-84 3,-2 10,-3 14,-4l27 2c15,5 2,2 17,4l18 4c14,6 6,7 24,2 2,8 1,6 -2,11l-5 9c-2,4 -1,4 -3,9 -2,3 -5,5 -5,8 -2,14 -7,33 1,46l2 2c12,3 10,9 17,13 14,9 6,7 15,11 6,2 22,11 34,13 11,1 4,0 12,3l34 6c5,0 9,1 13,1 16,2 42,-4 54,-12 7,-5 18,-5 26,-8 6,-2 14,-5 18,-9 6,-3 13,-3 16,-7 1,-1 2,-4 3,-5 4,-6 3,-1 11,-11 8,-11 8,-5 15,-17 2,-1 5,-8 6,-8 5,-6 8,-2 15,-17 3,-6 2,-4 6,-9l21 -26c4,-7 7,-11 11,-18 7,-13 10,-9 17,-28 2,-4 6,-11 9,-13 15,-12 10,-14 17,-22 6,-7 7,-11 20,-26 4,-4 8,-4 24,-23 3,-3 0,0 4,-4 4,-4 6,-9 13,-11 10,-3 5,1 12,1 5,0 7,-4 10,-5 10,-5 6,2 24,3 6,1 13,-2 21,7 4,3 6,3 9,8 17,27 6,22 13,34 4,8 1,7 1,13 2,27 0,9 -1,27 0,6 -1,6 -3,12l-2 11c-2,3 -1,4 -2,7 -1,4 -3,5 -4,7 0,8 -11,18 -16,25 -1,1 -2,2 -3,3 -9,10 -5,8 -19,19l-13 11c-19,12 -39,24 -61,31 -1,-1 -5,15 11,12 8,0 15,3 23,5 12,2 0,5 25,0 17,-3 34,-9 46,-19 5,-5 41,-41 43,-46 2,-7 1,-4 4,-10 2,-5 2,-6 10,-7 9,33 30,81 55,103 4,3 4,2 8,4 3,2 2,3 6,5l16 7c4,1 6,1 11,-1 2,-19 -1,-10 -5,-22 -6,-14 -6,-6 -10,-23 -2,-7 -9,-52 -8,-57 1,-10 -2,-3 0,-24 3,-24 -3,-51 1,-77 0,-6 -13,-72 -16,-86 -1,-3 -11,-34 -11,-35 -11,-21 -22,-30 -32,-46 -9,-15 -14,-18 -29,-27 -4,-3 -11,-5 -17,-7 -11,-5 -14,-14 -36,-12 -8,0 -14,1 -22,1 -3,0 -8,1 -11,1 -6,-1 -2,-3 -11,-2 -8,1 -16,3 -25,5 -11,2 -14,4 -23,7 -13,4 -30,9 -40,16 -4,3 -4,3 -9,5 -5,2 -4,3 -8,5 -4,2 -6,2 -19,10 -6,3 -8,7 -15,11 -8,4 -11,5 -17,11 -1,1 -4,5 -6,6 -3,3 -4,3 -7,6 -5,6 -7,9 -12,14l-12 13c-2,3 -3,5 -5,8 -9,11 -6,5 -10,16l-9 15c-3,3 -3,3 -6,7 -1,2 -1,2 -3,4 -4,6 -1,4 -5,13l-9 26c-3,9 3,-1 -7,17 -2,4 -3,5 -5,8l-37 40c-3,1 -7,2 -11,4 -5,2 -10,9 -33,10 -5,0 -6,-1 -10,-2 -7,-1 -14,3 -29,-8 -8,-5 -9,-4 -17,-7 -2,-9 0,-8 0,-13l0 -2c2,-20 10,-4 -5,-43 -4,-8 -12,-13 -18,-18 -7,-5 -27,-11 -37,-14 -4,-1 -9,-1 -13,-2 -25,-5 -13,-2 -35,-5l-21 -3c-5,-1 -9,0 -14,0l-14 -3c-4,-14 -1,-26 -4,-39 -7,-34 -1,-32 -2,-38 0,-11 -3,-8 1,-18 6,-16 -1,-24 2,-35 -1,-7 0,-93 2,-101 3,-15 -1,-14 2,-33 0,-4 0,-7 0,-11 0,-9 2,-14 3,-21 0,-5 -1,-6 0,-12 1,-4 1,-5 1,-10 0,-8 4,-23 3,-27 0,-2 0,-4 -1,-6 0,-7 2,-4 3,-9 4,-10 2,-18 3,-21 0,-7 1,-11 4,-16 2,-4 0,-1 1,-4 1,-6 1,-4 4,-10 6,-13 4,-14 6,-18 1,-4 1,-2 2,-4 4,-12 5,-10 6,-13 2,-6 -2,-7 6,-19 2,-4 2,-6 4,-9 6,-12 4,-6 2,-21 8,-10 7,-10 15,-11 1,1 3,3 4,4 7,10 2,18 -1,24l-4 19c-3,11 5,17 -2,29l0 7c1,9 1,7 -2,13 1,7 4,15 3,22l-5 31c-3,6 -7,4 -8,11 3,4 5,6 11,3 4,-2 3,-4 7,-7 2,-2 5,-3 8,-6 4,-4 4,-2 7,-7 7,-17 27,-28 39,-39 9,-7 6,-4 9,-10 2,-4 4,-6 5,-9 3,-4 2,-5 4,-9l10 -17c2,-4 1,-6 2,-9 8,-1 7,4 9,12 1,5 3,14 3,19 -1,22 1,15 4,36 2,14 5,26 8,40 1,6 6,33 6,37 -1,4 -3,3 -1,9 1,2 3,4 6,5 8,1 12,-18 15,-24 2,-5 5,-8 7,-12l7 -13c15,-21 5,-12 9,-27 4,-10 0,-12 4,-13 0,-5 1,-9 5,-11 8,-4 -7,2 2,0l2 0c6,3 2,5 6,11 13,26 8,24 12,37 2,4 0,0 3,5l7 19c10,32 11,20 21,24 6,2 31,10 36,8 7,-2 9,-13 9,-20 0,-5 -1,-8 -1,-13 1,-8 3,-29 2,-36 -2,-15 -3,-13 -1,-25l1 -37c-1,-6 -2,-8 -1,-13 2,-19 -15,-35 -13,-49 4,1 2,0 5,3 0,0 2,2 2,3l18 19c9,8 16,14 25,22 17,18 6,13 31,29l7 6c4,5 1,2 6,5 5,2 3,2 7,4 3,1 22,14 33,19 3,1 7,2 9,4 3,2 0,-1 3,2 4,1 2,1 5,5 11,-3 22,-1 15,-12 0,-6 -2,-12 -2,-16 0,-8 2,-4 -1,-13 -3,-7 -6,-22 -9,-27 -4,-7 -27,-31 -28,-32 -11,-19 -25,-28 -34,-41 -14,-22 -7,-9 -15,-18 -4,-4 -4,-6 -7,-10 -5,-7 -5,-2 -7,-11 7,-1 7,-1 12,2 4,2 0,0 5,1 6,1 12,7 23,9 14,2 3,4 20,5 18,2 12,2 17,9 6,7 15,0 24,1 11,1 13,0 24,-2 4,-1 10,-3 14,-3 2,0 24,8 31,0l-3 -12c-3,-2 -3,-1 -7,-3 -8,-5 -8,-8 -12,-11 -10,-10 -15,-7 -30,-22 -2,-2 -4,-3 -6,-4 -19,-8 -7,-8 -20,-14 -6,-4 -15,-7 -20,-13 -3,-3 -1,-2 -5,-5l-30 -13c-7,-2 0,2 -11,-4 -1,-1 -3,-1 -4,-2l-7 -4c-6,-5 -2,-5 -2,-6 2,-2 4,-2 10,-2 12,1 19,1 32,-2 15,-3 32,-3 47,-8 13,-4 28,-9 44,-12 13,-3 32,-5 37,-15 -1,-4 -5,-8 -9,-10 -6,-2 0,3 -12,-4l-24 -8c-14,-3 -7,-1 -15,-2 -15,-2 -17,-10 -40,-8 -8,1 -8,-2 -13,-4 -8,-3 -14,4 -29,-1 -12,-4 -35,-3 -45,0 -28,6 -18,2 -26,-2 7,-6 25,-2 42,-10 4,-2 7,-3 12,-4 23,-4 27,-10 38,-14l22 -12c6,-3 4,-2 12,-5 7,-3 26,-21 26,-21 3,-2 8,-4 11,-6 7,-3 4,-4 8,-7 4,-2 6,-2 11,-6 -1,-5 -2,-4 -5,-9 -7,1 -32,10 -44,10 -8,0 -2,-3 -12,-2 -6,1 -10,2 -15,2 -4,0 -8,-1 -12,-1 -6,0 -8,2 -13,0 -6,-1 -4,-2 -11,-1l-6 1c-8,1 -10,0 -18,-1l-6 -2 5 -4c18,-13 11,-9 26,-22 4,-3 3,-4 7,-7 15,-10 11,-15 21,-19 10,-17 2,-4 11,-16l26 -29c1,-1 5,-4 7,-5l-2 -5c-3,-6 0,-2 -2,-2 -10,1 -20,3 -30,5 -4,1 -10,2 -14,3 -10,2 1,3 -11,6l-1 0c-8,2 -19,3 -26,6 -4,1 -22,6 -25,5 -2,-3 -3,-5 0,-9l6 -11c5,-7 2,-20 6,-29 2,-2 4,-4 4,-6 1,-2 0,-3 1,-6l2 -12c4,-14 0,-7 3,-17l2 -7c3,-9 20,-15 6,-26 -10,2 -8,8 -18,9 -3,0 -4,-1 -8,1l-30 25c-4,4 -2,3 -9,4 -2,2 -2,4 -5,6l-17 11c-2,2 -5,7 -7,10 -2,4 -6,7 -11,8 -1,-7 1,-5 2,-13 1,-4 1,-8 1,-13 0,-8 2,-5 3,-12 0,-3 -2,-10 -1,-14 0,-6 2,-6 1,-13 0,-2 0,-2 0,-4 1,-5 0,1 1,-3l-2 -21c-3,-10 -7,-2 -10,-24 -2,-14 -3,-9 -6,-13 -3,-4 -8,-23 -22,6l-11 32 3 3c14,-3 12,-14 25,-7 3,12 1,12 1,19 0,12 4,7 0,20 0,1 -2,16 -2,18 2,21 0,7 -1,18 0,9 4,11 1,20 -2,7 -5,8 -5,16 -1,8 -10,25 -13,28 0,7 -1,6 -5,11l-2 2c-5,6 -3,9 -11,12 -1,-6 1,-9 0,-16 0,-9 -1,-9 2,-15 2,-4 4,-8 5,-13l4 -13c-6,-4 -6,-4 -13,-1 -1,8 -3,11 -5,18 -1,6 -7,19 -6,26 0,15 -2,8 -4,18 0,4 1,6 0,9 -13,3 -11,-2 -13,-14 -2,-10 -4,-10 -3,-21l5 -19c1,-6 1,-13 3,-19 2,-9 0,-11 5,-19 5,-8 4,-11 6,-17l7 -17c1,-4 1,-5 3,-8 3,-5 3,-1 2,-9 -6,0 -7,2 -10,4 -1,2 -4,5 -5,7 -2,3 -4,11 -6,12 -2,1 -3,2 -4,1 -1,-2 -1,1 -3,-3 -1,-6 -2,-37 -7,-46 -3,-6 -2,-1 -4,-10 -3,-11 -4,-21 -10,-29l-8 -12c-3,-8 -1,-5 -5,-10 -6,-7 -7,-15 -13,-20l-4 -6c-3,-2 -5,-2 -8,-6 -7,-12 3,-10 -1,-23l-14 5c-1,5 -1,13 -3,18 -4,11 0,9 0,20 0,4 -1,6 -1,10l-2 67c0,8 3,23 0,30 -4,13 -6,3 -11,-2 -2,-2 -5,-5 -7,-7 -8,-6 -13,-16 -20,-23l-15 -17c-2,-2 -1,-1 -2,-2 -3,-4 -2,-5 -6,-8 -3,-1 -2,-1 -5,-3 -2,-2 -1,-1 -4,-3 -4,-3 -8,-12 -13,-16l-4 -4c-7,-7 -11,-15 -18,-23 -3,-3 -1,0 -4,-3 -1,-2 -1,-2 -3,-4 -11,1 -13,6 -10,16 10,4 1,-2 12,10l16 18c5,4 3,7 8,10 5,3 5,6 9,8 2,2 4,3 6,5 8,8 7,3 12,10l6 7c4,5 3,8 9,14 5,5 3,0 6,6 2,5 3,8 7,11l6 5c5,9 7,8 11,18l8 17c3,6 3,14 5,21 2,6 6,9 6,18 -1,11 7,57 10,64l-6 -1c-1,-4 -2,-9 -4,-12l-10 -18c-1,-1 -1,-3 -2,-5 -4,-5 -5,-3 -6,-12z"/>
  <rect class="fil1" width="1641" height="2315"/>
 </g>
</svg>