<?xml version="1.0" encoding="UTF-8"?>
<svg xmlns="http://www.w3.org/2000/svg" xmlns:sodipodi="http://sodipodi.sourceforge.net/DTD/sodipodi-0.dtd" width="400" height="340">
  <path fill="#c40233" d="m 23.656959,163.72372 c 2.397761,-11.71756 5.934084,-23.02039 10.488332,-33.78784 4.554248,-10.76745 10.12642,-20.99953 16.595881,-30.575588 L 200,200 z"/>
  <path fill="#e16b1a" d="m 50.741172,99.360292 c 6.46946,-9.576063 13.836209,-18.496113 21.979609,-26.639511 8.1434,-8.143399 17.06345,-15.510147 26.639512,-21.979607 L 200,200 z"/>
  <path fill="#eac100" d="m 99.360293,50.741174 c 9.576067,-6.46946 19.808137,-12.041633 30.575587,-16.595881 10.76745,-4.554248 22.07027,-8.090571 33.78784,-10.488333 L 200,200 z"/>
  <path fill="#00a368" d="M 163.72372,23.65696 C 175.44128,21.259199 187.57359,20 200,20 c 12.4264,0 24.55871,1.259199 36.27628,3.65696 L 200,200 z"/>
  <path fill="#00b2b0" d="m 236.27628,23.65696 c 11.71756,2.397762 23.02039,5.934085 33.78784,10.488333 10.76745,4.554248 20.99953,10.12642 30.57559,16.595881 L 200,200 z"/>
  <path fill="#0088bf" d="m 300.63971,50.741174 c 9.57606,6.46946 18.49611,13.836208 26.63951,21.979607 8.1434,8.143397 15.51014,17.063445 21.97961,26.639507 L 200,200 z"/>
  <path fill="#624579" d="m 349.25883,99.360288 c 6.46946,9.576062 12.04163,19.808132 16.59588,30.575592 4.55424,10.76745 8.09057,22.07027 10.48833,33.78784 L 200,200 z"/>
  <path style="fill:none;stroke:#222;stroke-width:3;stroke-linecap:round" d="m 25,310 50,0 m -90,-20 430,0 m -430,-20 430,0 m -430,-20 430,0 m"/>
  <path
     sodipodi:type="arc"
     style="fill:#c40233"
     id="path4057"
     sodipodi:cx="45"
     sodipodi:cy="310"
     sodipodi:rx="15"
     sodipodi:ry="10"
     d="m 60,310 a 15,10 0 1 1 -30,0 15,10 0 1 1 30,0 z"
     transform="translate(5,0)" />
  <path
     d="m 60,310 a 15,10 0 1 1 -30,0 15,10 0 1 1 30,0 z"
     sodipodi:ry="10"
     sodipodi:rx="15"
     sodipodi:cy="310"
     sodipodi:cx="45"
     id="path4061"
     style="fill:#e16b1a"
     sodipodi:type="arc"
     transform="translate(55,-10)" />
  <path
     transform="translate(105,-20)"
     sodipodi:type="arc"
     style="fill:#eac100"
     id="path4065"
     sodipodi:cx="45"
     sodipodi:cy="310"
     sodipodi:rx="15"
     sodipodi:ry="10"
     d="m 60,310 a 15,10 0 1 1 -30,0 15,10 0 1 1 30,0 z" />
  <path
     d="m 60,310 a 15,10 0 1 1 -30,0 15,10 0 1 1 30,0 z"
     sodipodi:ry="10"
     sodipodi:rx="15"
     sodipodi:cy="310"
     sodipodi:cx="45"
     id="path4069"
     style="fill:#00a368"
     sodipodi:type="arc"
     transform="translate(155,-30)" />
  <path
     transform="translate(205,-40)"
     sodipodi:type="arc"
     style="fill:#00b2b0"
     id="path4073"
     sodipodi:cx="45"
     sodipodi:cy="310"
     sodipodi:rx="15"
     sodipodi:ry="10"
     d="m 60,310 a 15,10 0 1 1 -30,0 15,10 0 1 1 30,0 z" />
  <path
     d="m 60,310 a 15,10 0 1 1 -30,0 15,10 0 1 1 30,0 z"
     sodipodi:ry="10"
     sodipodi:rx="15"
     sodipodi:cy="310"
     sodipodi:cx="45"
     id="path4075"
     style="fill:#0088bf"
     sodipodi:type="arc"
     transform="translate(255,-50)" />
  <path
     transform="translate(305,-60)"
     sodipodi:type="arc"
     style="fill:#624579"
     id="path4077"
     sodipodi:cx="45"
     sodipodi:cy="310"
     sodipodi:rx="15"
     sodipodi:ry="10"
     d="m 60,310 a 15,10 0 1 1 -30,0 15,10 0 1 1 30,0 z" />
  <text
     xml:space="preserve"
     style="font-size:17.47862244px;font-style:normal;font-variant:normal;font-weight:normal;font-stretch:normal;text-align:center;line-height:100%;letter-spacing:0px;word-spacing:0px;writing-mode:lr-tb;text-anchor:middle;fill:#fff;font-family:DejaVu Sans;-inkscape-font-specification:DejaVu Sans"
     x="200"
     y="50"
     id="text5052"
     sodipodi:linespacing="100%"><tspan
       sodipodi:role="line"
       id="tspan5054"
       x="200"
       y="50">fa</tspan><tspan
       sodipodi:role="line"
       x="200"
       y="67.478622"
       id="tspan5056">4</tspan></text>
  <text
     sodipodi:linespacing="100%"
     id="text5195"
     y="-41.76078"
     x="261.31259"
     style="font-size:17.47862244px;font-style:normal;font-variant:normal;font-weight:normal;font-stretch:normal;text-align:center;line-height:100%;letter-spacing:0px;word-spacing:0px;writing-mode:lr-tb;text-anchor:middle;fill:#fff;font-family:DejaVu Sans;-inkscape-font-specification:DejaVu Sans"
     xml:space="preserve"
     transform="matrix(0.92387953,0.38268343,-0.38268343,0.92387953,0,0)"><tspan
       id="tspan5199"
       y="-41.76078"
       x="261.31259"
       sodipodi:role="line">sol</tspan><tspan
       y="-24.282158"
       x="261.31259"
       sodipodi:role="line"
       id="tspan5275">5</tspan></text>
  <text
     transform="matrix(0.70710678,-0.70710678,0.70710678,0.70710678,0,0)"
     xml:space="preserve"
     style="font-size:17.47862244px;font-style:normal;font-variant:normal;font-weight:normal;font-stretch:normal;text-align:center;line-height:100%;letter-spacing:0px;word-spacing:0px;writing-mode:lr-tb;text-anchor:middle;fill:#fff;font-family:DejaVu Sans;-inkscape-font-specification:DejaVu Sans"
     x="0"
     y="132.84271"
     id="text5201"
     sodipodi:linespacing="100%"><tspan
       sodipodi:role="line"
       x="0"
       y="132.84271"
       id="tspan5205">re</tspan><tspan
       sodipodi:role="line"
       x="0"
       y="150.32133"
       id="tspan5267">2</tspan></text>
  <text
     sodipodi:linespacing="100%"
     id="text5207"
     y="111.31259"
     x="108.23922"
     style="font-size:17.47862244px;font-style:normal;font-variant:normal;font-weight:normal;font-stretch:normal;text-align:center;line-height:100%;letter-spacing:0px;word-spacing:0px;writing-mode:lr-tb;text-anchor:middle;fill:#fff;font-family:DejaVu Sans;-inkscape-font-specification:DejaVu Sans"
     xml:space="preserve"
     transform="matrix(0.92387953,-0.38268343,0.38268343,0.92387953,0,0)"><tspan
       id="tspan5211"
       y="111.31259"
       x="108.23922"
       sodipodi:role="line">mi</tspan><tspan
       y="128.79121"
       x="108.23922"
       sodipodi:role="line"
       id="tspan5271">3</tspan></text>
  <text
     sodipodi:linespacing="100%"
     id="text5231"
     y="111.31259"
     x="-108.23922"
     style="font-size:17.47862244px;font-style:normal;font-variant:normal;font-weight:normal;font-stretch:normal;text-align:center;line-height:100%;letter-spacing:0px;word-spacing:0px;writing-mode:lr-tb;text-anchor:middle;fill:#fff;font-family:DejaVu Sans;-inkscape-font-specification:DejaVu Sans"
     xml:space="preserve"
     transform="matrix(0.38268343,-0.92387953,0.92387953,0.38268343,0,0)"><tspan
       id="tspan5235"
       y="111.31259"
       x="-108.23922"
       sodipodi:role="line">do</tspan><tspan
       y="128.79121"
       x="-108.23922"
       sodipodi:role="line"
       id="tspan5263">1</tspan></text>
  <text
     transform="matrix(0.38268343,0.92387953,-0.92387953,0.38268343,0,0)"
     xml:space="preserve"
     style="font-size:17.47862244px;font-style:normal;font-variant:normal;font-weight:normal;font-stretch:normal;text-align:center;line-height:100%;letter-spacing:0px;word-spacing:0px;writing-mode:lr-tb;text-anchor:middle;fill:#fff;font-family:DejaVu Sans;-inkscape-font-specification:DejaVu Sans"
     x="261.31259"
     y="-258.2392"
     id="text5243"
     sodipodi:linespacing="100%"><tspan
       sodipodi:role="line"
       x="261.31259"
       y="-258.2392"
       id="tspan5247">si</tspan><tspan
       sodipodi:role="line"
       x="261.31259"
       y="-240.76057"
       id="tspan5279">7</tspan></text>
  <text
     sodipodi:linespacing="100%"
     id="text5281"
     y="-150"
     x="282.84271"
     style="font-size:17.47862244px;font-style:normal;font-variant:normal;font-weight:normal;font-stretch:normal;text-align:center;line-height:100%;letter-spacing:0px;word-spacing:0px;writing-mode:lr-tb;text-anchor:middle;fill:#fff;font-family:DejaVu Sans;-inkscape-font-specification:DejaVu Sans"
     xml:space="preserve"
     transform="matrix(0.70710678,0.70710678,-0.70710678,0.70710678,0,0)"><tspan
       id="tspan5285"
       y="-150"
       x="282.84271"
       sodipodi:role="line">la</tspan><tspan
       y="-132.52138"
       x="282.84271"
       sodipodi:role="line"
       id="tspan5289">6</tspan></text>
  <path
     sodipodi:type="arc"
     style="fill:none;stroke:#fff;stroke-width:4"
     id="path5316"
     sodipodi:cx="100"
     sodipodi:cy="340"
     sodipodi:rx="30"
     sodipodi:ry="30"
     d="m 130,340 a 30,30 0 1 1 -60,0 30,30 0 1 1 60,0 z"
     transform="matrix(0.25,0,0,0.25,25,225)" />
  <path
     transform="matrix(0.25,0,0,0.25,125,205)"
     d="m 70,340 a 30,30 0 0 1 60,0"
     sodipodi:ry="30"
     sodipodi:rx="30"
     sodipodi:cy="340"
     sodipodi:cx="100"
     id="path5324"
     style="fill:none;stroke:#fff;stroke-width:4;stroke-linecap:round"
     sodipodi:type="arc"
     sodipodi:start="3.1415927"
     sodipodi:end="6.2831853"
     sodipodi:open="true" />
  <path
     transform="matrix(0.25,0,0,0.25,275,175)"
     d="m 100,370 a 30,30 0 1 1 0,-60"
     sodipodi:ry="30"
     sodipodi:rx="30"
     sodipodi:cy="340"
     sodipodi:cx="100"
     id="path5336"
     style="fill:none;stroke:#fff;stroke-width:4;stroke-linecap:round"
     sodipodi:type="arc"
     sodipodi:start="1.5707963"
     sodipodi:end="4.712389"
     sodipodi:open="true" />
  <path style="fill:none;stroke:#fff;stroke-width:1;stroke-linecap:round" d="m 100,292.5 0,15"/>
  <path style="fill:none;stroke:#fff;stroke-width:1;stroke-linecap:round" d="m 192.5,272.5 15,15"/>
  <path style="fill:none;stroke:#fff;stroke-width:1;stroke-linecap:round" d="m 242.5,270 15,0"/>
  <path style="fill:none;stroke:#fff;stroke-width:1;stroke-linecap:round" d="m 342.5,257.5 15,-15"/>
</svg>
