<?xml version="1.0" encoding="UTF-8"?>
<svg version="1.2" baseProfile="tiny" viewBox="0 0 10600 4700" preserveAspectRatio="xMidYMid" fill-rule="evenodd" stroke-width="28.222" stroke-linejoin="round" xmlns="http://www.w3.org/2000/svg" xmlns:ooo="http://xml.openoffice.org/svg/export" xmlns:xlink="http://www.w3.org/1999/xlink" xml:space="preserve">
 <defs class="ClipPathGroup">
  <clipPath id="presentation_clip_path" clipPathUnits="userSpaceOnUse">
   <rect x="0" y="0" width="10600" height="4700"/>
  </clipPath>
 </defs>
 <defs class="TextShapeIndex">
  <g ooo:slide="id1" ooo:id-list="id3 id4 id5 id6 id7 id8 id9 id10 id11 id12 id13 id14 id15 id16 id17 id18 id19 id20 id21 id22 id23 id24 id25 id26 id27 id28 id29 id30 id31 id32 id33 id34 id35 id36 id37 id38 id39 id40 id41 id42 id43 id44 id45 id46 id47 id48 id49 id50 id51 id52 id53 id54 id55 id56 id57 id58 id59 id60 id61 id62 id63 id64 id65 id66 id67 id68 id69 id70 id71 id72 id73 id74 id75 id76 id77 id78 id79 id80 id81 id82 id83 id84 id85 id86 id87 id88 id89 id90 id91 id92 id93 id94 id95 id96 id97 id98 id99 id100 id101 id102 id103 id104 id105 id106 id107"/>
 </defs>
 <defs class="EmbeddedBulletChars">
  <g id="bullet-char-template(57356)" transform="scale(0.00048828125,-0.00048828125)">
   <path d="M 580,1141 L 1163,571 580,0 -4,571 580,1141 Z"/>
  </g>
  <g id="bullet-char-template(57354)" transform="scale(0.00048828125,-0.00048828125)">
   <path d="M 8,1128 L 1137,1128 1137,0 8,0 8,1128 Z"/>
  </g>
  <g id="bullet-char-template(10146)" transform="scale(0.00048828125,-0.00048828125)">
   <path d="M 174,0 L 602,739 174,1481 1456,739 174,0 Z M 1358,739 L 309,1346 659,739 1358,739 Z"/>
  </g>
  <g id="bullet-char-template(10132)" transform="scale(0.00048828125,-0.00048828125)">
   <path d="M 2015,739 L 1276,0 717,0 1260,543 174,543 174,936 1260,936 717,1481 1274,1481 2015,739 Z"/>
  </g>
  <g id="bullet-char-template(10007)" transform="scale(0.00048828125,-0.00048828125)">
   <path d="M 0,-2 C -7,14 -16,27 -25,37 L 356,567 C 262,823 215,952 215,954 215,979 228,992 255,992 264,992 276,990 289,987 310,991 331,999 354,1012 L 381,999 492,748 772,1049 836,1024 860,1049 C 881,1039 901,1025 922,1006 886,937 835,863 770,784 769,783 710,716 594,584 L 774,223 C 774,196 753,168 711,139 L 727,119 C 717,90 699,76 672,76 641,76 570,178 457,381 L 164,-76 C 142,-110 111,-127 72,-127 30,-127 9,-110 8,-76 1,-67 -2,-52 -2,-32 -2,-23 -1,-13 0,-2 Z"/>
  </g>
  <g id="bullet-char-template(10004)" transform="scale(0.00048828125,-0.00048828125)">
   <path d="M 285,-33 C 182,-33 111,30 74,156 52,228 41,333 41,471 41,549 55,616 82,672 116,743 169,778 240,778 293,778 328,747 346,684 L 369,508 C 377,444 397,411 428,410 L 1163,1116 C 1174,1127 1196,1133 1229,1133 1271,1133 1292,1118 1292,1087 L 1292,965 C 1292,929 1282,901 1262,881 L 442,47 C 390,-6 338,-33 285,-33 Z"/>
  </g>
  <g id="bullet-char-template(9679)" transform="scale(0.00048828125,-0.00048828125)">
   <path d="M 813,0 C 632,0 489,54 383,161 276,268 223,411 223,592 223,773 276,916 383,1023 489,1130 632,1184 813,1184 992,1184 1136,1130 1245,1023 1353,916 1407,772 1407,592 1407,412 1353,268 1245,161 1136,54 992,0 813,0 Z"/>
  </g>
  <g id="bullet-char-template(8226)" transform="scale(0.00048828125,-0.00048828125)">
   <path d="M 346,457 C 273,457 209,483 155,535 101,586 74,649 74,723 74,796 101,859 155,911 209,963 273,989 346,989 419,989 480,963 531,910 582,859 608,796 608,723 608,648 583,586 532,535 482,483 420,457 346,457 Z"/>
  </g>
  <g id="bullet-char-template(8211)" transform="scale(0.00048828125,-0.00048828125)">
   <path d="M -4,459 L 1135,459 1135,606 -4,606 -4,459 Z"/>
  </g>
 </defs>
 <defs class="TextEmbeddedBitmaps"/>
 <g>
  <g id="id2" class="Master_Slide">
   <g id="bg-id2" class="Background">
    <path fill="rgb(255,255,255)" stroke="none" d="M 5300,4699 L 0,4699 0,0 10599,0 10599,4699 5300,4699 Z"/>
   </g>
   <g id="bo-id2" class="BackgroundObjects"/>
  </g>
 </g>
 <g class="SlideGroup">
  <g>
   <g id="id1" class="Slide" clip-path="url(#presentation_clip_path)">
    <g class="Page">
     <g class="Group">
      <g class="com.sun.star.drawing.ClosedBezierShape">
       <g id="id3">
        <path fill="rgb(0,0,0)" stroke="none" d="M 1679,573 L 1679,701 1768,701 C 1800,701 1823,696 1836,686 1849,675 1856,658 1856,634 1856,612 1850,596 1837,587 1825,578 1802,573 1768,573 L 1679,573 Z M 1629,528 L 1777,528 C 1801,528 1818,529 1830,531 1841,533 1851,537 1860,541 1876,550 1888,562 1896,578 1905,594 1909,612 1909,633 1909,654 1905,671 1896,686 1887,700 1874,711 1857,720 1872,724 1882,731 1888,741 1895,750 1898,767 1900,790 L 1904,853 C 1905,867 1907,877 1910,883 1912,890 1917,895 1922,897 L 1922,908 1862,908 C 1858,900 1854,883 1852,857 1852,856 1852,856 1852,856 L 1849,806 C 1847,780 1842,764 1833,756 1824,749 1801,745 1764,745 L 1680,745 1680,908 1629,908 1629,528 Z"/>
       </g>
      </g>
      <g class="com.sun.star.drawing.ClosedBezierShape">
       <g id="id4">
        <path fill="rgb(0,0,0)" stroke="none" d="M 2010,744 L 2161,744 C 2161,718 2154,698 2141,684 2129,670 2110,663 2087,663 2064,663 2046,670 2033,684 2020,698 2012,718 2010,744 Z M 2160,818 L 2206,818 C 2201,849 2188,873 2166,890 2145,908 2118,917 2085,917 2047,917 2016,904 1994,878 1972,852 1961,817 1961,772 1961,725 1972,688 1994,662 2016,635 2046,622 2085,622 2125,622 2156,634 2177,659 2199,683 2210,718 2210,762 2210,768 2210,772 2210,775 2210,778 2210,780 2209,783 L 2010,783 C 2011,812 2018,835 2032,851 2046,867 2065,875 2090,875 2108,875 2124,870 2136,860 2148,850 2156,836 2160,818 Z"/>
       </g>
      </g>
      <g class="com.sun.star.drawing.ClosedBezierShape">
       <g id="id5">
        <path fill="rgb(0,0,0)" stroke="none" d="M 2380,664 C 2353,664 2333,673 2319,691 2305,710 2298,736 2298,770 2298,803 2305,829 2320,847 2334,866 2354,875 2380,875 2408,875 2429,867 2443,850 2456,833 2463,807 2463,771 2463,736 2456,709 2442,691 2428,673 2407,664 2380,664 Z M 2461,874 C 2451,888 2438,899 2423,906 2409,913 2392,917 2373,917 2336,917 2306,903 2283,876 2260,849 2249,813 2249,769 2249,724 2260,689 2283,662 2306,635 2336,622 2374,622 2392,622 2408,626 2422,633 2436,640 2449,651 2461,666 L 2461,631 2506,631 2506,902 C 2506,945 2496,975 2476,994 2455,1013 2422,1023 2377,1023 2340,1023 2312,1016 2291,1002 2270,987 2260,967 2260,942 L 2260,940 2305,940 2305,941 C 2305,955 2311,966 2323,973 2336,980 2354,984 2379,984 2408,984 2429,978 2442,967 2455,956 2461,938 2461,912 L 2461,874 Z"/>
       </g>
      </g>
      <g class="com.sun.star.drawing.ClosedBezierShape">
       <g id="id6">
        <path fill="rgb(0,0,0)" stroke="none" d="M 2576,580 C 2576,562 2576,545 2576,527 2591,527 2607,527 2622,527 2622,545 2622,562 2622,580 2607,580 2591,580 2576,580 Z M 2576,908 C 2576,816 2576,723 2576,631 2591,631 2607,631 2622,631 2622,723 2622,816 2622,908 2607,908 2591,908 2576,908 Z"/>
       </g>
      </g>
      <g class="com.sun.star.drawing.ClosedBezierShape">
       <g id="id7">
        <path fill="rgb(0,0,0)" stroke="none" d="M 2676,818 L 2721,818 C 2723,837 2729,852 2741,861 2753,871 2770,876 2791,876 2811,876 2827,872 2839,864 2850,856 2856,845 2856,832 2856,821 2853,814 2847,808 2842,803 2830,798 2814,794 L 2762,780 C 2732,773 2712,764 2700,752 2689,741 2683,724 2683,703 2683,678 2692,659 2711,645 2729,630 2755,623 2787,623 2820,623 2846,631 2866,646 2885,661 2895,682 2895,708 L 2895,709 2850,709 C 2849,694 2843,683 2832,675 2821,667 2806,663 2787,663 2769,663 2754,666 2745,673 2735,679 2730,689 2730,701 2730,710 2733,717 2739,722 2745,728 2757,732 2773,736 L 2818,746 C 2850,754 2872,764 2884,775 2896,787 2902,804 2902,826 2902,855 2892,877 2872,893 2851,909 2823,917 2787,917 2752,917 2724,909 2705,892 2686,875 2677,850 2676,818 Z"/>
       </g>
      </g>
      <g class="com.sun.star.drawing.ClosedBezierShape">
       <g id="id8">
        <path fill="rgb(0,0,0)" stroke="none" d="M 3012,839 C 3012,851 3014,860 3017,864 3021,868 3027,870 3037,870 3040,870 3043,870 3047,870 3051,870 3056,869 3062,869 L 3062,908 C 3054,909 3047,910 3041,911 3035,912 3029,912 3025,912 3003,912 2987,908 2978,899 2969,891 2965,876 2965,855 L 2965,668 2924,668 2924,631 2965,631 2965,554 3012,554 3012,631 3062,631 3062,668 3012,668 3012,839 Z"/>
       </g>
      </g>
      <g class="com.sun.star.drawing.ClosedBezierShape">
       <g id="id9">
        <path fill="rgb(0,0,0)" stroke="none" d="M 3141,744 L 3292,744 C 3292,718 3285,698 3272,684 3260,670 3241,663 3218,663 3195,663 3177,670 3164,684 3151,698 3143,718 3141,744 Z M 3291,818 L 3337,818 C 3332,849 3319,873 3297,890 3276,908 3249,917 3216,917 3178,917 3147,904 3125,878 3103,852 3092,817 3092,772 3092,725 3103,688 3125,662 3147,635 3177,622 3216,622 3256,622 3287,634 3308,659 3330,683 3341,718 3341,762 3341,768 3341,772 3341,775 3341,778 3341,780 3340,783 L 3141,783 C 3142,812 3149,835 3163,851 3177,867 3196,875 3221,875 3239,875 3255,870 3267,860 3279,850 3287,836 3291,818 Z"/>
       </g>
      </g>
      <g class="com.sun.star.drawing.ClosedBezierShape">
       <g id="id10">
        <path fill="rgb(0,0,0)" stroke="none" d="M 3393,908 L 3393,631 3437,631 3437,680 C 3445,662 3455,648 3468,639 3481,630 3496,625 3515,625 3518,625 3521,625 3522,625 3524,625 3525,625 3527,626 L 3527,675 C 3526,674 3524,674 3523,674 3521,674 3519,674 3516,674 3491,674 3472,681 3459,694 3446,708 3439,728 3439,754 L 3439,908 3393,908 Z"/>
       </g>
      </g>
      <g class="com.sun.star.drawing.ClosedBezierShape">
       <g id="id11">
        <path fill="rgb(0,0,0)" stroke="none" d="M 3885,870 C 3871,886 3856,898 3839,905 3823,913 3806,917 3788,917 3760,917 3738,910 3722,895 3706,880 3698,860 3698,834 3698,809 3706,789 3721,775 3737,760 3761,751 3793,747 3801,746 3812,745 3825,743 3849,741 3863,739 3868,736 3874,734 3877,731 3879,728 3881,725 3882,717 3882,706 3882,692 3876,681 3866,674 3856,667 3840,663 3820,663 3798,663 3782,667 3771,676 3760,684 3755,697 3755,714 L 3711,714 3711,712 C 3711,684 3721,662 3740,646 3760,630 3787,622 3821,622 3858,622 3885,629 3903,643 3920,656 3929,678 3929,707 L 3929,846 C 3929,858 3930,866 3933,869 3935,872 3940,874 3947,874 3948,874 3950,874 3952,874 3954,873 3956,873 3959,872 L 3959,909 C 3953,910 3948,912 3944,912 3940,913 3936,913 3932,913 3917,913 3905,910 3897,903 3889,896 3885,886 3885,872 L 3885,870 Z M 3881,768 C 3869,775 3847,780 3817,784 3807,785 3799,786 3793,787 3777,790 3764,795 3757,802 3750,809 3746,820 3746,833 3746,847 3750,858 3759,865 3767,872 3780,876 3796,876 3821,876 3841,870 3857,857 3873,845 3881,829 3881,809 L 3881,768 Z"/>
       </g>
      </g>
      <g class="com.sun.star.drawing.ClosedBezierShape">
       <g id="id12">
        <path fill="rgb(0,0,0)" stroke="none" d="M 4003,908 C 4003,781 4003,655 4003,528 4019,528 4034,528 4050,528 4050,655 4050,781 4050,908 4034,908 4019,908 4003,908 Z"/>
       </g>
      </g>
      <g class="com.sun.star.drawing.ClosedBezierShape">
       <g id="id13">
        <path fill="rgb(0,0,0)" stroke="none" d="M 4121,580 C 4121,562 4121,545 4121,527 4136,527 4152,527 4167,527 4167,545 4167,562 4167,580 4152,580 4136,580 4121,580 Z M 4121,908 C 4121,816 4121,723 4121,631 4136,631 4152,631 4167,631 4167,723 4167,816 4167,908 4152,908 4136,908 4121,908 Z"/>
       </g>
      </g>
      <g class="com.sun.star.drawing.ClosedBezierShape">
       <g id="id14">
        <path fill="rgb(0,0,0)" stroke="none" d="M 4410,870 C 4396,886 4381,898 4364,905 4348,913 4331,917 4313,917 4285,917 4263,910 4247,895 4231,880 4223,860 4223,834 4223,809 4231,789 4246,775 4262,760 4286,751 4318,747 4326,746 4337,745 4350,743 4374,741 4388,739 4393,736 4399,734 4402,731 4404,728 4406,725 4407,717 4407,706 4407,692 4401,681 4391,674 4381,667 4365,663 4345,663 4323,663 4307,667 4296,676 4285,684 4280,697 4280,714 L 4236,714 4236,712 C 4236,684 4246,662 4265,646 4285,630 4312,622 4346,622 4383,622 4410,629 4428,643 4445,656 4454,678 4454,707 L 4454,846 C 4454,858 4455,866 4458,869 4460,872 4465,874 4472,874 4473,874 4475,874 4477,874 4479,873 4481,873 4484,872 L 4484,909 C 4478,910 4473,912 4469,912 4465,913 4461,913 4457,913 4442,913 4430,910 4422,903 4414,896 4410,886 4410,872 L 4410,870 Z M 4406,768 C 4394,775 4372,780 4342,784 4332,785 4324,786 4318,787 4302,790 4289,795 4282,802 4275,809 4271,820 4271,833 4271,847 4275,858 4284,865 4292,872 4305,876 4321,876 4346,876 4366,870 4382,857 4398,845 4406,829 4406,809 L 4406,768 Z"/>
       </g>
      </g>
      <g class="com.sun.star.drawing.ClosedBezierShape">
       <g id="id15">
        <path fill="rgb(0,0,0)" stroke="none" d="M 4509,818 L 4554,818 C 4556,837 4562,852 4574,861 4586,871 4603,876 4624,876 4644,876 4660,872 4672,864 4683,856 4689,845 4689,832 4689,821 4686,814 4680,808 4675,803 4663,798 4647,794 L 4595,780 C 4565,773 4545,764 4533,752 4522,741 4516,724 4516,703 4516,678 4525,659 4544,645 4562,630 4588,623 4620,623 4653,623 4679,631 4699,646 4718,661 4728,682 4728,708 L 4728,709 4683,709 C 4682,694 4676,683 4665,675 4654,667 4639,663 4620,663 4602,663 4587,666 4578,673 4568,679 4563,689 4563,701 4563,710 4566,717 4572,722 4578,728 4590,732 4606,736 L 4651,746 C 4683,754 4705,764 4717,775 4729,787 4735,804 4735,826 4735,855 4725,877 4705,893 4684,909 4656,917 4620,917 4585,917 4557,909 4538,892 4519,875 4510,850 4509,818 Z"/>
       </g>
      </g>
      <g class="com.sun.star.drawing.ClosedBezierShape">
       <g id="id16">
        <path fill="rgb(0,0,0)" stroke="none" d="M 4790,580 C 4790,562 4790,545 4790,527 4805,527 4821,527 4836,527 4836,545 4836,562 4836,580 4821,580 4805,580 4790,580 Z M 4790,908 C 4790,816 4790,723 4790,631 4805,631 4821,631 4836,631 4836,723 4836,816 4836,908 4821,908 4805,908 4790,908 Z"/>
       </g>
      </g>
      <g class="com.sun.star.drawing.ClosedBezierShape">
       <g id="id17">
        <path fill="rgb(0,0,0)" stroke="none" d="M 5092,908 L 5092,737 C 5092,710 5088,691 5079,681 5071,670 5057,665 5036,665 5010,665 4990,672 4976,687 4961,702 4954,723 4954,750 L 4954,908 4908,908 4908,631 4952,631 4952,671 C 4963,655 4975,643 4990,636 5005,628 5022,624 5041,624 5062,624 5079,627 5094,633 5108,640 5119,649 5127,662 5131,668 5134,676 5136,685 5138,694 5139,709 5139,728 L 5139,741 5139,908 5092,908 Z"/>
       </g>
      </g>
      <g class="com.sun.star.drawing.ClosedBezierShape">
       <g id="id18">
        <path fill="rgb(0,0,0)" stroke="none" d="M 5327,664 C 5300,664 5280,673 5266,691 5252,710 5245,736 5245,770 5245,803 5252,829 5267,847 5281,866 5301,875 5327,875 5355,875 5376,867 5390,850 5403,833 5410,807 5410,771 5410,736 5403,709 5389,691 5375,673 5354,664 5327,664 Z M 5408,874 C 5398,888 5385,899 5370,906 5356,913 5339,917 5320,917 5283,917 5253,903 5230,876 5207,849 5196,813 5196,769 5196,724 5207,689 5230,662 5253,635 5283,622 5321,622 5339,622 5355,626 5369,633 5383,640 5396,651 5408,666 L 5408,631 5453,631 5453,902 C 5453,945 5443,975 5423,994 5402,1013 5369,1023 5324,1023 5287,1023 5259,1016 5238,1002 5217,987 5207,967 5207,942 L 5207,940 5252,940 5252,941 C 5252,955 5258,966 5270,973 5283,980 5301,984 5326,984 5355,984 5376,978 5389,967 5402,956 5408,938 5408,912 L 5408,874 Z"/>
       </g>
      </g>
      <g class="com.sun.star.drawing.ClosedBezierShape">
       <g id="id19">
        <path fill="rgb(0,0,0)" stroke="none" d="M 5630,957 C 5673,811 5715,664 5758,518 5768,518 5779,518 5790,518 5747,664 5705,811 5662,957 5651,957 5641,957 5630,957 Z"/>
       </g>
      </g>
      <g class="com.sun.star.drawing.ClosedBezierShape">
       <g id="id20">
        <path fill="rgb(0,0,0)" stroke="none" d="M 5953,818 L 5998,818 C 6000,837 6006,852 6018,861 6030,871 6047,876 6068,876 6088,876 6104,872 6116,864 6127,856 6133,845 6133,832 6133,821 6130,814 6124,808 6119,803 6107,798 6091,794 L 6039,780 C 6009,773 5989,764 5977,752 5966,741 5960,724 5960,703 5960,678 5969,659 5988,645 6006,630 6032,623 6064,623 6097,623 6123,631 6143,646 6162,661 6172,682 6172,708 L 6172,709 6127,709 C 6126,694 6120,683 6109,675 6098,667 6083,663 6064,663 6046,663 6031,666 6022,673 6012,679 6007,689 6007,701 6007,710 6010,717 6016,722 6022,728 6034,732 6050,736 L 6095,746 C 6127,754 6149,764 6161,775 6173,787 6179,804 6179,826 6179,855 6169,877 6149,893 6128,909 6100,917 6064,917 6029,917 6001,909 5982,892 5963,875 5954,850 5953,818 Z"/>
       </g>
      </g>
      <g class="com.sun.star.drawing.ClosedBezierShape">
       <g id="id21">
        <path fill="rgb(0,0,0)" stroke="none" d="M 6279,631 L 6279,801 C 6279,828 6283,847 6292,858 6300,869 6315,874 6335,874 6362,874 6382,866 6396,850 6410,834 6417,811 6417,780 L 6417,631 6463,631 6463,908 6419,908 6419,867 C 6409,883 6397,895 6382,903 6366,911 6348,915 6327,915 6308,915 6291,912 6277,905 6263,899 6252,889 6244,877 6240,871 6237,863 6235,854 6233,845 6232,830 6232,811 L 6232,798 6232,631 6279,631 Z"/>
       </g>
      </g>
      <g class="com.sun.star.drawing.ClosedBezierShape">
       <g id="id22">
        <path fill="rgb(0,0,0)" stroke="none" d="M 6579,768 C 6579,803 6586,829 6600,848 6614,867 6634,876 6661,876 6686,876 6706,867 6721,849 6736,831 6743,806 6743,774 6743,739 6736,712 6722,693 6707,674 6687,664 6661,664 6634,664 6613,673 6600,690 6586,707 6579,733 6579,768 Z M 6535,908 L 6535,528 6581,528 6581,670 C 6591,654 6604,642 6619,634 6634,626 6651,622 6670,622 6707,622 6736,635 6759,662 6781,689 6792,725 6792,771 6792,815 6781,851 6759,877 6737,904 6708,917 6671,917 6651,917 6634,913 6620,906 6605,899 6592,889 6581,874 L 6581,908 6535,908 Z"/>
       </g>
      </g>
      <g class="com.sun.star.drawing.ClosedBezierShape">
       <g id="id23">
        <path fill="rgb(0,0,0)" stroke="none" d="M 6831,789 C 6831,775 6831,761 6831,747 6874,747 6916,747 6959,747 6959,761 6959,775 6959,789 6916,789 6874,789 6831,789 Z"/>
       </g>
      </g>
      <g class="com.sun.star.drawing.ClosedBezierShape">
       <g id="id24">
        <path fill="rgb(0,0,0)" stroke="none" d="M 7012,908 L 7012,631 7056,631 7056,680 C 7064,662 7074,648 7087,639 7100,630 7115,625 7134,625 7137,625 7140,625 7141,625 7143,625 7144,625 7146,626 L 7146,675 C 7145,674 7143,674 7142,674 7140,674 7138,674 7135,674 7110,674 7091,681 7078,694 7065,708 7058,728 7058,754 L 7058,908 7012,908 Z"/>
       </g>
      </g>
      <g class="com.sun.star.drawing.ClosedBezierShape">
       <g id="id25">
        <path fill="rgb(0,0,0)" stroke="none" d="M 7226,744 L 7377,744 C 7377,718 7370,698 7357,684 7345,670 7326,663 7303,663 7280,663 7262,670 7249,684 7236,698 7228,718 7226,744 Z M 7376,818 L 7422,818 C 7417,849 7404,873 7382,890 7361,908 7334,917 7301,917 7263,917 7232,904 7210,878 7188,852 7177,817 7177,772 7177,725 7188,688 7210,662 7232,635 7262,622 7301,622 7341,622 7372,634 7393,659 7415,683 7426,718 7426,762 7426,768 7426,772 7426,775 7426,778 7426,780 7425,783 L 7226,783 C 7227,812 7234,835 7248,851 7262,867 7281,875 7306,875 7324,875 7340,870 7352,860 7364,850 7372,836 7376,818 Z"/>
       </g>
      </g>
      <g class="com.sun.star.drawing.ClosedBezierShape">
       <g id="id26">
        <path fill="rgb(0,0,0)" stroke="none" d="M 7596,664 C 7569,664 7549,673 7535,691 7521,710 7514,736 7514,770 7514,803 7521,829 7536,847 7550,866 7570,875 7596,875 7624,875 7645,867 7659,850 7672,833 7679,807 7679,771 7679,736 7672,709 7658,691 7644,673 7623,664 7596,664 Z M 7677,874 C 7667,888 7654,899 7639,906 7625,913 7608,917 7589,917 7552,917 7522,903 7499,876 7476,849 7465,813 7465,769 7465,724 7476,689 7499,662 7522,635 7552,622 7590,622 7608,622 7624,626 7638,633 7652,640 7665,651 7677,666 L 7677,631 7722,631 7722,902 C 7722,945 7712,975 7692,994 7671,1013 7638,1023 7593,1023 7556,1023 7528,1016 7507,1002 7486,987 7476,967 7476,942 L 7476,940 7521,940 7521,941 C 7521,955 7527,966 7539,973 7552,980 7570,984 7595,984 7624,984 7645,978 7658,967 7671,956 7677,938 7677,912 L 7677,874 Z"/>
       </g>
      </g>
      <g class="com.sun.star.drawing.ClosedBezierShape">
       <g id="id27">
        <path fill="rgb(0,0,0)" stroke="none" d="M 7791,580 C 7791,562 7791,545 7791,527 7806,527 7822,527 7837,527 7837,545 7837,562 7837,580 7822,580 7806,580 7791,580 Z M 7791,908 C 7791,816 7791,723 7791,631 7806,631 7822,631 7837,631 7837,723 7837,816 7837,908 7822,908 7806,908 7791,908 Z"/>
       </g>
      </g>
      <g class="com.sun.star.drawing.ClosedBezierShape">
       <g id="id28">
        <path fill="rgb(0,0,0)" stroke="none" d="M 7892,818 L 7937,818 C 7939,837 7945,852 7957,861 7969,871 7986,876 8007,876 8027,876 8043,872 8055,864 8066,856 8072,845 8072,832 8072,821 8069,814 8063,808 8058,803 8046,798 8030,794 L 7978,780 C 7948,773 7928,764 7916,752 7905,741 7899,724 7899,703 7899,678 7908,659 7927,645 7945,630 7971,623 8003,623 8036,623 8062,631 8082,646 8101,661 8111,682 8111,708 L 8111,709 8066,709 C 8065,694 8059,683 8048,675 8037,667 8022,663 8003,663 7985,663 7970,666 7961,673 7951,679 7946,689 7946,701 7946,710 7949,717 7955,722 7961,728 7973,732 7989,736 L 8034,746 C 8066,754 8088,764 8100,775 8112,787 8118,804 8118,826 8118,855 8108,877 8088,893 8067,909 8039,917 8003,917 7968,917 7940,909 7921,892 7902,875 7893,850 7892,818 Z"/>
       </g>
      </g>
      <g class="com.sun.star.drawing.ClosedBezierShape">
       <g id="id29">
        <path fill="rgb(0,0,0)" stroke="none" d="M 8227,839 C 8227,851 8229,860 8232,864 8236,868 8242,870 8252,870 8255,870 8258,870 8262,870 8266,870 8271,869 8277,869 L 8277,908 C 8269,909 8262,910 8256,911 8250,912 8244,912 8240,912 8218,912 8202,908 8193,899 8184,891 8180,876 8180,855 L 8180,668 8139,668 8139,631 8180,631 8180,554 8227,554 8227,631 8277,631 8277,668 8227,668 8227,839 Z"/>
       </g>
      </g>
      <g class="com.sun.star.drawing.ClosedBezierShape">
       <g id="id30">
        <path fill="rgb(0,0,0)" stroke="none" d="M 8356,744 L 8507,744 C 8507,718 8500,698 8487,684 8475,670 8456,663 8433,663 8410,663 8392,670 8379,684 8366,698 8358,718 8356,744 Z M 8506,818 L 8552,818 C 8547,849 8534,873 8512,890 8491,908 8464,917 8431,917 8393,917 8362,904 8340,878 8318,852 8307,817 8307,772 8307,725 8318,688 8340,662 8362,635 8392,622 8431,622 8471,622 8502,634 8523,659 8545,683 8556,718 8556,762 8556,768 8556,772 8556,775 8556,778 8556,780 8555,783 L 8356,783 C 8357,812 8364,835 8378,851 8392,867 8411,875 8436,875 8454,875 8470,870 8482,860 8494,850 8502,836 8506,818 Z"/>
       </g>
      </g>
      <g class="com.sun.star.drawing.ClosedBezierShape">
       <g id="id31">
        <path fill="rgb(0,0,0)" stroke="none" d="M 8608,908 L 8608,631 8652,631 8652,680 C 8660,662 8670,648 8683,639 8696,630 8711,625 8730,625 8733,625 8736,625 8737,625 8739,625 8740,625 8742,626 L 8742,675 C 8741,674 8739,674 8738,674 8736,674 8734,674 8731,674 8706,674 8687,681 8674,694 8661,708 8654,728 8654,754 L 8654,908 8608,908 Z"/>
       </g>
      </g>
      <g class="com.sun.star.drawing.ClosedBezierShape">
       <g id="id32">
        <path fill="rgb(0,0,0)" stroke="none" d="M 8768,818 L 8813,818 C 8815,837 8821,852 8833,861 8845,871 8862,876 8883,876 8903,876 8919,872 8931,864 8942,856 8948,845 8948,832 8948,821 8945,814 8939,808 8934,803 8922,798 8906,794 L 8854,780 C 8824,773 8804,764 8792,752 8781,741 8775,724 8775,703 8775,678 8784,659 8803,645 8821,630 8847,623 8879,623 8912,623 8938,631 8958,646 8977,661 8987,682 8987,708 L 8987,709 8942,709 C 8941,694 8935,683 8924,675 8913,667 8898,663 8879,663 8861,663 8846,666 8837,673 8827,679 8822,689 8822,701 8822,710 8825,717 8831,722 8837,728 8849,732 8865,736 L 8910,746 C 8942,754 8964,764 8976,775 8988,787 8994,804 8994,826 8994,855 8984,877 8964,893 8943,909 8915,917 8879,917 8844,917 8816,909 8797,892 8778,875 8769,850 8768,818 Z"/>
       </g>
      </g>
     </g>
     <g class="Group">
      <g class="com.sun.star.drawing.ClosedBezierShape">
       <g id="id33">
        <path fill="rgb(255,255,102)" stroke="none" d="M 700,4200 C 590,4200 500,4110 500,4000 500,3233 500,2467 500,1700 500,1590 590,1500 700,1500 3767,1500 6833,1500 9900,1500 10010,1500 10100,1590 10100,1700 10100,2467 10100,3233 10100,4000 10100,4110 10010,4200 9900,4200 6833,4200 3767,4200 700,4200 Z"/>
        <path fill="none" stroke="rgb(0,0,0)" stroke-width="20" stroke-linejoin="round" d="M 700,4200 C 590,4200 500,4110 500,4000 500,3233 500,2467 500,1700 500,1590 590,1500 700,1500 3767,1500 6833,1500 9900,1500 10010,1500 10100,1590 10100,1700 10100,2467 10100,3233 10100,4000 10100,4110 10010,4200 9900,4200 6833,4200 3767,4200 700,4200 Z"/>
       </g>
      </g>
      <g class="com.sun.star.drawing.ClosedBezierShape">
       <g id="id34">
        <path fill="rgb(0,0,0)" stroke="none" d="M 876,1849 L 1027,1849 C 1027,1823 1020,1803 1007,1789 995,1775 976,1768 953,1768 930,1768 912,1775 899,1789 886,1803 878,1823 876,1849 Z M 1026,1923 L 1072,1923 C 1067,1954 1054,1978 1032,1995 1011,2013 984,2022 951,2022 913,2022 882,2009 860,1983 838,1957 827,1922 827,1877 827,1830 838,1793 860,1767 882,1740 912,1727 951,1727 991,1727 1022,1739 1043,1764 1065,1788 1076,1823 1076,1867 1076,1873 1076,1877 1076,1880 1076,1883 1076,1885 1075,1888 L 876,1888 C 877,1917 884,1940 898,1956 912,1972 931,1980 956,1980 974,1980 990,1975 1002,1965 1014,1955 1022,1941 1026,1923 Z"/>
       </g>
      </g>
      <g class="com.sun.star.drawing.ClosedBezierShape">
       <g id="id35">
        <path fill="rgb(0,0,0)" stroke="none" d="M 1299,1975 C 1285,1991 1270,2003 1253,2010 1237,2018 1220,2022 1202,2022 1174,2022 1152,2015 1136,2000 1120,1985 1112,1965 1112,1939 1112,1914 1120,1894 1135,1880 1151,1865 1175,1856 1207,1852 1215,1851 1226,1850 1239,1848 1263,1846 1277,1844 1282,1841 1288,1839 1291,1836 1293,1833 1295,1830 1296,1822 1296,1811 1296,1797 1290,1786 1280,1779 1270,1772 1254,1768 1234,1768 1212,1768 1196,1772 1185,1781 1174,1789 1169,1802 1169,1819 L 1125,1819 1125,1817 C 1125,1789 1135,1767 1154,1751 1174,1735 1201,1727 1235,1727 1272,1727 1299,1734 1317,1748 1334,1761 1343,1783 1343,1812 L 1343,1951 C 1343,1963 1344,1971 1347,1974 1349,1977 1354,1979 1361,1979 1362,1979 1364,1979 1366,1979 1368,1978 1370,1978 1373,1977 L 1373,2014 C 1367,2015 1362,2017 1358,2017 1354,2018 1350,2018 1346,2018 1331,2018 1319,2015 1311,2008 1303,2001 1299,1991 1299,1977 L 1299,1975 Z M 1295,1873 C 1283,1880 1261,1885 1231,1889 1221,1890 1213,1891 1207,1892 1191,1895 1178,1900 1171,1907 1164,1914 1160,1925 1160,1938 1160,1952 1164,1963 1173,1970 1181,1977 1194,1981 1210,1981 1235,1981 1255,1975 1271,1962 1287,1950 1295,1933 1295,1914 L 1295,1873 Z"/>
       </g>
      </g>
      <g class="com.sun.star.drawing.ClosedBezierShape">
       <g id="id36">
        <path fill="rgb(0,0,0)" stroke="none" d="M 1381,2013 C 1413,1965 1445,1918 1477,1870 1447,1826 1416,1781 1386,1736 1404,1736 1422,1736 1440,1736 1463,1769 1485,1802 1508,1836 1530,1802 1552,1769 1574,1736 1592,1736 1610,1736 1628,1736 1597,1781 1566,1825 1535,1870 1568,1918 1601,1965 1634,2013 1615,2013 1597,2013 1578,2013 1554,1977 1530,1942 1506,1906 1482,1942 1459,1977 1435,2013 1417,2013 1399,2013 1381,2013 Z"/>
       </g>
      </g>
      <g class="com.sun.star.drawing.ClosedBezierShape">
       <g id="id37">
        <path fill="rgb(0,0,0)" stroke="none" d="M 1872,2086 C 1852,2060 1837,2033 1828,2006 1819,1979 1814,1951 1814,1922 1814,1892 1819,1864 1828,1837 1837,1810 1852,1783 1872,1757 L 1894,1757 C 1877,1785 1865,1812 1857,1839 1849,1866 1845,1894 1845,1922 1845,1949 1849,1977 1857,2004 1865,2031 1877,2058 1894,2086 L 1872,2086 Z"/>
       </g>
      </g>
      <g class="com.sun.star.drawing.ClosedBezierShape">
       <g id="id38">
        <path fill="rgb(0,0,0)" stroke="none" d="M 1906,1936 L 1938,1936 C 1938,1953 1943,1967 1952,1976 1961,1985 1974,1990 1991,1990 2007,1990 2020,1986 2029,1977 2038,1969 2043,1957 2043,1942 2043,1928 2038,1918 2029,1910 2020,1903 2007,1899 1991,1899 1988,1899 1982,1899 1974,1900 L 1973,1900 1973,1872 C 1975,1872 1976,1872 1978,1872 1979,1872 1981,1872 1984,1872 2002,1872 2014,1869 2022,1863 2030,1857 2034,1847 2034,1834 2034,1821 2030,1812 2023,1805 2015,1798 2005,1795 1991,1795 1975,1795 1963,1799 1955,1808 1947,1817 1943,1830 1943,1847 L 1912,1847 1912,1845 C 1912,1821 1919,1802 1933,1787 1947,1773 1965,1766 1989,1766 2014,1766 2033,1772 2047,1783 2061,1795 2068,1811 2068,1832 2068,1844 2065,1854 2060,1863 2055,1871 2047,1878 2037,1882 2050,1887 2060,1894 2067,1904 2074,1915 2077,1927 2077,1942 2077,1966 2069,1985 2053,1999 2037,2013 2016,2020 1989,2020 1963,2020 1943,2013 1928,1998 1913,1983 1906,1963 1906,1938 L 1906,1936 Z"/>
       </g>
      </g>
      <g class="com.sun.star.drawing.ClosedBezierShape">
       <g id="id39">
        <path fill="rgb(0,0,0)" stroke="none" d="M 2103,2013 L 2103,2011 C 2103,1987 2109,1967 2120,1951 2132,1935 2152,1919 2181,1903 L 2202,1891 C 2214,1885 2223,1877 2229,1868 2235,1860 2238,1850 2238,1839 2238,1825 2234,1815 2225,1807 2216,1799 2204,1795 2189,1795 2174,1795 2162,1800 2153,1810 2144,1820 2140,1834 2140,1852 L 2140,1855 2108,1855 2108,1851 C 2108,1825 2115,1804 2130,1789 2145,1774 2165,1766 2190,1766 2214,1766 2234,1773 2249,1786 2264,1800 2271,1817 2271,1839 2271,1856 2267,1871 2258,1884 2250,1896 2236,1907 2218,1917 L 2197,1927 C 2178,1937 2164,1946 2155,1955 2147,1963 2141,1973 2138,1983 L 2271,1983 2271,2013 2103,2013 Z"/>
       </g>
      </g>
      <g class="com.sun.star.drawing.ClosedBezierShape">
       <g id="id40">
        <path fill="rgb(0,0,0)" stroke="none" d="M 2437,1919 C 2437,1942 2442,1960 2451,1972 2460,1985 2474,1991 2491,1991 2508,1991 2522,1985 2531,1973 2541,1961 2546,1944 2546,1923 2546,1900 2541,1882 2532,1869 2522,1856 2509,1850 2492,1850 2473,1850 2460,1856 2451,1867 2442,1879 2437,1896 2437,1919 Z M 2408,2013 L 2408,1759 2438,1759 2438,1854 C 2445,1843 2454,1835 2464,1830 2474,1825 2485,1822 2498,1822 2522,1822 2542,1831 2557,1849 2572,1867 2579,1891 2579,1921 2579,1951 2572,1975 2557,1992 2542,2010 2523,2019 2498,2019 2485,2019 2474,2017 2464,2012 2454,2007 2446,2000 2438,1990 L 2438,2013 2408,2013 Z"/>
       </g>
      </g>
      <g class="com.sun.star.drawing.ClosedBezierShape">
       <g id="id41">
        <path fill="rgb(0,0,0)" stroke="none" d="M 2616,1794 C 2616,1782 2616,1771 2616,1759 2626,1759 2637,1759 2647,1759 2647,1771 2647,1782 2647,1794 2637,1794 2626,1794 2616,1794 Z M 2616,2013 C 2616,1951 2616,1890 2616,1828 2626,1828 2637,1828 2647,1828 2647,1890 2647,1951 2647,2013 2637,2013 2626,2013 2616,2013 Z"/>
       </g>
      </g>
      <g class="com.sun.star.drawing.ClosedBezierShape">
       <g id="id42">
        <path fill="rgb(0,0,0)" stroke="none" d="M 2728,1966 C 2728,1975 2729,1980 2732,1983 2734,1986 2738,1987 2744,1987 2746,1987 2748,1987 2751,1987 2754,1987 2757,1986 2761,1986 L 2761,2012 C 2756,2013 2751,2014 2747,2014 2743,2015 2739,2015 2736,2015 2722,2015 2712,2012 2706,2007 2700,2001 2697,1991 2697,1977 L 2697,1853 2669,1853 2669,1828 2697,1828 2697,1777 2728,1777 2728,1828 2761,1828 2761,1853 2728,1853 2728,1966 Z"/>
       </g>
      </g>
      <g class="com.sun.star.drawing.ClosedBezierShape">
       <g id="id43">
        <path fill="rgb(0,0,0)" stroke="none" d="M 2776,1953 L 2806,1953 C 2807,1965 2812,1975 2820,1981 2827,1988 2839,1991 2853,1991 2866,1991 2877,1988 2884,1983 2892,1978 2896,1971 2896,1962 2896,1955 2894,1950 2890,1946 2886,1943 2879,1939 2868,1937 L 2833,1928 C 2814,1923 2800,1917 2792,1909 2785,1901 2781,1890 2781,1876 2781,1860 2787,1847 2800,1837 2812,1828 2829,1823 2850,1823 2872,1823 2890,1828 2903,1838 2916,1848 2922,1862 2922,1879 L 2922,1880 2892,1880 C 2891,1870 2887,1863 2880,1858 2873,1853 2863,1850 2850,1850 2838,1850 2828,1852 2822,1856 2815,1861 2812,1867 2812,1875 2812,1881 2814,1886 2818,1889 2822,1892 2830,1895 2841,1898 L 2871,1905 C 2892,1910 2907,1917 2915,1924 2923,1932 2927,1944 2927,1958 2927,1977 2920,1992 2907,2003 2893,2014 2874,2019 2850,2019 2826,2019 2808,2013 2796,2002 2783,1991 2776,1974 2776,1953 Z"/>
       </g>
      </g>
      <g class="com.sun.star.drawing.ClosedBezierShape">
       <g id="id44">
        <path fill="rgb(0,0,0)" stroke="none" d="M 2966,2086 L 2943,2086 C 2959,2058 2972,2031 2980,2004 2988,1977 2992,1949 2992,1922 2992,1894 2988,1866 2980,1839 2972,1812 2959,1785 2943,1757 L 2966,1757 C 2985,1783 3000,1810 3009,1837 3018,1863 3023,1892 3023,1922 3023,1951 3018,1980 3009,2006 3000,2033 2985,2060 2966,2086 Z"/>
       </g>
      </g>
     </g>
     <g class="Group">
      <g class="com.sun.star.drawing.ClosedBezierShape">
       <g id="id45">
        <path fill="rgb(51,255,153)" stroke="none" d="M 5500,4100 C 5390,4100 5300,4010 5300,3900 5300,3200 5300,2500 5300,1800 5300,1690 5390,1600 5500,1600 6965,1600 8429,1600 9894,1600 10004,1600 10094,1690 10094,1800 10094,2500 10094,3200 10094,3900 10094,4010 10004,4100 9894,4100 8429,4100 6965,4100 5500,4100 Z"/>
        <path fill="none" stroke="rgb(0,0,0)" stroke-width="20" stroke-linejoin="round" d="M 5500,4100 C 5390,4100 5300,4010 5300,3900 5300,3200 5300,2500 5300,1800 5300,1690 5390,1600 5500,1600 6965,1600 8429,1600 9894,1600 10004,1600 10094,1690 10094,1800 10094,2500 10094,3200 10094,3900 10094,4010 10004,4100 9894,4100 8429,4100 6965,4100 5500,4100 Z"/>
       </g>
      </g>
      <g class="com.sun.star.drawing.ClosedBezierShape">
       <g id="id46">
        <path fill="rgb(0,0,0)" stroke="none" d="M 5811,2075 C 5797,2091 5782,2103 5765,2110 5749,2118 5732,2122 5714,2122 5686,2122 5664,2115 5648,2100 5632,2085 5624,2065 5624,2039 5624,2014 5632,1994 5647,1980 5663,1965 5687,1956 5719,1952 5727,1951 5738,1950 5751,1948 5775,1946 5789,1944 5794,1941 5800,1939 5803,1936 5805,1933 5807,1930 5808,1922 5808,1911 5808,1897 5802,1886 5792,1879 5782,1872 5766,1868 5746,1868 5724,1868 5708,1872 5697,1881 5686,1889 5681,1902 5681,1919 L 5637,1919 5637,1917 C 5637,1889 5647,1867 5666,1851 5686,1835 5713,1827 5747,1827 5784,1827 5811,1834 5829,1848 5846,1861 5855,1883 5855,1912 L 5855,2051 C 5855,2063 5856,2071 5859,2074 5861,2077 5866,2079 5873,2079 5874,2079 5876,2079 5878,2079 5880,2078 5882,2078 5885,2077 L 5885,2114 C 5879,2115 5874,2117 5870,2117 5866,2118 5862,2118 5858,2118 5843,2118 5831,2115 5823,2108 5815,2101 5811,2091 5811,2077 L 5811,2075 Z M 5807,1973 C 5795,1980 5773,1985 5743,1989 5733,1990 5725,1991 5719,1992 5703,1995 5690,2000 5683,2007 5676,2014 5672,2025 5672,2038 5672,2052 5676,2063 5685,2070 5693,2077 5706,2081 5722,2081 5747,2081 5767,2075 5783,2062 5799,2050 5807,2033 5807,2014 L 5807,1973 Z"/>
       </g>
      </g>
      <g class="com.sun.star.drawing.ClosedBezierShape">
       <g id="id47">
        <path fill="rgb(0,0,0)" stroke="none" d="M 5893,2113 C 5925,2065 5957,2018 5989,1970 5959,1926 5928,1881 5898,1836 5916,1836 5934,1836 5952,1836 5975,1869 5997,1902 6020,1936 6042,1902 6064,1869 6086,1836 6104,1836 6122,1836 6140,1836 6109,1881 6078,1925 6047,1970 6080,2018 6113,2065 6146,2113 6127,2113 6109,2113 6090,2113 6066,2077 6042,2042 6018,2006 5994,2042 5971,2077 5947,2113 5929,2113 5911,2113 5893,2113 Z"/>
       </g>
      </g>
      <g class="com.sun.star.drawing.ClosedBezierShape">
       <g id="id48">
        <path fill="rgb(0,0,0)" stroke="none" d="M 6384,2186 C 6364,2160 6349,2133 6340,2106 6331,2079 6326,2051 6326,2022 6326,1992 6331,1964 6340,1937 6349,1910 6364,1883 6384,1857 L 6406,1857 C 6389,1885 6377,1912 6369,1939 6361,1966 6357,1994 6357,2022 6357,2049 6361,2077 6369,2104 6377,2131 6389,2158 6406,2186 L 6384,2186 Z"/>
       </g>
      </g>
      <g class="com.sun.star.drawing.ClosedBezierShape">
       <g id="id49">
        <path fill="rgb(0,0,0)" stroke="none" d="M 6500,2113 L 6500,1938 6443,1938 6443,1913 C 6464,1913 6479,1909 6490,1901 6500,1894 6506,1882 6508,1866 L 6532,1866 6532,2113 6500,2113 Z"/>
       </g>
      </g>
      <g class="com.sun.star.drawing.ClosedBezierShape">
       <g id="id50">
        <path fill="rgb(0,0,0)" stroke="none" d="M 6754,2038 C 6754,2022 6750,2010 6741,2000 6732,1991 6720,1986 6706,1986 6690,1986 6677,1991 6668,2000 6659,2009 6654,2022 6654,2039 6654,2055 6659,2068 6668,2078 6677,2087 6689,2092 6705,2092 6720,2092 6731,2087 6740,2077 6749,2067 6754,2054 6754,2038 Z M 6786,1934 L 6753,1934 C 6752,1921 6748,1912 6740,1905 6733,1898 6722,1895 6709,1895 6691,1895 6677,1902 6668,1917 6658,1932 6653,1954 6651,1984 6658,1975 6666,1969 6676,1964 6686,1959 6697,1957 6709,1957 6733,1957 6752,1964 6766,1979 6781,1994 6788,2014 6788,2038 6788,2062 6780,2082 6765,2097 6750,2112 6730,2120 6705,2120 6676,2120 6654,2110 6639,2090 6624,2070 6616,2041 6616,2004 6616,1960 6624,1926 6640,1902 6657,1878 6679,1866 6709,1866 6732,1866 6750,1872 6764,1884 6777,1895 6784,1912 6786,1934 Z"/>
       </g>
      </g>
      <g class="com.sun.star.drawing.ClosedBezierShape">
       <g id="id51">
        <path fill="rgb(0,0,0)" stroke="none" d="M 6949,2019 C 6949,2042 6954,2060 6963,2072 6972,2085 6986,2091 7003,2091 7020,2091 7034,2085 7043,2073 7053,2061 7058,2044 7058,2023 7058,2000 7053,1982 7044,1969 7034,1956 7021,1950 7004,1950 6985,1950 6972,1956 6963,1967 6954,1979 6949,1996 6949,2019 Z M 6920,2113 L 6920,1859 6950,1859 6950,1954 C 6957,1943 6966,1935 6976,1930 6986,1925 6997,1922 7010,1922 7034,1922 7054,1931 7069,1949 7084,1967 7091,1991 7091,2021 7091,2051 7084,2075 7069,2092 7054,2110 7035,2119 7010,2119 6997,2119 6986,2117 6976,2112 6966,2107 6958,2100 6950,2090 L 6950,2113 6920,2113 Z"/>
       </g>
      </g>
      <g class="com.sun.star.drawing.ClosedBezierShape">
       <g id="id52">
        <path fill="rgb(0,0,0)" stroke="none" d="M 7128,1894 C 7128,1882 7128,1871 7128,1859 7138,1859 7149,1859 7159,1859 7159,1871 7159,1882 7159,1894 7149,1894 7138,1894 7128,1894 Z M 7128,2113 C 7128,2051 7128,1990 7128,1928 7138,1928 7149,1928 7159,1928 7159,1990 7159,2051 7159,2113 7149,2113 7138,2113 7128,2113 Z"/>
       </g>
      </g>
      <g class="com.sun.star.drawing.ClosedBezierShape">
       <g id="id53">
        <path fill="rgb(0,0,0)" stroke="none" d="M 7240,2066 C 7240,2075 7241,2080 7244,2083 7246,2086 7250,2087 7256,2087 7258,2087 7260,2087 7263,2087 7266,2087 7269,2086 7273,2086 L 7273,2112 C 7268,2113 7263,2114 7259,2114 7255,2115 7251,2115 7248,2115 7234,2115 7224,2112 7218,2107 7212,2101 7209,2091 7209,2077 L 7209,1953 7181,1953 7181,1928 7209,1928 7209,1877 7240,1877 7240,1928 7273,1928 7273,1953 7240,1953 7240,2066 Z"/>
       </g>
      </g>
      <g class="com.sun.star.drawing.ClosedBezierShape">
       <g id="id54">
        <path fill="rgb(0,0,0)" stroke="none" d="M 7288,2053 L 7318,2053 C 7319,2065 7324,2075 7332,2081 7339,2088 7351,2091 7365,2091 7378,2091 7389,2088 7396,2083 7404,2078 7408,2071 7408,2062 7408,2055 7406,2050 7402,2046 7398,2043 7391,2039 7380,2037 L 7345,2028 C 7326,2023 7312,2017 7304,2009 7297,2001 7293,1990 7293,1976 7293,1960 7299,1947 7312,1937 7324,1928 7341,1923 7362,1923 7384,1923 7402,1928 7415,1938 7428,1948 7434,1962 7434,1979 L 7434,1980 7404,1980 C 7403,1970 7399,1963 7392,1958 7385,1953 7375,1950 7362,1950 7350,1950 7340,1952 7334,1956 7327,1961 7324,1967 7324,1975 7324,1981 7326,1986 7330,1989 7334,1993 7342,1995 7353,1998 L 7383,2005 C 7404,2010 7419,2017 7427,2024 7435,2032 7439,2044 7439,2058 7439,2077 7432,2092 7419,2103 7405,2114 7386,2119 7362,2119 7338,2119 7320,2113 7308,2102 7295,2091 7288,2074 7288,2053 Z"/>
       </g>
      </g>
      <g class="com.sun.star.drawing.ClosedBezierShape">
       <g id="id55">
        <path fill="rgb(0,0,0)" stroke="none" d="M 7478,2186 L 7455,2186 C 7471,2158 7484,2131 7492,2104 7500,2077 7504,2049 7504,2022 7504,1994 7500,1966 7492,1939 7484,1912 7471,1885 7455,1857 L 7478,1857 C 7497,1883 7512,1910 7521,1937 7530,1963 7535,1992 7535,2022 7535,2051 7530,2080 7521,2106 7512,2133 7497,2160 7478,2186 Z"/>
       </g>
      </g>
     </g>
     <g class="Group">
      <g class="com.sun.star.drawing.ClosedBezierShape">
       <g id="id56">
        <path fill="rgb(0,204,255)" stroke="none" d="M 7900,4000 C 7790,4000 7700,3910 7700,3800 7700,3400 7700,3000 7700,2600 7700,2490 7790,2400 7900,2400 8563,2400 9225,2400 9888,2400 9998,2400 10088,2490 10088,2600 10088,3000 10088,3400 10088,3800 10088,3910 9998,4000 9888,4000 9225,4000 8563,4000 7900,4000 Z"/>
        <path fill="none" stroke="rgb(0,0,0)" stroke-width="20" stroke-linejoin="round" d="M 7900,4000 C 7790,4000 7700,3910 7700,3800 7700,3400 7700,3000 7700,2600 7700,2490 7790,2400 7900,2400 8563,2400 9225,2400 9888,2400 9998,2400 10088,2490 10088,2600 10088,3000 10088,3400 10088,3800 10088,3910 9998,4000 9888,4000 9225,4000 8563,4000 7900,4000 Z"/>
       </g>
      </g>
      <g class="com.sun.star.drawing.ClosedBezierShape">
       <g id="id57">
        <path fill="rgb(0,0,0)" stroke="none" d="M 8211,2875 C 8197,2891 8182,2903 8165,2910 8149,2918 8132,2922 8114,2922 8086,2922 8064,2915 8048,2900 8032,2885 8024,2865 8024,2839 8024,2814 8032,2794 8047,2780 8063,2765 8087,2756 8119,2752 8127,2751 8138,2750 8151,2748 8175,2746 8189,2744 8194,2741 8200,2739 8203,2736 8205,2733 8207,2730 8208,2722 8208,2711 8208,2697 8202,2686 8192,2679 8182,2672 8166,2668 8146,2668 8124,2668 8108,2672 8097,2681 8086,2689 8081,2702 8081,2719 L 8037,2719 8037,2717 C 8037,2689 8047,2667 8066,2651 8086,2635 8113,2627 8147,2627 8184,2627 8211,2634 8229,2648 8246,2661 8255,2683 8255,2712 L 8255,2851 C 8255,2863 8256,2871 8259,2874 8261,2877 8266,2879 8273,2879 8274,2879 8276,2879 8278,2879 8280,2878 8282,2878 8285,2877 L 8285,2914 C 8279,2915 8274,2917 8270,2917 8266,2918 8262,2918 8258,2918 8243,2918 8231,2915 8223,2908 8215,2901 8211,2891 8211,2877 L 8211,2875 Z M 8207,2773 C 8195,2780 8173,2785 8143,2789 8133,2790 8125,2791 8119,2792 8103,2795 8090,2800 8083,2807 8076,2814 8072,2825 8072,2838 8072,2852 8076,2863 8085,2870 8093,2877 8106,2881 8122,2881 8147,2881 8167,2875 8183,2862 8199,2850 8207,2833 8207,2814 L 8207,2773 Z"/>
       </g>
      </g>
      <g class="com.sun.star.drawing.ClosedBezierShape">
       <g id="id58">
        <path fill="rgb(0,0,0)" stroke="none" d="M 8329,2913 C 8329,2786 8329,2660 8329,2533 8345,2533 8360,2533 8376,2533 8376,2660 8376,2786 8376,2913 8360,2913 8345,2913 8329,2913 Z"/>
       </g>
      </g>
      <g class="com.sun.star.drawing.ClosedBezierShape">
       <g id="id59">
        <path fill="rgb(0,0,0)" stroke="none" d="M 8648,2986 C 8628,2960 8613,2933 8604,2906 8595,2879 8590,2851 8590,2822 8590,2792 8595,2764 8604,2737 8613,2710 8628,2683 8648,2657 L 8670,2657 C 8653,2685 8641,2712 8633,2739 8625,2766 8621,2794 8621,2822 8621,2849 8625,2877 8633,2904 8641,2931 8653,2958 8670,2986 L 8648,2986 Z"/>
       </g>
      </g>
      <g class="com.sun.star.drawing.ClosedBezierShape">
       <g id="id60">
        <path fill="rgb(0,0,0)" stroke="none" d="M 8720,2842 C 8720,2857 8724,2869 8733,2877 8742,2886 8755,2890 8770,2890 8786,2890 8798,2886 8807,2877 8816,2868 8821,2857 8821,2842 8821,2828 8816,2817 8807,2809 8798,2801 8786,2797 8770,2797 8755,2797 8742,2801 8733,2809 8724,2817 8720,2828 8720,2842 Z M 8727,2732 C 8727,2744 8731,2753 8739,2760 8747,2767 8757,2771 8770,2771 8783,2771 8793,2767 8801,2760 8809,2753 8813,2744 8813,2732 8813,2720 8809,2711 8802,2704 8794,2697 8784,2694 8770,2694 8757,2694 8746,2697 8738,2704 8731,2711 8727,2720 8727,2732 Z M 8726,2781 C 8715,2776 8707,2769 8702,2761 8697,2752 8694,2742 8694,2729 8694,2710 8701,2695 8715,2684 8729,2672 8747,2666 8770,2666 8793,2666 8812,2672 8826,2684 8840,2695 8847,2711 8847,2729 8847,2742 8844,2752 8839,2761 8833,2769 8825,2776 8814,2781 8828,2786 8838,2794 8845,2804 8852,2815 8855,2828 8855,2843 8855,2866 8847,2885 8832,2899 8817,2913 8796,2920 8770,2920 8744,2920 8724,2913 8709,2899 8694,2885 8686,2866 8686,2843 8686,2828 8689,2815 8696,2804 8703,2794 8713,2786 8726,2781 Z"/>
       </g>
      </g>
      <g class="com.sun.star.drawing.ClosedBezierShape">
       <g id="id61">
        <path fill="rgb(0,0,0)" stroke="none" d="M 9019,2819 C 9019,2842 9024,2860 9033,2872 9042,2885 9056,2891 9073,2891 9090,2891 9104,2885 9113,2873 9123,2861 9128,2844 9128,2823 9128,2800 9123,2782 9114,2769 9104,2756 9091,2750 9074,2750 9055,2750 9042,2756 9033,2767 9024,2779 9019,2796 9019,2819 Z M 8990,2913 L 8990,2659 9020,2659 9020,2754 C 9027,2743 9036,2735 9046,2730 9056,2725 9067,2722 9080,2722 9104,2722 9124,2731 9139,2749 9154,2767 9161,2791 9161,2821 9161,2851 9154,2875 9139,2892 9124,2910 9105,2919 9080,2919 9067,2919 9056,2917 9046,2912 9036,2907 9028,2900 9020,2890 L 9020,2913 8990,2913 Z"/>
       </g>
      </g>
      <g class="com.sun.star.drawing.ClosedBezierShape">
       <g id="id62">
        <path fill="rgb(0,0,0)" stroke="none" d="M 9197,2694 C 9197,2682 9197,2671 9197,2659 9207,2659 9218,2659 9228,2659 9228,2671 9228,2682 9228,2694 9218,2694 9207,2694 9197,2694 Z M 9197,2913 C 9197,2851 9197,2790 9197,2728 9207,2728 9218,2728 9228,2728 9228,2790 9228,2851 9228,2913 9218,2913 9207,2913 9197,2913 Z"/>
       </g>
      </g>
      <g class="com.sun.star.drawing.ClosedBezierShape">
       <g id="id63">
        <path fill="rgb(0,0,0)" stroke="none" d="M 9309,2866 C 9309,2875 9310,2880 9313,2883 9315,2886 9319,2887 9325,2887 9327,2887 9329,2887 9332,2887 9335,2887 9338,2886 9342,2886 L 9342,2912 C 9337,2913 9332,2914 9328,2914 9324,2915 9320,2915 9317,2915 9303,2915 9293,2912 9287,2907 9281,2901 9278,2891 9278,2877 L 9278,2753 9250,2753 9250,2728 9278,2728 9278,2677 9309,2677 9309,2728 9342,2728 9342,2753 9309,2753 9309,2866 Z"/>
       </g>
      </g>
      <g class="com.sun.star.drawing.ClosedBezierShape">
       <g id="id64">
        <path fill="rgb(0,0,0)" stroke="none" d="M 9358,2853 L 9388,2853 C 9389,2865 9394,2875 9402,2881 9409,2888 9421,2891 9435,2891 9448,2891 9459,2888 9466,2883 9474,2878 9478,2871 9478,2862 9478,2855 9476,2850 9472,2846 9468,2843 9461,2839 9450,2837 L 9415,2828 C 9396,2823 9382,2817 9374,2809 9367,2801 9363,2790 9363,2776 9363,2760 9369,2747 9382,2737 9394,2728 9411,2723 9432,2723 9454,2723 9472,2728 9485,2738 9498,2748 9504,2762 9504,2779 L 9504,2780 9474,2780 C 9473,2770 9469,2763 9462,2758 9455,2753 9445,2750 9432,2750 9420,2750 9410,2752 9404,2756 9397,2761 9394,2767 9394,2775 9394,2781 9396,2786 9400,2789 9404,2793 9412,2795 9423,2798 L 9453,2805 C 9474,2810 9489,2817 9497,2824 9505,2832 9509,2844 9509,2858 9509,2877 9502,2892 9489,2903 9475,2914 9456,2919 9432,2919 9408,2919 9390,2913 9378,2902 9365,2891 9358,2874 9358,2853 Z"/>
       </g>
      </g>
      <g class="com.sun.star.drawing.ClosedBezierShape">
       <g id="id65">
        <path fill="rgb(0,0,0)" stroke="none" d="M 9547,2986 L 9524,2986 C 9540,2958 9553,2931 9561,2904 9569,2877 9573,2849 9573,2822 9573,2794 9569,2766 9561,2739 9553,2712 9540,2685 9524,2657 L 9547,2657 C 9566,2683 9581,2710 9590,2737 9599,2763 9604,2792 9604,2822 9604,2851 9599,2880 9590,2906 9581,2933 9566,2960 9547,2986 Z"/>
       </g>
      </g>
     </g>
     <g class="Group">
      <g class="com.sun.star.drawing.ClosedBezierShape">
       <g id="id66">
        <path fill="rgb(102,255,255)" stroke="none" d="M 5500,4000 C 5390,4000 5300,3910 5300,3800 5300,3400 5300,3000 5300,2600 5300,2490 5390,2400 5500,2400 6163,2400 6825,2400 7488,2400 7598,2400 7688,2490 7688,2600 7688,3000 7688,3400 7688,3800 7688,3910 7598,4000 7488,4000 6825,4000 6163,4000 5500,4000 Z"/>
        <path fill="none" stroke="rgb(0,0,0)" stroke-width="20" stroke-linejoin="round" d="M 5500,4000 C 5390,4000 5300,3910 5300,3800 5300,3400 5300,3000 5300,2600 5300,2490 5390,2400 5500,2400 6163,2400 6825,2400 7488,2400 7598,2400 7688,2490 7688,2600 7688,3000 7688,3400 7688,3800 7688,3910 7598,4000 7488,4000 6825,4000 6163,4000 5500,4000 Z"/>
       </g>
      </g>
      <g class="com.sun.star.drawing.ClosedBezierShape">
       <g id="id67">
        <path fill="rgb(0,0,0)" stroke="none" d="M 5811,2875 C 5797,2891 5782,2903 5765,2910 5749,2918 5732,2922 5714,2922 5686,2922 5664,2915 5648,2900 5632,2885 5624,2865 5624,2839 5624,2814 5632,2794 5647,2780 5663,2765 5687,2756 5719,2752 5727,2751 5738,2750 5751,2748 5775,2746 5789,2744 5794,2741 5800,2739 5803,2736 5805,2733 5807,2730 5808,2722 5808,2711 5808,2697 5802,2686 5792,2679 5782,2672 5766,2668 5746,2668 5724,2668 5708,2672 5697,2681 5686,2689 5681,2702 5681,2719 L 5637,2719 5637,2717 C 5637,2689 5647,2667 5666,2651 5686,2635 5713,2627 5747,2627 5784,2627 5811,2634 5829,2648 5846,2661 5855,2683 5855,2712 L 5855,2851 C 5855,2863 5856,2871 5859,2874 5861,2877 5866,2879 5873,2879 5874,2879 5876,2879 5878,2879 5880,2878 5882,2878 5885,2877 L 5885,2914 C 5879,2915 5874,2917 5870,2917 5866,2918 5862,2918 5858,2918 5843,2918 5831,2915 5823,2908 5815,2901 5811,2891 5811,2877 L 5811,2875 Z M 5807,2773 C 5795,2780 5773,2785 5743,2789 5733,2790 5725,2791 5719,2792 5703,2795 5690,2800 5683,2807 5676,2814 5672,2825 5672,2838 5672,2852 5676,2863 5685,2870 5693,2877 5706,2881 5722,2881 5747,2881 5767,2875 5783,2862 5799,2850 5807,2833 5807,2814 L 5807,2773 Z"/>
       </g>
      </g>
      <g class="com.sun.star.drawing.ClosedBezierShape">
       <g id="id68">
        <path fill="rgb(0,0,0)" stroke="none" d="M 6112,2913 L 6112,2742 C 6112,2715 6108,2696 6099,2686 6091,2675 6077,2670 6056,2670 6031,2670 6011,2677 5996,2691 5981,2706 5974,2725 5974,2749 L 5974,2913 5928,2913 5928,2533 5974,2533 5974,2675 C 5982,2660 5994,2648 6009,2641 6024,2633 6041,2629 6061,2629 6082,2629 6099,2632 6114,2638 6128,2645 6139,2654 6147,2667 6151,2673 6154,2681 6156,2690 6158,2699 6159,2714 6159,2733 L 6159,2746 6159,2913 6112,2913 Z"/>
       </g>
      </g>
      <g class="com.sun.star.drawing.ClosedBezierShape">
       <g id="id69">
        <path fill="rgb(0,0,0)" stroke="none" d="M 6430,2986 C 6410,2960 6395,2933 6386,2906 6377,2879 6372,2851 6372,2822 6372,2792 6377,2764 6386,2737 6395,2710 6410,2683 6430,2657 L 6452,2657 C 6435,2685 6423,2712 6415,2739 6407,2766 6403,2794 6403,2822 6403,2849 6407,2877 6415,2904 6423,2931 6435,2958 6452,2986 L 6430,2986 Z"/>
       </g>
      </g>
      <g class="com.sun.star.drawing.ClosedBezierShape">
       <g id="id70">
        <path fill="rgb(0,0,0)" stroke="none" d="M 6502,2842 C 6502,2857 6506,2869 6515,2877 6524,2886 6537,2890 6552,2890 6568,2890 6580,2886 6589,2877 6598,2868 6603,2857 6603,2842 6603,2828 6598,2817 6589,2809 6580,2801 6568,2797 6552,2797 6537,2797 6524,2801 6515,2809 6506,2817 6502,2828 6502,2842 Z M 6509,2732 C 6509,2744 6513,2753 6521,2760 6529,2767 6539,2771 6552,2771 6565,2771 6575,2767 6583,2760 6591,2753 6595,2744 6595,2732 6595,2720 6591,2711 6584,2704 6576,2697 6566,2694 6552,2694 6539,2694 6528,2697 6520,2704 6513,2711 6509,2720 6509,2732 Z M 6508,2781 C 6497,2776 6489,2769 6484,2761 6479,2752 6476,2742 6476,2729 6476,2710 6483,2695 6497,2684 6511,2672 6529,2666 6552,2666 6575,2666 6594,2672 6608,2684 6622,2695 6629,2711 6629,2729 6629,2742 6626,2752 6621,2761 6615,2769 6607,2776 6596,2781 6610,2786 6620,2794 6627,2804 6634,2815 6637,2828 6637,2843 6637,2866 6629,2885 6614,2899 6599,2913 6578,2920 6552,2920 6526,2920 6506,2913 6491,2899 6476,2885 6468,2866 6468,2843 6468,2828 6471,2815 6478,2804 6485,2794 6495,2786 6508,2781 Z"/>
       </g>
      </g>
      <g class="com.sun.star.drawing.ClosedBezierShape">
       <g id="id71">
        <path fill="rgb(0,0,0)" stroke="none" d="M 6801,2819 C 6801,2842 6806,2860 6815,2872 6824,2885 6838,2891 6855,2891 6872,2891 6886,2885 6895,2873 6905,2861 6910,2844 6910,2823 6910,2800 6905,2782 6896,2769 6886,2756 6873,2750 6856,2750 6837,2750 6824,2756 6815,2767 6806,2779 6801,2796 6801,2819 Z M 6772,2913 L 6772,2659 6802,2659 6802,2754 C 6809,2743 6818,2735 6828,2730 6838,2725 6849,2722 6862,2722 6886,2722 6906,2731 6921,2749 6936,2767 6943,2791 6943,2821 6943,2851 6936,2875 6921,2892 6906,2910 6887,2919 6862,2919 6849,2919 6838,2917 6828,2912 6818,2907 6810,2900 6802,2890 L 6802,2913 6772,2913 Z"/>
       </g>
      </g>
      <g class="com.sun.star.drawing.ClosedBezierShape">
       <g id="id72">
        <path fill="rgb(0,0,0)" stroke="none" d="M 6979,2694 C 6979,2682 6979,2671 6979,2659 6989,2659 7000,2659 7010,2659 7010,2671 7010,2682 7010,2694 7000,2694 6989,2694 6979,2694 Z M 6979,2913 C 6979,2851 6979,2790 6979,2728 6989,2728 7000,2728 7010,2728 7010,2790 7010,2851 7010,2913 7000,2913 6989,2913 6979,2913 Z"/>
       </g>
      </g>
      <g class="com.sun.star.drawing.ClosedBezierShape">
       <g id="id73">
        <path fill="rgb(0,0,0)" stroke="none" d="M 7091,2866 C 7091,2875 7092,2880 7095,2883 7097,2886 7101,2887 7107,2887 7109,2887 7111,2887 7114,2887 7117,2887 7120,2886 7124,2886 L 7124,2912 C 7119,2913 7114,2914 7110,2914 7106,2915 7102,2915 7099,2915 7085,2915 7075,2912 7069,2907 7063,2901 7060,2891 7060,2877 L 7060,2753 7032,2753 7032,2728 7060,2728 7060,2677 7091,2677 7091,2728 7124,2728 7124,2753 7091,2753 7091,2866 Z"/>
       </g>
      </g>
      <g class="com.sun.star.drawing.ClosedBezierShape">
       <g id="id74">
        <path fill="rgb(0,0,0)" stroke="none" d="M 7140,2853 L 7170,2853 C 7171,2865 7176,2875 7184,2881 7191,2888 7203,2891 7217,2891 7230,2891 7241,2888 7248,2883 7256,2878 7260,2871 7260,2862 7260,2855 7258,2850 7254,2846 7250,2843 7243,2839 7232,2837 L 7197,2828 C 7178,2823 7164,2817 7156,2809 7149,2801 7145,2790 7145,2776 7145,2760 7151,2747 7164,2737 7176,2728 7193,2723 7214,2723 7236,2723 7254,2728 7267,2738 7280,2748 7286,2762 7286,2779 L 7286,2780 7256,2780 C 7255,2770 7251,2763 7244,2758 7237,2753 7227,2750 7214,2750 7202,2750 7192,2752 7186,2756 7179,2761 7176,2767 7176,2775 7176,2781 7178,2786 7182,2789 7186,2793 7194,2795 7205,2798 L 7235,2805 C 7256,2810 7271,2817 7279,2824 7287,2832 7291,2844 7291,2858 7291,2877 7284,2892 7271,2903 7257,2914 7238,2919 7214,2919 7190,2919 7172,2913 7160,2902 7147,2891 7140,2874 7140,2853 Z"/>
       </g>
      </g>
      <g class="com.sun.star.drawing.ClosedBezierShape">
       <g id="id75">
        <path fill="rgb(0,0,0)" stroke="none" d="M 7329,2986 L 7306,2986 C 7322,2958 7335,2931 7343,2904 7351,2877 7355,2849 7355,2822 7355,2794 7351,2766 7343,2739 7335,2712 7322,2685 7306,2657 L 7329,2657 C 7348,2683 7363,2710 7372,2737 7381,2763 7386,2792 7386,2822 7386,2851 7381,2880 7372,2906 7363,2933 7348,2960 7329,2986 Z"/>
       </g>
      </g>
     </g>
     <g class="com.sun.star.drawing.ClosedBezierShape">
      <g id="id76">
       <path fill="rgb(0,0,0)" stroke="none" d="M 939,3793 L 939,3531 853,3531 853,3494 C 884,3493 908,3487 923,3476 939,3465 948,3447 951,3423 L 987,3423 987,3793 939,3793 Z"/>
      </g>
     </g>
     <g class="com.sun.star.drawing.ClosedBezierShape">
      <g id="id77">
       <path fill="rgb(0,0,0)" stroke="none" d="M 1173,3613 C 1173,3665 1179,3702 1191,3725 1203,3749 1223,3760 1249,3760 1275,3760 1295,3749 1307,3726 1319,3702 1325,3665 1325,3613 1325,3562 1319,3524 1307,3501 1295,3477 1275,3465 1249,3465 1223,3465 1203,3477 1191,3501 1179,3525 1173,3562 1173,3613 Z M 1122,3613 C 1122,3551 1133,3504 1154,3471 1176,3439 1207,3423 1249,3423 1290,3423 1322,3439 1344,3471 1365,3503 1376,3551 1376,3613 1376,3676 1365,3723 1344,3755 1322,3787 1290,3803 1249,3804 1207,3803 1176,3787 1154,3755 1133,3723 1122,3676 1122,3613 Z"/>
      </g>
     </g>
     <g class="com.sun.star.drawing.ClosedBezierShape">
      <g id="id78">
       <path fill="rgb(0,0,0)" stroke="none" d="M 639,3793 L 639,3531 553,3531 553,3494 C 584,3493 608,3487 623,3476 639,3465 648,3447 651,3423 L 687,3423 687,3793 639,3793 Z"/>
      </g>
     </g>
     <g class="com.sun.star.drawing.ClosedBezierShape">
      <g id="id79">
       <path fill="rgb(0,0,0)" stroke="none" d="M 1539,3793 L 1539,3531 1453,3531 1453,3494 C 1484,3493 1508,3487 1523,3476 1539,3465 1548,3447 1551,3423 L 1587,3423 1587,3793 1539,3793 Z"/>
      </g>
     </g>
     <g class="com.sun.star.drawing.ClosedBezierShape">
      <g id="id80">
       <path fill="rgb(0,0,0)" stroke="none" d="M 2139,3793 L 2139,3531 2053,3531 2053,3494 C 2084,3493 2108,3487 2123,3476 2139,3465 2148,3447 2151,3423 L 2187,3423 2187,3793 2139,3793 Z"/>
      </g>
     </g>
     <g class="com.sun.star.drawing.ClosedBezierShape">
      <g id="id81">
       <path fill="rgb(0,0,0)" stroke="none" d="M 2439,3793 L 2439,3531 2353,3531 2353,3494 C 2384,3493 2408,3487 2423,3476 2439,3465 2448,3447 2451,3423 L 2487,3423 2487,3793 2439,3793 Z"/>
      </g>
     </g>
     <g class="com.sun.star.drawing.ClosedBezierShape">
      <g id="id82">
       <path fill="rgb(0,0,0)" stroke="none" d="M 1839,3793 L 1839,3531 1753,3531 1753,3494 C 1784,3493 1808,3487 1823,3476 1839,3465 1848,3447 1851,3423 L 1887,3423 1887,3793 1839,3793 Z"/>
      </g>
     </g>
     <g class="com.sun.star.drawing.ClosedBezierShape">
      <g id="id83">
       <path fill="rgb(0,0,0)" stroke="none" d="M 2673,3613 C 2673,3665 2679,3702 2691,3725 2703,3749 2723,3760 2749,3760 2775,3760 2795,3749 2807,3726 2819,3702 2825,3665 2825,3613 2825,3562 2819,3524 2807,3501 2795,3477 2775,3465 2749,3465 2723,3465 2703,3477 2691,3501 2679,3525 2673,3562 2673,3613 Z M 2622,3613 C 2622,3551 2633,3504 2654,3471 2676,3439 2707,3423 2749,3423 2790,3423 2822,3439 2844,3471 2865,3503 2876,3551 2876,3613 2876,3676 2865,3723 2844,3755 2822,3787 2790,3803 2749,3804 2707,3803 2676,3787 2654,3755 2633,3723 2622,3676 2622,3613 Z"/>
      </g>
     </g>
     <g class="com.sun.star.drawing.ClosedBezierShape">
      <g id="id84">
       <path fill="rgb(0,0,0)" stroke="none" d="M 3273,3613 C 3273,3665 3279,3702 3291,3725 3303,3749 3323,3760 3349,3760 3375,3760 3395,3749 3407,3726 3419,3702 3425,3665 3425,3613 3425,3562 3419,3524 3407,3501 3395,3477 3375,3465 3349,3465 3323,3465 3303,3477 3291,3501 3279,3525 3273,3562 3273,3613 Z M 3222,3613 C 3222,3551 3233,3504 3254,3471 3276,3439 3307,3423 3349,3423 3390,3423 3422,3439 3444,3471 3465,3503 3476,3551 3476,3613 3476,3676 3465,3723 3444,3755 3422,3787 3390,3803 3349,3804 3307,3803 3276,3787 3254,3755 3233,3723 3222,3676 3222,3613 Z"/>
      </g>
     </g>
     <g class="com.sun.star.drawing.ClosedBezierShape">
      <g id="id85">
       <path fill="rgb(0,0,0)" stroke="none" d="M 3639,3793 L 3639,3531 3553,3531 3553,3494 C 3584,3493 3608,3487 3623,3476 3639,3465 3648,3447 3651,3423 L 3687,3423 3687,3793 3639,3793 Z"/>
      </g>
     </g>
     <g class="com.sun.star.drawing.ClosedBezierShape">
      <g id="id86">
       <path fill="rgb(0,0,0)" stroke="none" d="M 3039,3793 L 3039,3531 2953,3531 2953,3494 C 2984,3493 3008,3487 3023,3476 3039,3465 3048,3447 3051,3423 L 3087,3423 3087,3793 3039,3793 Z"/>
      </g>
     </g>
     <g class="com.sun.star.drawing.ClosedBezierShape">
      <g id="id87">
       <path fill="rgb(0,0,0)" stroke="none" d="M 3873,3613 C 3873,3665 3879,3702 3891,3725 3903,3749 3923,3760 3949,3760 3975,3760 3995,3749 4007,3726 4019,3702 4025,3665 4025,3613 4025,3562 4019,3524 4007,3501 3995,3477 3975,3465 3949,3465 3923,3465 3903,3477 3891,3501 3879,3525 3873,3562 3873,3613 Z M 3822,3613 C 3822,3551 3833,3504 3854,3471 3876,3439 3907,3423 3949,3423 3990,3423 4022,3439 4044,3471 4065,3503 4076,3551 4076,3613 4076,3676 4065,3723 4044,3755 4022,3787 3990,3803 3949,3804 3907,3803 3876,3787 3854,3755 3833,3723 3822,3676 3822,3613 Z"/>
      </g>
     </g>
     <g class="com.sun.star.drawing.ClosedBezierShape">
      <g id="id88">
       <path fill="rgb(0,0,0)" stroke="none" d="M 4539,3793 L 4539,3531 4453,3531 4453,3494 C 4484,3493 4508,3487 4523,3476 4539,3465 4548,3447 4551,3423 L 4587,3423 4587,3793 4539,3793 Z"/>
      </g>
     </g>
     <g class="com.sun.star.drawing.ClosedBezierShape">
      <g id="id89">
       <path fill="rgb(0,0,0)" stroke="none" d="M 4773,3613 C 4773,3665 4779,3702 4791,3725 4803,3749 4823,3760 4849,3760 4875,3760 4895,3749 4907,3726 4919,3702 4925,3665 4925,3613 4925,3562 4919,3524 4907,3501 4895,3477 4875,3465 4849,3465 4823,3465 4803,3477 4791,3501 4779,3525 4773,3562 4773,3613 Z M 4722,3613 C 4722,3551 4733,3504 4754,3471 4776,3439 4807,3423 4849,3423 4890,3423 4922,3439 4944,3471 4965,3503 4976,3551 4976,3613 4976,3676 4965,3723 4944,3755 4922,3787 4890,3803 4849,3804 4807,3803 4776,3787 4754,3755 4733,3723 4722,3676 4722,3613 Z"/>
      </g>
     </g>
     <g class="com.sun.star.drawing.ClosedBezierShape">
      <g id="id90">
       <path fill="rgb(0,0,0)" stroke="none" d="M 4239,3793 L 4239,3531 4153,3531 4153,3494 C 4184,3493 4208,3487 4223,3476 4239,3465 4248,3447 4251,3423 L 4287,3423 4287,3793 4239,3793 Z"/>
      </g>
     </g>
     <g class="com.sun.star.drawing.ClosedBezierShape">
      <g id="id91">
       <path fill="rgb(0,0,0)" stroke="none" d="M 5139,3793 L 5139,3531 5053,3531 5053,3494 C 5084,3493 5108,3487 5123,3476 5139,3465 5148,3447 5151,3423 L 5187,3423 5187,3793 5139,3793 Z"/>
      </g>
     </g>
     <g class="com.sun.star.drawing.ClosedBezierShape">
      <g id="id92">
       <path fill="rgb(0,0,0)" stroke="none" d="M 5673,3613 C 5673,3665 5679,3702 5691,3725 5703,3749 5723,3760 5749,3760 5775,3760 5795,3749 5807,3726 5819,3702 5825,3665 5825,3613 5825,3562 5819,3524 5807,3501 5795,3477 5775,3465 5749,3465 5723,3465 5703,3477 5691,3501 5679,3525 5673,3562 5673,3613 Z M 5622,3613 C 5622,3551 5633,3504 5654,3471 5676,3439 5707,3423 5749,3423 5790,3423 5822,3439 5844,3471 5865,3503 5876,3551 5876,3613 5876,3676 5865,3723 5844,3755 5822,3787 5790,3803 5749,3804 5707,3803 5676,3787 5654,3755 5633,3723 5622,3676 5622,3613 Z"/>
      </g>
     </g>
     <g class="com.sun.star.drawing.ClosedBezierShape">
      <g id="id93">
       <path fill="rgb(0,0,0)" stroke="none" d="M 6039,3793 L 6039,3531 5953,3531 5953,3494 C 5984,3493 6008,3487 6023,3476 6039,3465 6048,3447 6051,3423 L 6087,3423 6087,3793 6039,3793 Z"/>
      </g>
     </g>
     <g class="com.sun.star.drawing.ClosedBezierShape">
      <g id="id94">
       <path fill="rgb(0,0,0)" stroke="none" d="M 5439,3793 L 5439,3531 5353,3531 5353,3494 C 5384,3493 5408,3487 5423,3476 5439,3465 5448,3447 5451,3423 L 5487,3423 5487,3793 5439,3793 Z"/>
      </g>
     </g>
     <g class="com.sun.star.drawing.ClosedBezierShape">
      <g id="id95">
       <path fill="rgb(0,0,0)" stroke="none" d="M 6339,3793 L 6339,3531 6253,3531 6253,3494 C 6284,3493 6308,3487 6323,3476 6339,3465 6348,3447 6351,3423 L 6387,3423 6387,3793 6339,3793 Z"/>
      </g>
     </g>
     <g class="com.sun.star.drawing.ClosedBezierShape">
      <g id="id96">
       <path fill="rgb(0,0,0)" stroke="none" d="M 6939,3793 L 6939,3531 6853,3531 6853,3494 C 6884,3493 6908,3487 6923,3476 6939,3465 6948,3447 6951,3423 L 6987,3423 6987,3793 6939,3793 Z"/>
      </g>
     </g>
     <g class="com.sun.star.drawing.ClosedBezierShape">
      <g id="id97">
       <path fill="rgb(0,0,0)" stroke="none" d="M 7239,3793 L 7239,3531 7153,3531 7153,3494 C 7184,3493 7208,3487 7223,3476 7239,3465 7248,3447 7251,3423 L 7287,3423 7287,3793 7239,3793 Z"/>
      </g>
     </g>
     <g class="com.sun.star.drawing.ClosedBezierShape">
      <g id="id98">
       <path fill="rgb(0,0,0)" stroke="none" d="M 6639,3793 L 6639,3531 6553,3531 6553,3494 C 6584,3493 6608,3487 6623,3476 6639,3465 6648,3447 6651,3423 L 6687,3423 6687,3793 6639,3793 Z"/>
      </g>
     </g>
     <g class="com.sun.star.drawing.ClosedBezierShape">
      <g id="id99">
       <path fill="rgb(0,0,0)" stroke="none" d="M 7473,3613 C 7473,3665 7479,3702 7491,3725 7503,3749 7523,3760 7549,3760 7575,3760 7595,3749 7607,3726 7619,3702 7625,3665 7625,3613 7625,3562 7619,3524 7607,3501 7595,3477 7575,3465 7549,3465 7523,3465 7503,3477 7491,3501 7479,3525 7473,3562 7473,3613 Z M 7422,3613 C 7422,3551 7433,3504 7454,3471 7476,3439 7507,3423 7549,3423 7590,3423 7622,3439 7644,3471 7665,3503 7676,3551 7676,3613 7676,3676 7665,3723 7644,3755 7622,3787 7590,3803 7549,3804 7507,3803 7476,3787 7454,3755 7433,3723 7422,3676 7422,3613 Z"/>
      </g>
     </g>
     <g class="com.sun.star.drawing.ClosedBezierShape">
      <g id="id100">
       <path fill="rgb(0,0,0)" stroke="none" d="M 8139,3793 L 8139,3531 8053,3531 8053,3494 C 8084,3493 8108,3487 8123,3476 8139,3465 8148,3447 8151,3423 L 8187,3423 8187,3793 8139,3793 Z"/>
      </g>
     </g>
     <g class="com.sun.star.drawing.ClosedBezierShape">
      <g id="id101">
       <path fill="rgb(0,0,0)" stroke="none" d="M 8439,3793 L 8439,3531 8353,3531 8353,3494 C 8384,3493 8408,3487 8423,3476 8439,3465 8448,3447 8451,3423 L 8487,3423 8487,3793 8439,3793 Z"/>
      </g>
     </g>
     <g class="com.sun.star.drawing.ClosedBezierShape">
      <g id="id102">
       <path fill="rgb(0,0,0)" stroke="none" d="M 7839,3793 L 7839,3531 7753,3531 7753,3494 C 7784,3493 7808,3487 7823,3476 7839,3465 7848,3447 7851,3423 L 7887,3423 7887,3793 7839,3793 Z"/>
      </g>
     </g>
     <g class="com.sun.star.drawing.ClosedBezierShape">
      <g id="id103">
       <path fill="rgb(0,0,0)" stroke="none" d="M 8673,3613 C 8673,3665 8679,3702 8691,3725 8703,3749 8723,3760 8749,3760 8775,3760 8795,3749 8807,3726 8819,3702 8825,3665 8825,3613 8825,3562 8819,3524 8807,3501 8795,3477 8775,3465 8749,3465 8723,3465 8703,3477 8691,3501 8679,3525 8673,3562 8673,3613 Z M 8622,3613 C 8622,3551 8633,3504 8654,3471 8676,3439 8707,3423 8749,3423 8790,3423 8822,3439 8844,3471 8865,3503 8876,3551 8876,3613 8876,3676 8865,3723 8844,3755 8822,3787 8790,3803 8749,3804 8707,3803 8676,3787 8654,3755 8633,3723 8622,3676 8622,3613 Z"/>
      </g>
     </g>
     <g class="com.sun.star.drawing.ClosedBezierShape">
      <g id="id104">
       <path fill="rgb(0,0,0)" stroke="none" d="M 9339,3793 L 9339,3531 9253,3531 9253,3494 C 9284,3493 9308,3487 9323,3476 9339,3465 9348,3447 9351,3423 L 9387,3423 9387,3793 9339,3793 Z"/>
      </g>
     </g>
     <g class="com.sun.star.drawing.ClosedBezierShape">
      <g id="id105">
       <path fill="rgb(0,0,0)" stroke="none" d="M 9639,3793 L 9639,3531 9553,3531 9553,3494 C 9584,3493 9608,3487 9623,3476 9639,3465 9648,3447 9651,3423 L 9687,3423 9687,3793 9639,3793 Z"/>
      </g>
     </g>
     <g class="com.sun.star.drawing.ClosedBezierShape">
      <g id="id106">
       <path fill="rgb(0,0,0)" stroke="none" d="M 9039,3793 L 9039,3531 8953,3531 8953,3494 C 8984,3493 9008,3487 9023,3476 9039,3465 9048,3447 9051,3423 L 9087,3423 9087,3793 9039,3793 Z"/>
      </g>
     </g>
     <g class="com.sun.star.drawing.ClosedBezierShape">
      <g id="id107">
       <path fill="rgb(0,0,0)" stroke="none" d="M 9939,3793 L 9939,3531 9853,3531 9853,3494 C 9884,3493 9908,3487 9923,3476 9939,3465 9948,3447 9951,3423 L 9987,3423 9987,3793 9939,3793 Z"/>
      </g>
     </g>
    </g>
   </g>
  </g>
 </g>
</svg>
