<svg xmlns="http://www.w3.org/2000/svg" xmlns:xlink="http://www.w3.org/1999/xlink" version="1.1" baseProfile="full" viewBox="0 0 200 200" width="200" height="200">
<g fill="black">
<path d="M 147.7 115.4 L 147.8 119.0 L 144.33259229660035 117.49527587890626 L 138.7 121.0 L 134.1 123.8 L 129.5 126.5 L 120.1 131.7 L 115.4 134.2 L 110.5 136.6 L 105.5 138.7 L 101.53333330154419 140.2555555343628 L 106.0 141.0 L 109.0 143.0 L 106.0 144.8 L 106.0 182.0 L 94.0 188.0 L 94.0 139.0 L 99.9777777671814 139.9962963104248 L 99.5 139.2 L 103.5 135.5 L 107.6 132.0 L 111.8 128.7 L 116.0 125.3 L 120.1 122.1 L 124.3 118.8 L 128.4 115.5 L 132.5 112.3 L 136.6 109.0 L 139.8303505897522 106.33496074676513 L 139.8 106.3 L 140.6 105.7 Z M 80.7 132.1 L 77.8 129.4 L 74.5 126.8 L 70.9 124.1 L 66.9 121.5 L 62.6 119.0 L 57.9 116.4 L 53.0 113.8 L 47.6 111.1 L 48.2 109.4 L 54.1 110.3 L 59.8 111.5 L 65.2 113.0 L 70.2 114.8 L 75.0 116.8 L 79.5 119.0 L 83.6 121.4 L 87.5 123.9 L 91.2 126.7 L 94.5 129.7 L 95.9 134.1 L 93.9 138.2 L 89.6 139.6 L 85.5 137.7 L 83.2 134.9 Z M 158.8 109.6 L 150.1 105.5 L 141.7 101.0 L 133.6 96.1 L 125.7 90.7 L 118.2 85.0 L 111.0 78.8 L 104.3 72.1 L 102.20968961715698 69.63882808685302 L 98.4 73.5 L 90.6 80.6 L 82.3 87.2 L 73.5 93.3 L 64.3 99.0 L 54.6 104.2 L 44.5 108.9 L 33.9 113.1 L 22.8 116.7 L 11.2 119.7 L 10.7 118.0 L 21.4 113.2 L 31.7 108.2 L 41.6 103.0 L 50.9 97.6 L 59.8 91.8 L 68.1 85.7 L 76.0 79.3 L 83.4 72.6 L 90.3 65.5 L 94.69189186096192 60.5 L 44.0 60.5 L 44.0 72.5 L 32.0 78.5 L 32.0 24.6 L 44.0 26.6 L 47.0 28.6 L 44.0 30.4 L 44.0 56.5 L 94.0 56.5 L 94.0 12.7 L 106.0 14.7 L 109.0 16.7 L 106.0 18.5 L 106.0 56.5 L 155.0 56.5 L 155.0 24.6 L 167.0 26.6 L 170.0 28.6 L 167.0 30.4 L 167.0 66.5 L 155.0 72.5 L 155.0 60.5 L 100.03493976593018 60.5 L 105.8 66.0 L 106.53549880981446 68.57424592971802 L 107.0 68.9 L 114.7 74.1 L 122.4 79.1 L 130.2 83.7 L 138.2 88.0 L 146.4 91.9 L 154.7 95.4 L 163.2 98.6 L 171.9 101.5 L 180.8 104.0 L 188.8 106.3 L 177.1 116.6 L 167.8 113.3 Z M 93.3 110.7 L 91.1 108.2 L 89.8 105.4 L 89.5 102.5 L 89.8 99.5 L 91.1 96.7 L 93.3 94.2 L 96.4 92.5 L 100.0 92.0 L 103.5 92.5 L 106.6 94.2 L 108.8 96.7 L 110.1 99.5 L 110.5 102.5 L 110.1 105.4 L 108.8 108.2 L 106.6 110.7 L 103.5 112.4 L 100.0 113.0 L 96.4 112.4 Z " />
</g>
</svg>
