<svg class="vector" width="300px" height="300px" xmlns="http://www.w3.org/2000/svg" baseProfile="full" version="1.1" style="width: 300px; height: 300px; stroke: rgb(0, 0, 0); stroke-width: 10px; fill: none; stroke-linecap: square;"><path d="M60,240 l0,-180 l180,0 l0,180 l-90,0 l0,-90 l90,0 M240,225 a15,15 0 0,0 15,15 l-30,0M150,240 l-15,0 a15,-15 0 0,0 15,-15 a15,15 0 0,0 15,15 M225,240 a15,-15 0 0,0 15,-15 M60,225 a15,15 0 0,0 15,15 l-30,0 a15,-15 0 0,0 15,-15 M60,75 a-15,-15 0 0,0 -15,-15 l30,0 a-15,15 0 0,0 -15,15 M240,60 l15,0 a-15,15 0 0,0 -15,15 a-15,-15 0 0,0 -15,-15 M150,165 a-15,-15 0 0,0 -15,-15 l30,0 a-15,15 0 0,0 -15,15 "></path></svg>