<svg class="vector" width="300px" height="300px" xmlns="http://www.w3.org/2000/svg" baseProfile="full" version="1.1" style="width: 300px; height: 300px; stroke: rgb(0, 0, 0); stroke-width: 28px; fill: none; stroke-linecap: butt;">
  <path d="M240,150 a-90,90 0 0,1 -90,90 a-90,-90 0 0,1 -90,-90 a90,-90 0 0,1 90,-90 a90,90 0 0,1 90,90 M150,90 a60,60 0 0,1 60,60 a-60,60 0 0,1 -60,60 a-60,-60 0 0,1 -60,-60 a60,-60 0 0,1 60,-60 M150,120 a30,30 0 0,1 30,30 a-30,30 0 0,1 -30,30 a-30,-30 0 0,1 -30,-30 a30,-30 0 0,1 30,-30 "></path>
</svg>
