<svg class="vector" width="200px" height="200px" xmlns="http://www.w3.org/2000/svg" baseProfile="full" version="1.1" style="width: 200px;height: 200px;stroke: rgb(0, 0, 0);stroke-width: 1px;fill: none;stroke-linecap: round;">

    <circle cx="100" cy="100" r="30" stroke-dasharray="1,2"></circle>

    <circle cx="48"  cy="130" r="30"></circle>
    <circle cx="152" cy="130" r="30"></circle>
    <circle cx="100" cy="40"  r="30"></circle>
    <circle cx="48" cy="130" r="2" fill="black"></circle>
    <circle cx="152" cy="130" r="2" fill="black"></circle>
    <circle cx="100" cy="40" r="2" fill="black"></circle>
    <circle cx="100" cy="100" r="60"></circle>
    <circle cx="100" cy="100" r="90" stroke-dasharray="1,2"></circle>

    <circle cx="48"  cy="70" r="30"></circle>
    <circle cx="152" cy="70" r="30"></circle>
    <circle cx="100" cy="160"  r="30"></circle>
    <circle cx="48" cy="70" r="2" fill="black"></circle>
    <circle cx="152" cy="70" r="2" fill="black"></circle>
    <circle cx="100" cy="160" r="2" fill="black"></circle>

    <text text-anchor="right" x="30" y="132" fill="black" font-family="DIN" font-weight="normal" stroke="none" font-size="5">--</text>
    <text text-anchor="middle" x="100" y="170" fill="black" font-family="DIN" font-weight="normal" stroke="none" font-size="5">RONIN</text>
    <text text-anchor="left" x="158" y="132" fill="black" font-family="DIN" font-weight="normal" stroke="none" font-size="5">LIETAL</text>

    <text text-anchor="right" x="30" y="71" fill="black" font-family="DIN" font-weight="normal" stroke="none" font-size="5">--</text>
    <text text-anchor="middle" x="100" y="35" fill="black" font-family="DIN" font-weight="normal" stroke="none" font-size="5">MARABU</text>
    <text text-anchor="left" x="158" y="71" fill="black" font-family="DIN" font-weight="normal" stroke="none" font-size="5">--</text>

    <text text-anchor="middle" x="100" y="199" fill="black" font-family="DIN" font-weight="normal" stroke="none" font-size="5">HORAIRE</text>
    <text text-anchor="middle" x="100" y="102.5" fill="black" font-family="DIN" font-weight="normal" stroke="none" font-size="5">NATANIEV</text>
</svg>