<svg version="1.1" baseProfile="full" xmlns="http://www.w3.org/2000/svg" width="700">
  <!-- HOR GUIDES -->
  <line x1="0" y1="15" x2="630" y2="15"  style="stroke:#fff;stroke-width:1"></line>
  <line x1="0" y1="30" x2="630" y2="30"  style="stroke:#fff;stroke-width:1"></line>
  <line x1="0" y1="45" x2="630" y2="45"  style="stroke:#fff;stroke-width:1"></line>
  <line x1="0" y1="60" x2="630" y2="60"  style="stroke:#fff;stroke-width:1"></line>
  <line x1="0" y1="75" x2="630" y2="75"  style="stroke:#fff;stroke-width:1"></line>
  <!-- VER GUIDES -->
  <line x1="30" y1="0" x2="30" y2="90"   style="stroke:#fff;stroke-width:1"></line>
  <line x1="60" y1="0" x2="60" y2="90"   style="stroke:#fff;stroke-width:1"></line>
  <line x1="90" y1="0" x2="90" y2="90"   style="stroke:#fff;stroke-width:1"></line>
  <line x1="120" y1="0" x2="120" y2="90" style="stroke:#fff;stroke-width:1"></line>
  <line x1="150" y1="0" x2="150" y2="90" style="stroke:#fff;stroke-width:1"></line>
  <line x1="180" y1="0" x2="180" y2="90" style="stroke:#fff;stroke-width:1"></line>
  <line x1="210" y1="0" x2="210" y2="90" style="stroke:#fff;stroke-width:1"></line>
  <line x1="240" y1="0" x2="240" y2="90" style="stroke:#fff;stroke-width:1"></line>
  <line x1="270" y1="0" x2="270" y2="90" style="stroke:#fff;stroke-width:1"></line>
  <line x1="300" y1="0" x2="300" y2="90" style="stroke:#fff;stroke-width:1"></line>
  <line x1="330" y1="0" x2="330" y2="90" style="stroke:#fff;stroke-width:1"></line>
  <line x1="360" y1="0" x2="360" y2="90" style="stroke:#fff;stroke-width:1"></line>
  <line x1="390" y1="0" x2="390" y2="90" style="stroke:#fff;stroke-width:1"></line>
  <line x1="420" y1="0" x2="420" y2="90" style="stroke:#fff;stroke-width:1"></line>
  <line x1="450" y1="0" x2="450" y2="90" style="stroke:#fff;stroke-width:1"></line>
  <line x1="480" y1="0" x2="480" y2="90" style="stroke:#fff;stroke-width:1"></line>
  <line x1="510" y1="0" x2="510" y2="90" style="stroke:#fff;stroke-width:1"></line>
  <line x1="540" y1="0" x2="540" y2="90" style="stroke:#fff;stroke-width:1"></line>
  <line x1="570" y1="0" x2="570" y2="90" style="stroke:#fff;stroke-width:1"></line>
  <line x1="600" y1="0" x2="600" y2="90" style="stroke:#fff;stroke-width:1"></line>
  <!-- 0 -->
  <text x="0" y="120" font-family="monospace" font-size="12px" fill="black">0</text>
  <line x1="30" y1="0" x2="30" y2="90"   style="stroke:#000;stroke-width:2"></line>
  <!-- 1 -->
  <text x="60" y="120" font-family="monospace" font-size="12px" fill="black">1</text>
  <line x1="90" y1="0" x2="90" y2="90"   style="stroke:#000;stroke-width:2"></line>
  <line x1="75" y1="45" x2="105" y2="45"   style="stroke:#000;stroke-width:2"></line> <!-- dash -->
  <circle cx="90" cy="45" r="3" fill="black"/> <!-- JUNC -->
  <!-- 2 -->
  <text x="120" y="120" font-family="monospace" font-size="12px" fill="black">2</text>
  <line x1="150" y1="0" x2="150" y2="90"   style="stroke:#000;stroke-width:2"></line>
  <rect x="135" y="15" rx="10" ry="10" width="30" height="60" style="fill:none;stroke:black;stroke-width:2" />
  <circle cx="150" cy="15" r="3" fill="black"/> <!-- JUNC -->
  <circle cx="150" cy="75" r="3" fill="black"/> <!-- JUNC -->
  <!-- 3 -->
  <text x="180" y="120" font-family="monospace" font-size="12px" fill="black">3</text>
  <line x1="210" y1="0" x2="210" y2="90"   style="stroke:#000;stroke-width:2"></line>
  <line x1="195" y1="75" x2="225" y2="75"   style="stroke:#000;stroke-width:2"></line> <!-- dash -->
  <rect x="195" y="15" rx="15" ry="10" width="30" height="45" style="fill:none;stroke:black;stroke-width:2" />
  <circle cx="210" cy="15" r="3" fill="black"/> <!-- JUNC -->
  <circle cx="210" cy="60" r="3" fill="black"/> <!-- JUNC -->
  <circle cx="210" cy="75" r="3" fill="black"/> <!-- JUNC -->
  <!-- 4 -->
  <text x="240" y="120" font-family="monospace" font-size="12px" fill="black">4</text>
  <line x1="270" y1="0" x2="270" y2="90"   style="stroke:#000;stroke-width:2"></line>
  <line x1="255" y1="60" x2="285" y2="60"   style="stroke:#000;stroke-width:2"></line> <!-- dash -->
  <line x1="255" y1="75" x2="285" y2="75"   style="stroke:#000;stroke-width:2"></line> <!-- dash -->
  <rect x="255" y="15" rx="15" ry="10" width="30" height="30" style="fill:none;stroke:black;stroke-width:2" />
  <circle cx="270" cy="15" r="3" fill="black"/> <!-- JUNC -->
  <circle cx="270" cy="45" r="3" fill="black"/> <!-- JUNC -->
  <circle cx="270" cy="60" r="3" fill="black"/> <!-- JUNC -->
  <circle cx="270" cy="75" r="3" fill="black"/> <!-- JUNC -->
  <!-- 5 -->
  <text x="300" y="120" font-family="monospace" font-size="12px" fill="black">5</text>
  <line x1="330" y1="0" x2="330" y2="90"   style="stroke:#000;stroke-width:2"></line>
  <line x1="315" y1="45" x2="345" y2="45"   style="stroke:#000;stroke-width:2"></line> <!-- dash -->
  <rect x="315" y="15" rx="15" ry="10" width="30" height="60" style="fill:none;stroke:black;stroke-width:2" />
  <circle cx="330" cy="15" r="3" fill="black"/> <!-- JUNC -->
  <circle cx="330" cy="45" r="3" fill="black"/> <!-- JUNC -->
  <circle cx="330" cy="75" r="3" fill="black"/> <!-- JUNC -->
  <circle cx="315" cy="45" r="3" fill="black"/> <!-- JUNC -->
  <circle cx="345" cy="45" r="3" fill="black"/> <!-- JUNC -->
  <!-- 6 -->
  <text x="360" y="120" font-family="monospace" font-size="12px" fill="black">6</text>
  <line x1="390" y1="0" x2="390" y2="90"   style="stroke:#000;stroke-width:2"></line>
  <rect x="375" y="15" rx="15" ry="10" width="30" height="45" style="fill:none;stroke:black;stroke-width:2" />
  <rect x="375" y="30" rx="15" ry="10" width="30" height="45" style="fill:none;stroke:black;stroke-width:2" />
  <circle cx="390" cy="15" r="3" fill="black"/> <!-- JUNC -->
  <circle cx="390" cy="30" r="3" fill="black"/> <!-- JUNC -->
  <circle cx="390" cy="60" r="3" fill="black"/> <!-- JUNC -->
  <circle cx="390" cy="75" r="3" fill="black"/> <!-- JUNC -->
  <circle cx="375" cy="45" r="3" fill="black"/> <!-- JUNC -->
  <circle cx="405" cy="45" r="3" fill="black"/> <!-- JUNC -->
  <!-- 7 -->
  <text x="420" y="120" font-family="monospace" font-size="12px" fill="black">7</text>
  <line x1="450" y1="0" x2="450" y2="90"   style="stroke:#000;stroke-width:2"></line>
  <rect x="435" y="15" rx="15" ry="10" width="30" height="30" style="fill:none;stroke:black;stroke-width:2" />
  <line x1="435" y1="30" x2="465" y2="30"   style="stroke:#000;stroke-width:2"></line> <!-- dash -->
  <line x1="435" y1="60" x2="465" y2="60"   style="stroke:#000;stroke-width:2"></line> <!-- dash -->
  <line x1="435" y1="75" x2="465" y2="75"   style="stroke:#000;stroke-width:2"></line> <!-- dash -->
  <circle cx="450" cy="15" r="3" fill="black"/> <!-- JUNC -->
  <circle cx="450" cy="45" r="3" fill="black"/> <!-- JUNC -->
  <circle cx="450" cy="60" r="3" fill="black"/> <!-- JUNC -->
  <circle cx="450" cy="75" r="3" fill="black"/> <!-- JUNC -->
  <circle cx="435" cy="30" r="3" fill="black"/> <!-- JUNC -->
  <circle cx="465" cy="30" r="3" fill="black"/> <!-- JUNC -->
  <circle cx="450" cy="30" r="3" fill="black"/> <!-- JUNC -->
  <!-- 8 -->
  <text x="480" y="120" font-family="monospace" font-size="12px" fill="black">8</text>
  <line x1="510" y1="0" x2="510" y2="90"   style="stroke:#000;stroke-width:2"></line>
  <rect x="495" y="15" rx="15" ry="10" width="30" height="60" style="fill:none;stroke:black;stroke-width:2" />
  <line x1="495" y1="30" x2="525" y2="30"   style="stroke:#000;stroke-width:2"></line> <!-- dash -->
  <line x1="495" y1="60" x2="525" y2="60"   style="stroke:#000;stroke-width:2"></line> <!-- dash -->
  <circle cx="510" cy="15" r="3" fill="black"/> <!-- JUNC -->
  <circle cx="510" cy="30" r="3" fill="black"/> <!-- JUNC -->
  <circle cx="510" cy="60" r="3" fill="black"/> <!-- JUNC -->
  <circle cx="510" cy="75" r="3" fill="black"/> <!-- JUNC -->
  <circle cx="525" cy="30" r="3" fill="black"/> <!-- JUNC -->
  <circle cx="525" cy="60" r="3" fill="black"/> <!-- JUNC -->
  <circle cx="495" cy="30" r="3" fill="black"/> <!-- JUNC -->
  <circle cx="495" cy="60" r="3" fill="black"/> <!-- JUNC -->
  <!-- 9 -->
  <text x="540" y="120" font-family="monospace" font-size="12px" fill="black">9</text>
  <line x1="570" y1="0" x2="570" y2="90"   style="stroke:#000;stroke-width:2"></line>
  <line x1="555" y1="30" x2="585" y2="30"   style="stroke:#000;stroke-width:2"></line> <!-- dash -->
  <rect x="555" y="15" rx="15" ry="10" width="30" height="30" style="fill:none;stroke:black;stroke-width:2" />
  <line x1="555" y1="60" x2="585" y2="60"   style="stroke:#000;stroke-width:2"></line> <!-- dash -->
  <rect x="555" y="45" rx="15" ry="10" width="30" height="30" style="fill:none;stroke:black;stroke-width:2" />
  <circle cx="570" cy="15" r="3" fill="black"/> <!-- JUNC -->
  <circle cx="570" cy="45" r="3" fill="black"/> <!-- JUNC -->
  <circle cx="570" cy="60" r="3" fill="black"/> <!-- JUNC -->
  <circle cx="570" cy="75" r="3" fill="black"/> <!-- JUNC -->
  <circle cx="570" cy="30" r="3" fill="black"/> <!-- JUNC -->
  <circle cx="585" cy="60" r="3" fill="black"/> <!-- JUNC -->
  <circle cx="585" cy="30" r="3" fill="black"/> <!-- JUNC -->
  <circle cx="555" cy="60" r="3" fill="black"/> <!-- JUNC -->
  <circle cx="555" cy="30" r="3" fill="black"/> <!-- JUNC -->
</svg>
