<svg class="vector fh" width="600px" height="300px" xmlns="http://www.w3.org/2000/svg" baseProfile="full" version="1.1" style="width: 800px; height: 800px; stroke: rgb(0, 0, 0); stroke-width: 7.5; fill: none; stroke-linecap: square; font-weight:bold">
  <!-- GUIDES -->

  <g transform="translate(0,-75)">
    
    <line x1='15' y1='135' x2='330' y2='135' stroke-width='1' stroke-dasharray='4,2' stroke='#ccc'/>
    <line x1='15' y1='120' x2='330' y2='120' stroke-width='1' stroke-dasharray='0' stroke='#ccc'/>
    <line x1='15' y1='105' x2='330' y2='105' stroke-width='1' stroke-dasharray='4,2' stroke='#ccc'/>
    
  </g>

  <g transform="translate(0)">
    
    <line x1='15' y1='135' x2='330' y2='135' stroke-width='1' stroke-dasharray='4,2' stroke='#ccc'/>
    <line x1='15' y1='120' x2='330' y2='120' stroke-width='1' stroke-dasharray='0' stroke='#ccc'/>
    <line x1='15' y1='105' x2='330' y2='105' stroke-width='1' stroke-dasharray='4,2' stroke='#ccc'/>
    
  </g>

  <g transform="translate(0,75)">
    
    <line x1='15' y1='135' x2='330' y2='135' stroke-width='1' stroke-dasharray='4,2' stroke='#ccc'/>
    <line x1='15' y1='120' x2='330' y2='120' stroke-width='1' stroke-dasharray='0' stroke='#ccc'/>
    <line x1='15' y1='105' x2='330' y2='105' stroke-width='1' stroke-dasharray='4,2' stroke='#ccc'/>
    
  </g>

  <g transform="translate(0,150)">
    
    <line x1='15' y1='135' x2='330' y2='135' stroke-width='1' stroke-dasharray='4,2' stroke='#ccc'/>
    <line x1='15' y1='120' x2='330' y2='120' stroke-width='1' stroke-dasharray='0' stroke='#ccc'/>
    <line x1='15' y1='105' x2='330' y2='105' stroke-width='1' stroke-dasharray='4,2' stroke='#ccc'/>
    
  </g>

  <!-- A -->
  <g transform="scale(0.25)"><text x="60" y="65" font-family="Arial" font-size="30" stroke-width='0' fill='black'>A</text><path d="M60,180 L90,180  A60,-60 0 0,0 150,120  M150,240 L150,120  M210,180 A-60,60 0 0,0 150,240  M210,180 L240,180"></path></g>
  <!-- B -->
  <g transform="scale(0.25) translate(180,0)"><text x="60" y="65" font-family="Arial" font-size="30" stroke-width='0' fill='black'>B</text><path d="M60,180 L180,180  A30,30 0 0,1 210,210 A-30,30 0 0,1 180,240  A-30,-30 0 0,1 150,210  L150,60"></path></g>
  <!-- C -->
  <g transform="scale(0.25) translate(360,0)"><text x="60" y="65" font-family="Arial" font-size="30" stroke-width='0' fill='black'>C</text><path d="M60,180 L90,180  Q150,180 150,120  M180,180 L240,180"></path></g>
  <!-- D -->
  <g transform="scale(0.25) translate(540,0)"><text x="60" y="65" font-family="Arial" font-size="30" stroke-width='0' fill='black'>D</text><path d="M60,180 L120,180  M150,60 L150,210  A-30,30 0 0,1 120,240 A-30,-30 0 0,1 90,210  A30,-30 0 0,1 120,180  M180,180 L240,180"></path></g>
  <!-- E -->
  <g transform="scale(0.25) translate(720,0)"><text x="60" y="65" font-family="Arial" font-size="30" stroke-width='0' fill='black'>E</text><path d="M60,180 L150,180  A30,-30 0 0,0 180,150 A-30,-30 0 0,0 150,120  A-30,30 0 0,0 120,150 A30,30 0 0,0 150,180  L240,180"></path></g>
  <!-- F -->
  <g transform="scale(0.25) translate(900,0)"><text x="60" y="65" font-family="Arial" font-size="30" stroke-width='0' fill='black'>F</text><path d="M60,180 L150,180  A0,-90 0 0,1 150,90 A30,-30 0 0,1 180,60  M180,180 L240,180"></path></g>
  <!-- G -->
  <g transform="scale(0.25) translate(1080,0)"><text x="60" y="65" font-family="Arial" font-size="30" stroke-width='0' fill='black'>G</text><path d="M60,180 L150,180  M180,180 L240,180  M150,180 A0,90 0 0,0 150,270 A30,30 0 0,0 180,300"></path></g>

  <!-- H -->
  <g transform="scale(0.25) translate(0,300)"><text x="60" y="65" font-family="Arial" font-size="30" stroke-width='0' fill='black'>H</text><path d="M60,180 L240,180"></path></g>
  <!-- I -->
  <g transform="scale(0.25) translate(180,300)"><text x="60" y="65" font-family="Arial" font-size="30" stroke-width='0' fill='black'>I</text><path d="M60,180 L90,180  Q150,180 150,120  Q150,180 210,180  L240,180"></path></g>
  <!-- J -->
  <g transform="scale(0.25) translate(360,300)"><text x="60" y="65" font-family="Arial" font-size="30" stroke-width='0' fill='black'>J</text><path d="M60,180 L150,180  L150,270  A-30,30 0 0,1 120,300 M180,180 L240,180"></path></g>
  <!-- K -->
  <g transform="scale(0.25) translate(540,300)"><text x="60" y="65" font-family="Arial" font-size="30" stroke-width='0' fill='black'>K</text><path d="M60,180 L240,180  M150,60 L150,300"></path></g>
  <!-- L -->
  <g transform="scale(0.25) translate(720,300)"><text x="60" y="65" font-family="Arial" font-size="30" stroke-width='0' fill='black'>L</text><path d="M60,180 L150,180  M180,180 L240,180  M150,180 A0,-90 0 0,0 150,90 A-30,-30 0 0,0 120,60"></path></g>
  <!-- M -->
  <g transform="scale(0.25) translate(900,300)"><text x="60" y="65" font-family="Arial" font-size="30" stroke-width='0' fill='black'>M</text><path d="M60,180 L150,180  M120,120 A30,30 0 0,1 150,150  L150,180  M180,120 A30,30 0 0,1 210,150  L210,180  M240,180 L210,180  M180,120 A-30,30 0 0,0 150,150 "></path></g>
  <!-- N -->
  <g transform="scale(0.25) translate(1080,300)"><text x="60" y="65" font-family="Arial" font-size="30" stroke-width='0' fill='black'>N</text><path d="M60,180 L150,180  M180,180 L240,180  M120,120 A30,30 0 0,1 150,150 A0,30 0 0,1 150,180"></path></g>

  <!-- O -->
  <g transform="scale(0.25) translate(0,600)"><text x="60" y="65" font-family="Arial" font-size="30" stroke-width='0' fill='black'>O</text><path d="M60,180 L150,180  A30,30 0 0,1 180,210 A-30,30 0 0,1 150,240  A-30,-30 0 0,1 120,210 A30,-30 0 0,1 150,180  L240,180"></path></g>
  <!-- P -->
  <g transform="scale(0.25) translate(180,600)"><text x="60" y="65" font-family="Arial" font-size="30" stroke-width='0' fill='black'>P</text><path d="M60,180 L150,180  A30,-30 0 0,0 180,150 A-30,-30 0 0,0 150,120  A-30,30 0 0,0 120,150  L120,300  M150,180 L240,180"></path></g>
  <!-- Q -->
  <g transform="scale(0.25) translate(360,600)"><text x="60" y="65" font-family="Arial" font-size="30" stroke-width='0' fill='black'>Q</text><path d="M60,180 L150,180  A-30,-30 0 0,1 120,150 A30,-30 0 0,1 150,120  A30,30 0 0,1 180,150  L180,300  M210,180 L240,180"></path></g>
  <!-- R -->
  <g transform="scale(0.25) translate(540,600)"><text x="60" y="65" font-family="Arial" font-size="30" stroke-width='0' fill='black'>R</text><path d="M60,180 L150,180  M180,120 A-30,30 0 0,0 150,150  L150,180  M180,180 L240,180"></path></g>
  <!-- S -->
  <g transform="scale(0.25) translate(720,600)"><text x="60" y="65" font-family="Arial" font-size="30" stroke-width='0' fill='black'>S</text><path d="M60,180 L90,180  Q150,180 150,240  M180,180 L240,180"></path></g>
  <!-- T -->
  <g transform="scale(0.25) translate(900,600)"><text x="60" y="65" font-family="Arial" font-size="30" stroke-width='0' fill='black'>T</text><path d="M60,180 L120,180  A30,-30 0 0,0 150,150  L150,60  M180,180 L240,180"></path></g>
  <!-- U -->
  <g transform="scale(0.25) translate(1080,600)"><text x="60" y="65" font-family="Arial" font-size="30" stroke-width='0' fill='black'>U</text><path d="M60,180 L90,180  Q150,180 150,240  Q150,180 210,180  L240,180"></path></g>

  <!-- V -->
  <g transform="scale(0.25) translate(0,900)"><text x="60" y="65" font-family="Arial" font-size="30" stroke-width='0' fill='black'>V</text><path d="M60,180 L150,180  A0,30 0 0,1 150,210 A-30,30 0 0,1 120,240  M180,180 L240,180"></path></g>
  <!-- W -->
  <g transform="scale(0.25) translate(180,900)"><text x="60" y="65" font-family="Arial" font-size="30" stroke-width='0' fill='black'>W</text><path d="M60,180 L150,180  A0,30 0 0,1 150,210 A-30,30 0 0,1 120,240  M210,180 A0,30 0 0,1 210,210 A-30,30 0 0,1 180,240  A-30,-30 0 0,1 150,210  M210,180 L240,180"></path></g>
  <!-- X -->
  <g transform="scale(0.25) translate(360,900)"><text x="60" y="65" font-family="Arial" font-size="30" stroke-width='0' fill='black'>X</text><path d="M60,180 L240,180  M150,120 L150,240"></path></g>
  <!-- Y -->
  <g transform="scale(0.25) translate(540,900)"><text x="60" y="65" font-family="Arial" font-size="30" stroke-width='0' fill='black'>Y</text><path d="M60,180 L120,180  A30,30 0 0,1 150,210  L150,300  M180,180 L240,180"></path></g>
  <!-- Z -->
  <g transform="scale(0.25) translate(720,900)"><text x="60" y="65" font-family="Arial" font-size="30" stroke-width='0' fill='black'>Z</text><path d="M60,180 L90,180  A60,60 0 0,1 150,240  M150,120 A60,60 0 0,0 210,180  L240,180"></path></g>

</svg>