<svg xmlns="http://www.w3.org/2000/svg" baseProfile="full" version="1.1" width="300px" height="320px" style="fill: none; width: 300px; height: 300px; stroke-width: 1;">
  
  <line x1="44" y1="150" x2="44" y2="300"   style="stroke:#fff;stroke-width:1.5"></line>
  <line x1="54.5" y1="140" x2="54.5" y2="300"   style="stroke:#fff;stroke-width:1.5"></line>
  <line x1="65" y1="130" x2="65" y2="300"   style="stroke:#fff;stroke-width:1.5"></line>
  <g transform="translate(150,150) rotate(45) translate(-150,-150)">
    <path d="M75,60 L75,60 L75,240 M225,60 L225,60 L225,240 M210,60 L210,60 L210,240 M60,75 L60,75 L240,75 M60,90 L60,90 L240,90 M60,225 L60,225 L240,225 M60,210 L60,210 L240,210 M60,195 L60,195 L240,195 " style="stroke-width: 2; stroke-linecap: round; stroke-linejoin: round; stroke:black; fill: none;"></path>
    <circle cx="75" cy="75" r="3" fill="black"/>
    <circle cx="75" cy="90" r="3" fill="black"/>
    <circle cx="75" cy="225" r="3" fill="black"/>
    <circle cx="75" cy="210" r="3" fill="black"/>
    <circle cx="75" cy="195" r="3" fill="black"/>

    <circle cx="225" cy="225" r="3" fill="black"/>
    <circle cx="225" cy="210" r="3" fill="black"/>
    <circle cx="225" cy="195" r="3" fill="black"/>
    <circle cx="210" cy="225" r="3" fill="black"/>
    <circle cx="210" cy="210" r="3" fill="black"/>
    <circle cx="210" cy="195" r="3" fill="black"/>

    <circle cx="225" cy="75" r="3" fill="black"/>
    <circle cx="225" cy="90" r="3" fill="black"/>
    <circle cx="210" cy="75" r="3" fill="black"/>
    <circle cx="210" cy="90" r="3" fill="black"/>
  </g>
  <text x="40" y="30" font-family="Monospace" font-size="12" stroke-width='0' fill='black'>12 x 32</text>
  <text x="40" y="45" font-family="Monospace" font-size="12" stroke-width='0' fill='black'>384</text>
  <text x="40" y="320" font-family="Monospace" font-size="12" stroke-width='0' fill='black'>3</text>
  <text x="150" y="320" font-family="Monospace" font-size="12" stroke-width='0' fill='black'>8</text>
  <text x="250" y="320" font-family="Monospace" font-size="12" stroke-width='0' fill='black'>4</text>


</svg>