<svg class="vector" width="300px" height="300px" xmlns="http://www.w3.org/2000/svg" baseProfile="full" version="1.1" style="width: 300px; height: 300px; stroke: rgb(0, 0, 0); stroke-width: 28; fill: none; stroke-linecap: square; stroke-linejoin: bevel;"><g transform="translate(0,0)"><path id="layer_3" d="" style="stroke: rgb(204, 204, 204);"></path><path id="layer_2" d="" style="stroke: rgb(153, 153, 153);"></path><path id="layer_1" d="M60,240 A60,-60 0 0,0 120,180 A0,-30 0 0,0 120,150 M60,150 L60,150 L240,150 M150,240 L150,240 L150,180 M150,120 L150,120 L150,60 " style="stroke: black;"></path></g><g><path id="mirror_layer_3" d="" transform="translate(300,0),scale(-1,1)" style="stroke: rgb(204, 204, 204);"></path><path id="mirror_layer_2" d="" transform="translate(300,0),scale(-1,1)" style="stroke: rgb(153, 153, 153);"></path><path id="mirror_layer_1" d="M60,240 A60,-60 0 0,0 120,180 A0,-30 0 0,0 120,150 M60,150 L60,150 L240,150 M150,240 L150,240 L150,180 M150,120 L150,120 L150,60 " transform="translate(300,0),scale(-1,1)" style="stroke: black;"></path></g></svg>