<svg xmlns="http://www.w3.org/2000/svg" baseProfile="full" version="1.1" width="200" height="200" stroke="none">
  <!-- P -->
  <rect x="0" y="0" width="100" height="100" fill="blue"/>
  <rect x="34" y="34" width="32" height="32" fill="white"/>
  <!-- I -->
  <rect x="100" y="0" width="100" height="100" fill="yellow"/>
  <circle cx="150" cy="50" r="25" fill="black" />
  <!-- N -->
  <rect x="0" y="100" width="100" height="100" fill="white"/>
  <rect x="0" y="100" width="25" height="25" fill="blue"/>
  <rect x="50" y="100" width="25" height="25" fill="blue"/>
  <rect x="75" y="125" width="25" height="25" fill="blue"/>
  <rect x="25" y="125" width="25" height="25" fill="blue"/>
  <rect x="0" y="150" width="25" height="25" fill="blue"/>
  <rect x="50" y="150" width="25" height="25" fill="blue"/>
  <rect x="75" y="175" width="25" height="25" fill="blue"/>
  <rect x="25" y="175" width="25" height="25" fill="blue"/>
  <!-- O -->
  <rect x="100" y="100" width="100" height="100" fill="yellow"/>
  <polyline points="100,100 200,100 200,200" fill="red"/>
</svg>