<?xml version="1.0" encoding="UTF-8"?>
<!DOCTYPE svg PUBLIC "-//W3C//DTD SVG 1.1//EN" "http://www.w3.org/Graphics/SVG/1.1/DTD/svg11.dtd">
<!-- Creator: CorelDRAW X7 -->
<svg xmlns="http://www.w3.org/2000/svg" xml:space="preserve" width="0.999992in" height="1.5in" version="1.1" style="shape-rendering:geometricPrecision; text-rendering:geometricPrecision; image-rendering:optimizeQuality; fill-rule:evenodd; clip-rule:evenodd"
viewBox="0 0 1000 1500"
 xmlns:xlink="http://www.w3.org/1999/xlink">
 <defs>
  <style type="text/css">
   <![CDATA[
    .fil0 {fill:black}
   ]]>
  </style>
 </defs>
 <g id="Layer_x0020_1">
  <metadata id="CorelCorpID_0Corel-Layer"/>
  <path class="fil0" d="M393 54c-17,162 27,661 4,799 -43,4 -108,13 -140,-12 -36,-55 5,-307 -21,-362 -23,-17 -157,-15 -179,7 -15,28 -8,320 6,358 33,88 261,20 332,51 24,56 -8,273 12,351 9,36 76,239 112,257 29,-35 42,-157 63,-208 26,-61 13,-183 13,-255 0,-74 -16,-504 1,-534 26,-14 91,-14 120,3 33,20 32,66 33,105 4,297 -35,275 97,273 28,0 69,2 94,-1 11,-48 8,-337 -7,-373 -24,-59 -87,-49 -144,-47 -49,1 -152,4 -197,-3 -16,-82 1,-377 -18,-415 -29,-16 -152,-10 -181,6z"/>
 </g>
</svg>
