<svg class="vector" width="300px" height="300px" xmlns="http://www.w3.org/2000/svg" baseProfile="full" version="1.1" style="width: 300px; height: 300px; stroke: rgb(0, 0, 0); stroke-width: 10px; fill: none; stroke-linecap: square;"><path d="M45,60 l210,0 M45,240 l210,0 M255,60 a-15,15 0 0,0 -15,15 a-15,-15 0 0,0 -15,-15 M75,60 a-15,15 0 0,0 -15,15 a-15,-15 0 0,0 -15,-15 M255,240 a-15,-15 0 0,1 -15,-15 a-15,15 0 0,1 -15,15 M75,240 a-15,-15 0 0,1 -15,-15 a-15,15 0 0,1 -15,15 M240,75 l0,150 M60,75 l0,150 M180,60 l0,180 M60,180 l180,0 M195,60 a-15,15 0 0,0 -15,15 a-15,-15 0 0,0 -15,-15 M165,240 a15,-15 0 0,0 15,-15 a15,15 0 0,0 15,15 "></path></svg>