<?xml version="1.0" encoding="UTF-8" standalone="no"?>
<svg
   xmlns:dc="http://purl.org/dc/elements/1.1/"
   xmlns:cc="http://creativecommons.org/ns#"
   xmlns:rdf="http://www.w3.org/1999/02/22-rdf-syntax-ns#"
   xmlns:svg="http://www.w3.org/2000/svg"
   xmlns="http://www.w3.org/2000/svg"
   version="1.1"
   id="svg17415"
   viewBox="0 0 65.597503 18.3675"
   height="5.1837168mm"
   width="18.513073mm">
  <defs
     id="defs17417" />
  <metadata
     id="metadata17420">
    <rdf:RDF>
      <cc:Work
         rdf:about="">
        <dc:format>image/svg+xml</dc:format>
        <dc:type
           rdf:resource="http://purl.org/dc/dcmitype/StillImage" />
        <dc:title></dc:title>
      </cc:Work>
    </rdf:RDF>
  </metadata>
  <g
     transform="translate(-27.201246,-1001.7499)"
     id="layer1">
    <path
       id="path8534"
       style="fill:#000000;fill-opacity:1;fill-rule:nonzero;stroke:none"
       d="m 73.118746,1008.3099 -2.625,0 0,6.56 2.625,0 0,-6.56 z m -26.2375,0 -2.625,0 0,6.56 2.625,0 0,-6.56 z m -6.56125,7.8712 0,-9.1837 6.56125,0 0,-3.935 -9.18375,0 0,13.1187 -6.56,0 -3.93625,-3.935 0,-10.4962 3.93625,0 0,11.8087 2.62375,0 0,-10.4962 1.31125,-1.3125 14.4325,0 1.31125,1.3125 0,3.935 2.62375,0 0,-5.2475 1.3125,0 3.93625,3.9362 0,1.3113 1.31125,0 0,-5.2475 1.31125,0 3.93625,3.9362 0,1.3113 1.31125,0 0,-5.2475 26.24,0 0,1.3125 -2.62375,0 0,13.1187 -3.93625,3.9363 0,-11.8075 -2.62375,0 0,7.8712 -3.93625,0 0,-9.1837 6.56,0 0,-3.935 -2.62375,0 0,2.6237 -3.93625,0 0,-2.6237 -9.18375,0 0,3.935 5.24875,0 1.31125,1.3125 0,7.8712 -10.49625,0 0,-7.8712 -2.62375,0 0,7.8712 -3.935,0 0,-7.8712 -2.62375,0 0,7.8712 -3.93625,0 0,-7.8712 -2.62375,0 0,7.8712 -6.56,0 0,3.9363 -3.93625,-3.9363 z" />
  </g>
</svg>
