<svg width="30" height="30" stroke="#000" viewBox="0 0 100 100" xmlns="http://www.w3.org/2000/svg">
	<g>
		<circle xmlns="http://www.w3.org/2000/svg" fill="none" stroke="black" cy="48" cx="48" r="41" stroke-width="10"/>
		<path d="M36.254,56.132c-2.027,0-3.562-0.738-4.602-2.219c-1.041-1.479-1.559-3.45-1.559-5.915
			c0-5.42,2.053-8.131,6.16-8.131c0.82,0,1.711,0.273,2.668,0.82c0.957,0.549,1.766,1.508,2.424,2.875l6.16-3.203
			c-2.463-4.436-6.545-6.654-12.24-6.654c-3.889,0-7.104,1.287-9.648,3.861c-2.547,2.574-3.822,6.051-3.822,10.432
			c0,4.491,1.262,7.997,3.779,10.517s5.834,3.777,9.941,3.777c2.572,0,4.928-0.645,7.062-1.93c2.135-1.287,3.807-3.053,5.012-5.299
			l-5.67-2.876C40.825,54.817,38.936,56.132,36.254,56.132z M62.786,56.132c-2.027,0-3.561-0.738-4.6-2.219
			c-1.041-1.479-1.561-3.45-1.561-5.915c0-5.42,2.053-8.131,6.16-8.131c0.875,0,1.793,0.273,2.75,0.82
			c0.959,0.549,1.768,1.508,2.426,2.875l6.076-3.203c-2.41-4.436-6.461-6.654-12.156-6.654c-3.889,0-7.105,1.287-9.652,3.861
			c-2.545,2.574-3.816,6.051-3.816,10.432c0,4.491,1.244,7.997,3.736,10.517c2.49,2.52,5.818,3.777,9.98,3.777
			c2.518,0,4.846-0.645,6.98-1.93c2.135-1.287,3.832-3.053,5.094-5.299l-5.75-2.876C67.358,54.817,65.467,56.132,62.786,56.132z"/>
	</g>
</svg>


