<svg xmlns="http://www.w3.org/2000/svg" baseProfile="full" version="1.1" width="220px" height="220px" style="stroke:none; fill: #000">
  <g transform="translate(-45 -45)">
    <path d="M185,65 A60,60 0 0,0 125,125 L185,125 Z M125,245 A60,60 0 0,0 185,185 L125,185 Z M95,125 A30,30 0 0,1 125,155 A30,30 0 0,1 95,185 A30,30 0 0,1 65,155 A30,30 0 0,1 95,125 Z M155,125 A30,30 0 0,1 185,155 A30,30 0 0,1 155,185 A30,30 0 0,1 125,155 A30,30 0 0,1 155,125 Z M215,125 A30,30 0 0,1 245,155 A30,30 0 0,1 215,185 A30,30 0 0,1 185,155 A30,30 0 0,1 215,125 "/>
    <path d="M125,65 A60,60 0 0,1 185,125 L125,125 Z M185,245 A60,60 0 0,1 125,185 L185,185 Z M65,65 A60,60 0 0,1 125,125 L65,125 Z M65,245 A60,60 0 0,0 125,185 L65,185 Z M245,65 A60,60 0 0,0 185,125 L245,125 Z M245,245 A60,60 0 0,1 185,185 L245,185 Z"/>
  </g>
</svg>