<svg width="300" height="300" viewBox="40 40 280 280" fill="none" stroke="#000" stroke-linecap="square" stroke-width="35" xmlns="http://www.w3.org/2000/svg">
	<path style="stroke-width: 6px; stroke-linecap: square; stroke-linejoin: bevel; fill: #000;" d="M60,60 A30,30 0 0,1 90,90 A30,30 0 0,1 120,60 Z M90,90 L90,90 L90,300 M240,300 A30,30 0 0,0 270,270 A30,30 0 0,0 300,300 Z M270,270 L270,270 L270,60 M270,75 A15,15 0 0,1 285,60 L285,60 L270,60 Z M75,300 A15,15 0 0,0 90,285 L90,285 L90,300 Z"/>
	<path style="stroke-width: 6px; stroke-linecap: round; stroke-linejoin: bevel; fill: #000;" d="M255,60 L255,60 L270,60 L270,135 L255,135 L255,135 L105,300 L105,300 L90,300 L90,225 L105,225 L255,60 "/>
</svg>