<?xml version="1.0" encoding="UTF-8" standalone="no"?>
<!-- Created with Inkscape (http://www.inkscape.org/) -->

<svg
   width="26.45833mm"
   height="25.582479mm"
   viewBox="0 0 26.458331 25.582479"
   version="1.1"
   id="svg1"
   inkscape:version="1.3.2 (1:1.3.2+202404261509+091e20ef0f)"
   sodipodi:docname="symbol.svg"
   xml:space="preserve"
   xmlns:inkscape="http://www.inkscape.org/namespaces/inkscape"
   xmlns:sodipodi="http://sodipodi.sourceforge.net/DTD/sodipodi-0.dtd"
   xmlns="http://www.w3.org/2000/svg"
   xmlns:svg="http://www.w3.org/2000/svg"><sodipodi:namedview
     id="namedview1"
     pagecolor="#505050"
     bordercolor="#eeeeee"
     borderopacity="1"
     inkscape:showpageshadow="0"
     inkscape:pageopacity="0"
     inkscape:pagecheckerboard="0"
     inkscape:deskcolor="#d1d1d1"
     inkscape:document-units="mm"
     inkscape:zoom="5.6568542"
     inkscape:cx="986.23718"
     inkscape:cy="27.930718"
     inkscape:window-width="1920"
     inkscape:window-height="1032"
     inkscape:window-x="0"
     inkscape:window-y="808"
     inkscape:window-maximized="1"
     inkscape:current-layer="layer1"><inkscape:page
       x="0"
       y="0"
       width="26.45833"
       height="25.582479"
       id="page13"
       margin="0"
       bleed="0"
       inkscape:label="black" /></sodipodi:namedview><defs
     id="defs1" /><g
     inkscape:label="Layer 1"
     inkscape:groupmode="layer"
     id="layer1"
     transform="translate(-87.047916,-131.23333)"><g
       id="g66"
       transform="matrix(0.74021505,0,0,0.74021505,452.38455,-3.3651489)"
       style="stroke-width:1.35096"><path
         id="path140"
         style="-inkscape-font-specification:'Fungal @grow=542,TCHK=321';stroke-linecap:square;stroke-linejoin:round"
         d="m -476.94278,181.83699 v 1.05836 l 0.43493,6.90588 -5.76304,-3.82923 -0.91664,-0.52918 -1.26012,2.18235 0.91594,0.52918 6.19867,3.07595 -6.19867,3.07664 -0.91594,0.52918 1.26012,2.18305 0.91594,-0.52918 5.76374,-3.82993 -0.43493,6.90588 v 1.05836 h 2.52024 v -1.05836 l -0.43494,-6.90588 5.76374,3.82993 0.91594,0.52918 1.26012,-2.18305 -0.91594,-0.52918 -6.19797,-3.07664 6.19797,-3.07595 0.91594,-0.52918 -1.26012,-2.18235 -0.91594,0.52918 -5.76374,3.82923 0.43494,-6.90588 v -1.05836 z m -9.10707,15.77349 v 1.05836 l 0.43493,6.90518 -5.76304,-3.82923 -0.91664,-0.52918 -1.26012,2.18304 0.91664,0.52918 6.19797,3.07595 -6.19797,3.07665 -0.91664,0.52918 1.26012,2.18304 0.91664,-0.52918 5.76304,-3.82992 -0.43493,6.90587 v 1.05836 h 2.52093 v -1.05836 l -0.43493,-6.90587 5.76304,3.82992 0.91664,0.52918 1.26012,-2.18304 -0.91664,-0.52918 -6.19797,-3.07665 6.19797,-3.07595 0.91664,-0.52918 -1.26012,-2.18304 -0.91664,0.52918 -5.76304,3.82923 0.43493,-6.90518 v -1.05836 z m 18.21414,0 v 1.05836 l 0.43493,6.90588 -5.76374,-3.82993 -0.91664,-0.52918 -1.26012,2.18304 0.91664,0.52918 6.19728,3.07595 -6.19728,3.07665 -0.91664,0.52918 1.26012,2.18304 0.91664,-0.52918 5.76374,-3.82992 -0.43493,6.90587 v 1.05836 h 2.52024 v -1.05836 l -0.43494,-6.90587 5.76304,3.82992 0.91664,0.52918 1.26012,-2.18304 -0.91664,-0.52918 -6.19727,-3.07665 6.19727,-3.07595 0.91664,-0.52918 -1.26012,-2.18304 -0.91664,0.52918 -5.76304,3.82923 0.43494,-6.90518 v -1.05836 z" /></g></g></svg>
